<?xml version="1.0" encoding="utf-8"?>
<!-- Generator: Adobe Illustrator 15.0.0, SVG Export Plug-In . SVG Version: 6.00 Build 0)  -->
<!DOCTYPE svg PUBLIC "-//W3C//DTD SVG 1.1//EN" "http://www.w3.org/Graphics/SVG/1.1/DTD/svg11.dtd">
<svg version="1.1" id="Layer_1" xmlns="http://www.w3.org/2000/svg" xmlns:xlink="http://www.w3.org/1999/xlink" x="0px" y="0px"
	 width="96px" height="96px" viewBox="0 0 96 96" enable-background="new 0 0 96 96" xml:space="preserve">
<g>
	<path fill="none" stroke="#FFFFFF" stroke-width="4.5" stroke-linecap="round" stroke-linejoin="round" stroke-miterlimit="10" d="
		M84,45.736c0,19.731-16.116,48.015-36,48.015c-7.822,0-15.062-4.377-20.966-10.89C17.933,72.821,12,57.704,12,45.736
		c0-19.726,16.118-20.355,36-20.355C67.884,25.381,84,26.011,84,45.736z"/>
	<g>
		
			<line fill="none" stroke="#FFFFFF" stroke-width="4.5" stroke-linecap="round" stroke-linejoin="round" stroke-miterlimit="10" x1="27.067" y1="40.744" x2="27.067" y2="46.313"/>
		
			<line fill="none" stroke="#FFFFFF" stroke-width="4.5" stroke-linecap="round" stroke-linejoin="round" stroke-miterlimit="10" x1="41.024" y1="40.744" x2="41.024" y2="46.313"/>
		
			<line fill="none" stroke="#FFFFFF" stroke-width="4.5" stroke-linecap="round" stroke-linejoin="round" stroke-miterlimit="10" x1="54.978" y1="40.744" x2="54.978" y2="46.313"/>
		
			<line fill="none" stroke="#FFFFFF" stroke-width="4.5" stroke-linecap="round" stroke-linejoin="round" stroke-miterlimit="10" x1="68.933" y1="40.744" x2="68.933" y2="46.313"/>
	</g>
	<g>
		
			<line fill="none" stroke="#FFFFFF" stroke-width="4.5" stroke-linecap="round" stroke-linejoin="round" stroke-miterlimit="10" x1="41.024" y1="72.628" x2="41.024" y2="78.197"/>
		
			<line fill="none" stroke="#FFFFFF" stroke-width="4.5" stroke-linecap="round" stroke-linejoin="round" stroke-miterlimit="10" x1="54.978" y1="72.628" x2="54.978" y2="78.197"/>
	</g>
	<g>
		
			<line fill="none" stroke="#FFFFFF" stroke-width="4.5" stroke-linecap="round" stroke-linejoin="round" stroke-miterlimit="10" x1="34.046" y1="56.685" x2="34.046" y2="62.257"/>
		
			<line fill="none" stroke="#FFFFFF" stroke-width="4.5" stroke-linecap="round" stroke-linejoin="round" stroke-miterlimit="10" x1="48.002" y1="56.685" x2="48.002" y2="62.257"/>
		
			<line fill="none" stroke="#FFFFFF" stroke-width="4.5" stroke-linecap="round" stroke-linejoin="round" stroke-miterlimit="10" x1="61.957" y1="56.685" x2="61.957" y2="62.257"/>
	</g>
	<path fill="none" stroke="#FFFFFF" stroke-width="4.5" stroke-linecap="round" stroke-linejoin="round" stroke-miterlimit="10" d="
		M53.519,25.381c19.061,0,12.479-16.356,12.479-16.356s-5.543-0.571-9.555,3.439c-0.591,0.583-1.106,1.195-1.582,1.808
		c0.051-0.568,0.083-1.148,0.083-1.743c0.003-5.675-6.946-10.277-6.946-10.277s-6.949,4.603-6.949,10.277
		c0,0.595,0.034,1.175,0.085,1.743c-0.476-0.612-0.993-1.225-1.582-1.808c-4.012-4.011-9.554-3.439-9.554-3.439
		s-6.583,16.354,12.62,16.354"/>
</g>
</svg>
