<?xml version="1.0" encoding="UTF-8" standalone="no"?>
<svg width="94px" height="96px" viewBox="0 0 94 96" version="1.1" xmlns="http://www.w3.org/2000/svg" xmlns:xlink="http://www.w3.org/1999/xlink">
    <!-- Generator: Sketch 43.2 (39069) - http://www.bohemiancoding.com/sketch -->
    <title>Berries_AcaiBerries</title>
    <desc>Created with Sketch.</desc>
    <defs></defs>
    <g id="Page-1" stroke="none" stroke-width="1" fill="none" fill-rule="evenodd" stroke-linecap="round" stroke-linejoin="round">
        <g id="Berries_AcaiBerries" transform="translate(3.000000, 2.000000)" stroke="#FFFFFF" stroke-width="4.5">
            <circle id="Oval" cx="49.716" cy="52.31" r="9.03"></circle>
            <circle id="Oval" cx="9.143" cy="82.722" r="9.03"></circle>
            <circle id="Oval" cx="33.247" cy="21.326" r="9.03"></circle>
            <circle id="Oval" cx="12.74" cy="54.26" r="9.03"></circle>
            <path d="M87.882,0.251 C70.733,2.186 54.969,8.686 41.817,18.492" id="Shape"></path>
            <circle id="Oval" cx="67.593" cy="24.078" r="9.03"></circle>
            <path d="M87.887,0.255 C82.304,5.201 77.203,10.677 72.647,16.595" id="Shape"></path>
            <circle id="Oval" cx="49.256" cy="82.722" r="9.03"></circle>
            <path d="M51.464,61.166 C50.504,65.261 49.783,69.446 49.263,73.691" id="Shape"></path>
            <path d="M62.767,31.701 C60.251,36.28 58.045,41.051 56.15,45.977" id="Shape"></path>
            <path d="M29.44,29.507 C24.647,34.579 20.416,40.185 16.823,46.214" id="Shape"></path>
            <path d="M9.094,62.519 C7.702,66.371 6.543,70.331 5.651,74.393" id="Shape"></path>
        </g>
    </g>
</svg>