<?xml version="1.0" encoding="utf-8"?>
<!-- Generator: Adobe Illustrator 15.0.0, SVG Export Plug-In . SVG Version: 6.00 Build 0)  -->
<!DOCTYPE svg PUBLIC "-//W3C//DTD SVG 1.1//EN" "http://www.w3.org/Graphics/SVG/1.1/DTD/svg11.dtd">
<svg version="1.1" id="Layer_1" xmlns="http://www.w3.org/2000/svg" xmlns:xlink="http://www.w3.org/1999/xlink" x="0px" y="0px"
	 width="96px" height="96px" viewBox="0 0 96 96" enable-background="new 0 0 96 96" xml:space="preserve">
<g>
	
		<path fill="none" stroke="#ffffff" stroke-width="4.5003" stroke-linecap="round" stroke-linejoin="round" stroke-miterlimit="10" d="
		M83.521,31.19c-10.547,10.543-28.613,9.576-28.613,9.576s-0.965-18.062,9.581-28.609C75.035,1.611,93.101,2.578,93.101,2.578
		S94.064,20.639,83.521,31.19z"/>
	
		<path fill="none" stroke="#ffffff" stroke-width="4.5003" stroke-linecap="round" stroke-linejoin="round" stroke-miterlimit="10" d="
		M32.433,20.104c6.809,6.812,6.185,18.478,6.185,18.478s-11.666,0.625-18.476-6.188c-6.812-6.812-6.188-18.476-6.188-18.476
		S25.617,13.295,32.433,20.104z"/>
	<g>
		
			<circle fill="none" stroke="#ffffff" stroke-width="4.5003" stroke-linecap="round" stroke-linejoin="round" stroke-miterlimit="10" cx="22.001" cy="73.696" r="19.751"/>
		
			<polygon fill="none" stroke="#ffffff" stroke-width="4.5003" stroke-linecap="round" stroke-linejoin="round" stroke-miterlimit="10" points="
			15.009,75.014 11.875,77.271 14.607,78.848 13.792,81.895 16.839,81.08 18.415,83.812 20.672,80.676 		"/>
		
			<line fill="none" stroke="#ffffff" stroke-width="4.5003" stroke-linecap="round" stroke-linejoin="round" stroke-miterlimit="10" x1="35.968" y1="59.729" x2="54.909" y2="40.786"/>
	</g>
	<g>
		
			<circle fill="none" stroke="#ffffff" stroke-width="4.5003" stroke-linecap="round" stroke-linejoin="round" stroke-miterlimit="10" cx="73.999" cy="73.695" r="19.752"/>
		
			<polygon fill="none" stroke="#ffffff" stroke-width="4.5003" stroke-linecap="round" stroke-linejoin="round" stroke-miterlimit="10" points="
			75.316,80.688 77.573,83.823 79.151,81.088 82.198,81.906 81.382,78.859 84.113,77.283 80.979,75.023 		"/>
		
			<line fill="none" stroke="#ffffff" stroke-width="4.5003" stroke-linecap="round" stroke-linejoin="round" stroke-miterlimit="10" x1="60.032" y1="59.729" x2="48.022" y2="47.721"/>
	</g>
</g>
</svg>
