<?xml version="1.0" encoding="utf-8"?>
<!-- Generator: Adobe Illustrator 15.0.0, SVG Export Plug-In . SVG Version: 6.00 Build 0)  -->
<!DOCTYPE svg PUBLIC "-//W3C//DTD SVG 1.1//EN" "http://www.w3.org/Graphics/SVG/1.1/DTD/svg11.dtd">
<svg version="1.1" id="Layer_1" xmlns="http://www.w3.org/2000/svg" xmlns:xlink="http://www.w3.org/1999/xlink" x="0px" y="0px"
	 width="96px" height="96px" viewBox="0 0 96 96" enable-background="new 0 0 96 96" xml:space="preserve">
<g>
	<path fill="none" stroke="#FFFFFF" stroke-width="4.5" stroke-linecap="round" stroke-linejoin="round" stroke-miterlimit="10" d="
		M36.413,76.19c-0.713,1.564-1.119,3.293-1.119,5.121c0,6.87,5.598,12.439,12.5,12.439c6.903,0,12.501-5.569,12.501-12.439
		c0-1.837-0.41-3.574-1.128-5.142"/>
	
		<ellipse fill="none" stroke="#FFFFFF" stroke-width="4.5" stroke-linecap="round" stroke-linejoin="round" stroke-miterlimit="10" cx="23" cy="48.531" rx="12.5" ry="12.442"/>
	
		<ellipse fill="none" stroke="#FFFFFF" stroke-width="4.5" stroke-linecap="round" stroke-linejoin="round" stroke-miterlimit="10" cx="48" cy="48.531" rx="12.5" ry="12.442"/>
	
		<ellipse fill="none" stroke="#FFFFFF" stroke-width="4.5" stroke-linecap="round" stroke-linejoin="round" stroke-miterlimit="10" cx="73" cy="48.531" rx="12.5" ry="12.442"/>
	<path fill="none" stroke="#FFFFFF" stroke-width="4.5" stroke-linecap="round" stroke-linejoin="round" stroke-miterlimit="10" d="
		M48,63.783c0,6.87,5.393,12.442,12.295,12.442s12.499-5.572,12.499-12.442c0-0.981-0.126-1.931-0.344-2.848"/>
	<path fill="none" stroke="#FFFFFF" stroke-width="4.5" stroke-linecap="round" stroke-linejoin="round" stroke-miterlimit="10" d="
		M23.545,60.956c-0.214,0.908-0.339,1.854-0.339,2.827c0,6.87,5.598,12.442,12.5,12.442C42.611,76.226,48,70.653,48,63.783v-2.81"/>
	<path fill="none" stroke="#FFFFFF" stroke-width="4.5" stroke-linejoin="round" stroke-miterlimit="10" d="M68.8,2.251
		c-11.487,0-20.8,9.27-20.8,20.704"/>
	<path fill="none" stroke="#FFFFFF" stroke-width="4.5" stroke-linecap="round" stroke-linejoin="round" stroke-miterlimit="10" d="
		M72.788,36.104c0.132-0.727,0.213-1.471,0.213-2.235c0-6.87-5.598-12.439-12.501-12.439c-6.902,0-12.5,5.569-12.5,12.439"/>
	<path fill="none" stroke="#FFFFFF" stroke-width="4.5" stroke-linecap="round" stroke-linejoin="round" stroke-miterlimit="10" d="
		M48,33.868c0-6.87-5.597-12.439-12.499-12.439C28.597,21.429,23,26.998,23,33.868c0,0.765,0.08,1.509,0.212,2.235"/>
	<path fill="none" stroke="#FFFFFF" stroke-width="4.5" stroke-linejoin="round" stroke-miterlimit="10" d="M48.002,22.665
		c0,0-9.724,1.441-15.812-4.617C26.1,11.986,27.548,2.462,27.548,2.462s9.571-1.444,15.661,4.617
		c4.1,4.078,4.784,9.729,4.791,12.987L48.002,22.665z"/>
	
		<line fill="none" stroke="#FFFFFF" stroke-width="4.5" stroke-linejoin="round" stroke-miterlimit="10" x1="48" y1="22.665" x2="48" y2="36.092"/>
</g>
</svg>
