<?xml version="1.0" encoding="utf-8"?>
<!-- Generator: Adobe Illustrator 15.0.0, SVG Export Plug-In . SVG Version: 6.00 Build 0)  -->
<!DOCTYPE svg PUBLIC "-//W3C//DTD SVG 1.1//EN" "http://www.w3.org/Graphics/SVG/1.1/DTD/svg11.dtd">
<svg version="1.1" id="Layer_1" xmlns="http://www.w3.org/2000/svg" xmlns:xlink="http://www.w3.org/1999/xlink" x="0px" y="0px"
	 width="96px" height="96px" viewBox="0 0 96 96" enable-background="new 0 0 96 96" xml:space="preserve">
<g>
	<g>
		
			<ellipse fill="none" stroke="#FFFFFF" stroke-width="4.5" stroke-linecap="round" stroke-linejoin="round" stroke-miterlimit="10" cx="37.161" cy="66.273" rx="14.771" ry="27.479"/>
		
			<path fill="none" stroke="#FFFFFF" stroke-width="4.5" stroke-linecap="round" stroke-linejoin="round" stroke-miterlimit="10" d="
			M37.16,38.793c0-20.16,16.342-36.502,36.504-36.502"/>
		
			<path fill="none" stroke="#FFFFFF" stroke-width="4.5" stroke-linecap="round" stroke-linejoin="round" stroke-miterlimit="10" d="
			M50.994,56.713c-4.252-2.598-8.922-4.051-13.834-4.051c-4.914,0-9.582,1.453-13.832,4.051"/>
	</g>
	<path fill="none" stroke="#FFFFFF" stroke-width="4.5" stroke-linecap="round" stroke-linejoin="round" stroke-miterlimit="10" d="
		M17.008,10.369c8.662-8.664,14.037-9.482,16.844-6.674c2.809,2.807,1.988,8.18-6.676,16.842
		C18.514,29.203,2.479,35.066,2.479,35.066S8.34,19.031,17.008,10.369z"/>
	<g>
		
			<path fill="none" stroke="#FFFFFF" stroke-width="4.5" stroke-linecap="round" stroke-linejoin="round" stroke-miterlimit="10" d="
			M84.135,40.754c8.67,8.668,11.918,19.473,7.258,24.131c-4.658,4.66-15.463,1.408-24.131-7.258
			c-8.666-8.668-11.916-19.473-7.26-24.131C64.664,28.838,75.467,32.086,84.135,40.754z"/>
		
			<path fill="none" stroke="#FFFFFF" stroke-width="4.5" stroke-linecap="round" stroke-linejoin="round" stroke-miterlimit="10" d="
			M60.002,33.496c-7.529-7.529-8.234-19.301-2.115-27.629"/>
		
			<path fill="none" stroke="#FFFFFF" stroke-width="4.5" stroke-linecap="round" stroke-linejoin="round" stroke-miterlimit="10" d="
			M79.508,36.785c-3.404,1.826-6.551,4.096-9.334,6.877c-2.783,2.783-5.051,5.932-6.879,9.34"/>
	</g>
</g>
</svg>
