<?xml version="1.0" encoding="utf-8"?>
<!-- Generator: Adobe Illustrator 15.0.0, SVG Export Plug-In . SVG Version: 6.00 Build 0)  -->
<!DOCTYPE svg PUBLIC "-//W3C//DTD SVG 1.1//EN" "http://www.w3.org/Graphics/SVG/1.1/DTD/svg11.dtd">
<svg version="1.1" id="Layer_1" xmlns="http://www.w3.org/2000/svg" xmlns:xlink="http://www.w3.org/1999/xlink" x="0px" y="0px"
	 width="96px" height="96px" viewBox="0 0 96 96" enable-background="new 0 0 96 96" xml:space="preserve">
<g>
	<g>
		
			<circle fill="none" stroke="#FFFFFF" stroke-width="4.5" stroke-linecap="round" stroke-linejoin="round" stroke-miterlimit="10" cx="47.91" cy="62.357" r="26.241"/>
		
			<ellipse fill="none" stroke="#FFFFFF" stroke-width="4.5" stroke-linecap="round" stroke-linejoin="round" stroke-miterlimit="10" cx="47.91" cy="62.357" rx="8.747" ry="26.241"/>
		
			<line fill="none" stroke="#FFFFFF" stroke-width="4.5" stroke-linecap="round" stroke-linejoin="round" stroke-miterlimit="10" x1="47.91" y1="93.735" x2="47.91" y2="88.599"/>
	</g>
	<path fill="none" stroke="#FFFFFF" stroke-width="4.5" stroke-linecap="round" stroke-linejoin="round" stroke-miterlimit="10" d="
		M35.473,15.627c-0.002-7.345-6.626-13.298-6.626-13.298s-4.177,3.769-5.895,8.999c-0.004-0.002-0.008-0.006-0.01-0.01
		C16.454,4.832,5.347,5.428,5.347,5.428s-0.594,11.107,5.893,17.594c0.004,0.004,0.006,0.008,0.012,0.01
		c-5.234,1.718-9.001,5.896-9.001,5.896s5.955,6.626,13.3,6.626c7.344-0.002,13.297-6.626,13.297-6.626l0,0
		C28.851,28.923,35.471,22.971,35.473,15.627z"/>
	<path fill="none" stroke="#FFFFFF" stroke-width="4.5" stroke-linecap="round" stroke-linejoin="round" stroke-miterlimit="10" d="
		M78.265,34.701c2.823,2.819,7.65,2.562,7.65,2.562s0.158-3.05-1.191-5.719c0.004-0.002,0.006,0,0.006,0
		c4.984-0.002,9.021-4.493,9.021-4.493s-4.036-4.494-9.019-4.494h-0.006c1.348-2.667,1.189-5.719,1.189-5.719
		s-4.829-0.258-7.65,2.562c-2.819,2.821-2.562,7.649-2.562,7.649h0.002C75.705,27.053,75.447,31.881,78.265,34.701z"/>
	<path fill="none" stroke="#FFFFFF" stroke-width="4.5" stroke-linecap="round" stroke-linejoin="round" stroke-miterlimit="10" d="
		M47.91,36.099c0-18.685,15.147-33.832,33.832-33.832"/>
</g>
</svg>
