<?xml version="1.0" encoding="utf-8"?>
<!-- Generator: Adobe Illustrator 15.0.0, SVG Export Plug-In . SVG Version: 6.00 Build 0)  -->
<!DOCTYPE svg PUBLIC "-//W3C//DTD SVG 1.1//EN" "http://www.w3.org/Graphics/SVG/1.1/DTD/svg11.dtd">
<svg version="1.1" id="Layer_1" xmlns="http://www.w3.org/2000/svg" xmlns:xlink="http://www.w3.org/1999/xlink" x="0px" y="0px"
	 width="96px" height="96px" viewBox="0 0 96 96" enable-background="new 0 0 96 96" xml:space="preserve">
<g>
	<path fill="none" stroke="#ffffff" stroke-width="4.5" stroke-linecap="round" stroke-linejoin="round" stroke-miterlimit="10" d="
		M24.89,27.552c-3.891,0-7.046-3.167-7.046-7.078c0-3.908,3.155-7.075,7.046-7.075"/>
	
		<ellipse fill="none" stroke="#ffffff" stroke-width="4.5" stroke-linecap="round" stroke-linejoin="round" stroke-miterlimit="10" cx="59.534" cy="31.812" rx="20.371" ry="20.464"/>
	
		<ellipse fill="none" stroke="#ffffff" stroke-width="4.5" stroke-linecap="round" stroke-linejoin="round" stroke-miterlimit="10" cx="61.892" cy="29.567" rx="7.043" ry="7.081"/>
	<path fill="none" stroke="#ffffff" stroke-width="4.5" stroke-linecap="round" stroke-linejoin="round" stroke-miterlimit="10" d="
		M53.637,51.405c0.275,1.339,0.421,2.728,0.421,4.151c0,11.303-9.12,20.464-20.372,20.464c-11.251,0-20.371-9.161-20.371-20.464
		c0-5.467,2.133-10.43,5.608-14.101"/>
	<path fill="none" stroke="#ffffff" stroke-width="4.5" stroke-linecap="round" stroke-linejoin="round" stroke-miterlimit="10" d="
		M32.155,53.198c3.891,0,7.046,3.167,7.046,7.078"/>
	<path fill="none" stroke="#ffffff" stroke-width="4.5" stroke-linecap="round" stroke-linejoin="round" stroke-miterlimit="10" d="
		M40.235,38.377c-3.545,3-8.12,4.805-13.113,4.805c-11.252,0-20.372-9.161-20.372-20.464S15.87,2.251,27.122,2.251
		c8.965,0,16.577,5.818,19.301,13.901"/>
	<path fill="none" stroke="#ffffff" stroke-width="4.5" stroke-linecap="round" stroke-linejoin="round" stroke-miterlimit="10" d="
		M53.666,51.408c2.656,2.253,10.798,10.037,10.795,20.836c0.001,12.905-11.619,21.507-11.619,21.507s-10.213-7.652-11.49-19.23"/>
	<path fill="none" stroke="#ffffff" stroke-width="4.5" stroke-linecap="round" stroke-linejoin="round" stroke-miterlimit="10" d="
		M65.826,51.297c1.729-0.557,3.607-0.896,5.611-0.896c10.688,0,17.812,9.715,17.812,9.715s-7.125,9.712-17.811,9.715
		c-2.672,0-5.121-0.609-7.292-1.521"/>
</g>
</svg>
