<?xml version="1.0" encoding="utf-8"?>
<!-- Generator: Adobe Illustrator 15.0.0, SVG Export Plug-In . SVG Version: 6.00 Build 0)  -->
<!DOCTYPE svg PUBLIC "-//W3C//DTD SVG 1.1//EN" "http://www.w3.org/Graphics/SVG/1.1/DTD/svg11.dtd">
<svg version="1.1" id="Layer_1" xmlns="http://www.w3.org/2000/svg" xmlns:xlink="http://www.w3.org/1999/xlink" x="0px" y="0px"
	 width="96px" height="96px" viewBox="0 0 96 96" enable-background="new 0 0 96 96" xml:space="preserve">
<g>
	<path fill="none" stroke="#FFFFFF" stroke-width="4.5" stroke-linecap="round" stroke-linejoin="round" stroke-miterlimit="10" d="
		M16.468,53.087c-5.805,0-10.511-4.686-10.511-10.461c0-5.778,4.706-10.462,10.511-10.462"/>
	<path fill="none" stroke="#FFFFFF" stroke-width="4.5" stroke-linecap="round" stroke-linejoin="round" stroke-miterlimit="10" d="
		M37.488,53.087c-5.803,0-10.509-4.686-10.509-10.461"/>
	<path fill="none" stroke="#FFFFFF" stroke-width="4.5" stroke-linecap="round" stroke-linejoin="round" stroke-miterlimit="10" d="
		M58.512,32.164c5.805,0,10.51,4.684,10.51,10.462"/>
	<path fill="none" stroke="#FFFFFF" stroke-width="4.5" stroke-linecap="round" stroke-linejoin="round" stroke-miterlimit="10" d="
		M37.402,80.649v2.639c0,5.775,4.533,10.463,10.339,10.463c5.803,0,10.512-4.688,10.512-10.463v-2.639"/>
	<path fill="none" stroke="#FFFFFF" stroke-width="4.5" stroke-linecap="round" stroke-linejoin="round" stroke-miterlimit="10" d="
		M16.925,53.072c-0.179,0.764-0.285,1.56-0.285,2.378c0,5.775,4.707,10.461,10.512,10.461"/>
	<path fill="none" stroke="#FFFFFF" stroke-width="4.5" stroke-linecap="round" stroke-linejoin="round" stroke-miterlimit="10" d="
		M47.827,70.188c0,5.775,4.706,10.461,10.511,10.461c5.806,0,10.512-4.686,10.512-10.461c0-1.544-0.345-3.004-0.948-4.322"/>
	<path fill="none" stroke="#FFFFFF" stroke-width="4.5" stroke-linecap="round" stroke-linejoin="round" stroke-miterlimit="10" d="
		M79.188,53.087v2.363c0,5.775-4.532,10.461-10.339,10.461c-5.803,0-10.511-4.686-10.511-10.461"/>
	<path fill="none" stroke="#FFFFFF" stroke-width="4.5" stroke-linecap="round" stroke-linejoin="round" stroke-miterlimit="10" d="
		M58.512,30.294c0-5.775-4.706-10.459-10.512-10.459s-10.512,4.684-10.512,10.459"/>
	<path fill="none" stroke="#FFFFFF" stroke-width="4.5" stroke-linecap="round" stroke-linejoin="round" stroke-miterlimit="10" d="
		M79.533,32.164c5.804,0,10.51,4.684,10.51,10.462c0,5.775-4.706,10.461-10.51,10.461"/>
	<path fill="none" stroke="#FFFFFF" stroke-width="4.5" stroke-linecap="round" stroke-linejoin="round" stroke-miterlimit="10" d="
		M79.354,32.175c0.112-0.611,0.179-1.238,0.179-1.881c0-5.775-4.706-10.459-10.512-10.459c-5.804,0-10.51,4.684-10.51,10.459v1.87"
		/>
	<path fill="none" stroke="#FFFFFF" stroke-width="4.5" stroke-linecap="round" stroke-linejoin="round" stroke-miterlimit="10" d="
		M16.646,32.175c-0.113-0.611-0.179-1.238-0.179-1.881c0-5.775,4.706-10.459,10.512-10.459c5.803,0,10.509,4.684,10.509,10.459v1.87
		"/>
	<path fill="none" stroke="#FFFFFF" stroke-width="4.5" stroke-linecap="round" stroke-linejoin="round" stroke-miterlimit="10" d="
		M27.747,65.883c-0.601,1.315-0.94,2.769-0.94,4.306c0,5.775,4.706,10.461,10.509,10.461"/>
	<path fill="none" stroke="#FFFFFF" stroke-width="4.5" stroke-linecap="round" stroke-linejoin="round" stroke-miterlimit="10" d="
		M54.96,12.85c0,3.868-3.136,7.002-7.003,7.002c-3.865,0-7.002-3.134-7.002-7.002c0-5.523,7.002-10.599,7.002-10.599
		S54.96,7.326,54.96,12.85z"/>
	<path fill="none" stroke="#FFFFFF" stroke-width="4.5" stroke-linecap="round" stroke-linejoin="round" stroke-miterlimit="10" d="
		M40.955,13c0-1.813-0.691-3.624-2.074-5.009C36.115,5.225,30.158,6.89,24.95,5.015c-0.104,5,1.149,10.226,3.917,12.993l5.498,4.893
		"/>
	<path fill="none" stroke="#FFFFFF" stroke-width="4.5" stroke-linecap="round" stroke-linejoin="round" stroke-miterlimit="10" d="
		M54.964,13c0-1.813,0.691-3.624,2.074-5.009c2.766-2.767,8.724-1.102,13.931-2.977c0.104,5-1.149,10.226-3.915,12.993l-5.5,4.893"
		/>
</g>
</svg>
