<?xml version="1.0" encoding="utf-8"?>
<!-- Generator: Adobe Illustrator 15.0.0, SVG Export Plug-In . SVG Version: 6.00 Build 0)  -->
<!DOCTYPE svg PUBLIC "-//W3C//DTD SVG 1.1//EN" "http://www.w3.org/Graphics/SVG/1.1/DTD/svg11.dtd">
<svg version="1.1" id="Layer_1" xmlns="http://www.w3.org/2000/svg" xmlns:xlink="http://www.w3.org/1999/xlink" x="0px" y="0px"
	 width="96px" height="96px" viewBox="0 0 96 96" enable-background="new 0 0 96 96" xml:space="preserve">
<g>
	<path fill="none" stroke="#FFFFFF" stroke-width="4.5" stroke-linecap="round" stroke-linejoin="round" stroke-miterlimit="10" d="
		M47.999,82.383c25.267,0,45.751-20.482,45.751-45.752H2.25C2.25,61.9,22.733,82.383,47.999,82.383z"/>
	
		<line fill="none" stroke="#FFFFFF" stroke-width="4.5" stroke-linecap="round" stroke-linejoin="round" stroke-miterlimit="10" x1="36.046" y1="92.229" x2="60.796" y2="92.229"/>
	
		<line fill="none" stroke="#FFFFFF" stroke-width="4.5" stroke-linecap="round" stroke-linejoin="round" stroke-miterlimit="10" x1="4.011" y1="49.229" x2="91.5" y2="49.229"/>
	<path fill="none" stroke="#FFFFFF" stroke-width="4.5" stroke-linecap="round" stroke-linejoin="round" stroke-miterlimit="10" d="
		M48,68.604c13.184,0,24.504-7.98,29.394-19.375"/>
	<path fill="none" stroke="#FFFFFF" stroke-width="4.5" stroke-linecap="round" stroke-linejoin="round" stroke-miterlimit="10" d="
		M39.192,36.631c1.346-5.139,0.018-10.828-4.017-14.855C29.126,15.736,4.5,13.027,4.5,13.027s1.564,14.141,4.96,23.604H39.192z"/>
	<path fill="none" stroke="#FFFFFF" stroke-width="4.5" stroke-linecap="round" stroke-linejoin="round" stroke-miterlimit="10" d="
		M66.665,4.48c0,0-21.665-3.752-30.234,6.035c-2.364,2.701-4.108,5.672-4.717,8.951c1.43,0.707,2.627,1.475,3.462,2.309
		c4.034,4.027,5.362,9.717,4.017,14.855h19.031c0.841-0.58,1.647-1.229,2.395-1.975C67.298,27.99,66.665,4.48,66.665,4.48z"/>
	<path fill="none" stroke="#FFFFFF" stroke-width="4.5" stroke-linecap="round" stroke-linejoin="round" stroke-miterlimit="10" d="
		M90.248,36.631c0.806-1.916,1.252-4.02,1.252-6.227c0-8.877-7.195-16.072-16.072-16.072c-3.473,0-6.68,1.111-9.308,2.984"/>
	<path fill="none" stroke="#FFFFFF" stroke-width="4.5" stroke-linecap="round" stroke-linejoin="round" stroke-miterlimit="10" d="
		M20.438,28.947c1.945,1.494,9.185,7.684,9.185,7.684"/>
	<path fill="none" stroke="#FFFFFF" stroke-width="4.5" stroke-linecap="round" stroke-linejoin="round" stroke-miterlimit="10" d="
		M39.192,36.631c1.683-4.992,5.559-11.801,10.188-16.428"/>
</g>
</svg>
