<?xml version="1.0" encoding="utf-8"?>
<!-- Generator: Adobe Illustrator 15.0.0, SVG Export Plug-In . SVG Version: 6.00 Build 0)  -->
<!DOCTYPE svg PUBLIC "-//W3C//DTD SVG 1.1//EN" "http://www.w3.org/Graphics/SVG/1.1/DTD/svg11.dtd">
<svg version="1.1" id="Layer_1" xmlns="http://www.w3.org/2000/svg" xmlns:xlink="http://www.w3.org/1999/xlink" x="0px" y="0px"
	 width="96px" height="96px" viewBox="0 0 96 96" enable-background="new 0 0 96 96" xml:space="preserve">
<g>
	<path fill="none" stroke="#FFFFFF" stroke-width="4.5" stroke-linecap="round" stroke-linejoin="round" stroke-miterlimit="10" d="
		M92.5,48.002c0-12.099-8.61-22.18-20.035-24.465C70.18,12.11,60.097,3.502,48,3.502c-12.099,0-22.18,8.608-24.465,20.035
		C12.11,25.822,3.5,35.903,3.5,48.002c0,12.097,8.61,22.178,20.035,24.463C25.82,83.892,35.901,92.5,48,92.5
		c12.097,0,22.18-8.608,24.465-20.035C83.89,70.18,92.5,60.099,92.5,48.002z"/>
	<g>
		<g>
			
				<line fill="none" stroke="#FFFFFF" stroke-width="4.5" stroke-linecap="round" stroke-linejoin="round" stroke-miterlimit="10" x1="61.037" y1="34.963" x2="54.375" y2="41.627"/>
			
				<line fill="none" stroke="#FFFFFF" stroke-width="4.5" stroke-linecap="round" stroke-linejoin="round" stroke-miterlimit="10" x1="41.625" y1="54.375" x2="34.961" y2="61.039"/>
		</g>
		<g>
			
				<line fill="none" stroke="#FFFFFF" stroke-width="4.5" stroke-linecap="round" stroke-linejoin="round" stroke-miterlimit="10" x1="61.037" y1="61.039" x2="54.375" y2="54.375"/>
			
				<line fill="none" stroke="#FFFFFF" stroke-width="4.5" stroke-linecap="round" stroke-linejoin="round" stroke-miterlimit="10" x1="41.625" y1="41.627" x2="34.961" y2="34.963"/>
		</g>
	</g>
	<path fill="none" stroke="#FFFFFF" stroke-width="4.5" stroke-linecap="round" stroke-linejoin="round" stroke-miterlimit="10" d="
		M23.535,23.537c0.997-4.985,3.48-9.438,6.968-12.868c-6.901-3.672-21.086-1.25-21.086-1.25s-2.42,14.187,1.252,21.084
		C14.1,27.018,18.55,24.534,23.535,23.537z"/>
	<path fill="none" stroke="#FFFFFF" stroke-width="4.5" stroke-linecap="round" stroke-linejoin="round" stroke-miterlimit="10" d="
		M72.475,72.471c-0.997,4.985-3.48,9.436-6.969,12.866c6.902,3.671,21.087,1.252,21.087,1.252s2.419-14.187-1.252-21.087
		C81.91,68.988,77.46,71.474,72.475,72.471z"/>
</g>
</svg>
