<?xml version="1.0" encoding="utf-8"?>
<!-- Generator: Adobe Illustrator 15.0.0, SVG Export Plug-In . SVG Version: 6.00 Build 0)  -->
<!DOCTYPE svg PUBLIC "-//W3C//DTD SVG 1.1//EN" "http://www.w3.org/Graphics/SVG/1.1/DTD/svg11.dtd">
<svg version="1.1" id="Layer_1" xmlns="http://www.w3.org/2000/svg" xmlns:xlink="http://www.w3.org/1999/xlink" x="0px" y="0px"
	 width="96px" height="96px" viewBox="0 0 96 96" enable-background="new 0 0 96 96" xml:space="preserve">
<g>
	<path fill="none" stroke="#FFFFFF" stroke-width="4.5" stroke-linecap="round" stroke-linejoin="round" stroke-miterlimit="10" d="
		M71.001,80.324c6.843-6.68,10.739-14.24,12.19-23.006l-0.007-0.001c1.738-8.701-0.758-18.081-7.503-24.826
		c-10.729-10.728-28.121-10.726-38.848,0c-4.503,4.503-7.09,10.184-7.813,16.05l-0.025-0.001
		c-1.519,11.871-10.378,15.434-13.711,20.112c-3.789,5.32-4.214,11.915-0.001,16.723C25.699,97.262,53.633,97.287,71.001,80.324z"/>
	
		<line fill="none" stroke="#FFFFFF" stroke-width="4.5" stroke-linecap="round" stroke-linejoin="round" stroke-miterlimit="10" x1="75.65" y1="32.462" x2="80.637" y2="27.476"/>
	<path fill="none" stroke="#FFFFFF" stroke-width="4.5" stroke-linecap="round" stroke-linejoin="round" stroke-miterlimit="10" d="
		M74.885,22.19c0,0-5.476-4.062-5.49-10.02c-0.015-5.959,5.367-9.92,5.367-9.92s5.4,3.985,5.415,9.944
		c0.011,4.012-2.426,7.118-4.02,8.721L74.885,22.19z"/>
</g>
</svg>
