<?xml version="1.0" encoding="utf-8"?>
<!-- Generator: Adobe Illustrator 15.0.0, SVG Export Plug-In . SVG Version: 6.00 Build 0)  -->
<!DOCTYPE svg PUBLIC "-//W3C//DTD SVG 1.1//EN" "http://www.w3.org/Graphics/SVG/1.1/DTD/svg11.dtd">
<svg version="1.1" id="Layer_1" xmlns="http://www.w3.org/2000/svg" xmlns:xlink="http://www.w3.org/1999/xlink" x="0px" y="0px"
	 width="96px" height="96px" viewBox="0 0 96 96" enable-background="new 0 0 96 96" xml:space="preserve">
<g>
	<g>
		<g>
			
				<line fill="none" stroke="#FFFFFF" stroke-width="4.4996" stroke-linecap="round" stroke-linejoin="round" stroke-miterlimit="10" x1="53.033" y1="59.495" x2="50.955" y2="59.495"/>
			
				<line fill="none" stroke="#FFFFFF" stroke-width="4.4996" stroke-linecap="round" stroke-linejoin="round" stroke-miterlimit="10" x1="44.986" y1="46.104" x2="43.518" y2="47.57"/>
			
				<line fill="none" stroke="#FFFFFF" stroke-width="4.4996" stroke-linecap="round" stroke-linejoin="round" stroke-miterlimit="10" x1="44.986" y1="72.889" x2="43.518" y2="71.42"/>
			
				<line fill="none" stroke="#FFFFFF" stroke-width="4.4996" stroke-linecap="round" stroke-linejoin="round" stroke-miterlimit="10" x1="36.798" y1="75.076" x2="37.593" y2="76.997"/>
			
				<line fill="none" stroke="#FFFFFF" stroke-width="4.4996" stroke-linecap="round" stroke-linejoin="round" stroke-miterlimit="10" x1="50.34" y1="52.246" x2="48.422" y2="53.041"/>
			
				<line fill="none" stroke="#FFFFFF" stroke-width="4.4996" stroke-linecap="round" stroke-linejoin="round" stroke-miterlimit="10" x1="37.593" y1="41.997" x2="36.794" y2="43.914"/>
			
				<line fill="none" stroke="#FFFFFF" stroke-width="4.4996" stroke-linecap="round" stroke-linejoin="round" stroke-miterlimit="10" x1="50.342" y1="66.744" x2="48.422" y2="65.949"/>
			
				<line fill="none" stroke="#FFFFFF" stroke-width="4.4996" stroke-linecap="round" stroke-linejoin="round" stroke-miterlimit="10" x1="42.287" y1="59.495" x2="40.208" y2="59.495"/>
			
				<line fill="none" stroke="#FFFFFF" stroke-width="4.4996" stroke-linecap="round" stroke-linejoin="round" stroke-miterlimit="10" x1="37.905" y1="51.934" x2="36.437" y2="53.404"/>
			
				<line fill="none" stroke="#FFFFFF" stroke-width="4.4996" stroke-linecap="round" stroke-linejoin="round" stroke-miterlimit="10" x1="37.905" y1="67.055" x2="36.437" y2="65.588"/>
		</g>
		
			<path fill="none" stroke="#FFFFFF" stroke-width="4.4996" stroke-linecap="round" stroke-linejoin="round" stroke-miterlimit="10" d="
			M35.562,91.205c17.515,0,31.712-14.196,31.712-31.71c0-10.599-5.22-19.959-13.21-25.719h0.07
			c-6.825-4.663-11.31-12.501-11.31-21.391c0-2.643,0.4-5.188,1.137-7.589h-7.687h-3.027h-7.685c0.736,2.4,1.137,4.946,1.137,7.589
			c0,8.89-4.484,16.728-11.31,21.391h0.068C7.471,39.536,2.25,48.896,2.25,59.495c0,17.514,14.198,31.71,31.712,31.71H35.562z"/>
	</g>
	
		<path fill="none" stroke="#FFFFFF" stroke-width="4.4996" stroke-linecap="round" stroke-linejoin="round" stroke-miterlimit="10" d="
		M59.396,80.366c2.465,0.803,5.092,1.25,7.823,1.25h1.275c13.948,0,25.256-11.308,25.256-25.254c0-8.442-4.158-15.898-10.519-20.482
		h0.055c-5.438-3.715-9.007-9.958-9.007-17.037c0-2.104,0.32-4.133,0.906-6.045h-6.123h-2.41H60.53
		c0.588,1.912,0.904,3.941,0.904,6.045c0,6.093-2.654,11.554-6.855,15.328"/>
</g>
</svg>
