<?xml version="1.0" encoding="utf-8"?>
<!-- Generator: Adobe Illustrator 15.0.0, SVG Export Plug-In . SVG Version: 6.00 Build 0)  -->
<!DOCTYPE svg PUBLIC "-//W3C//DTD SVG 1.1//EN" "http://www.w3.org/Graphics/SVG/1.1/DTD/svg11.dtd">
<svg version="1.1" id="Layer_1" xmlns="http://www.w3.org/2000/svg" xmlns:xlink="http://www.w3.org/1999/xlink" x="0px" y="0px"
	 width="96px" height="96px" viewBox="0 0 96 96" enable-background="new 0 0 96 96" xml:space="preserve">
<g>
	<path fill="none" stroke="#FFFFFF" stroke-width="4.5" stroke-linecap="round" stroke-linejoin="round" stroke-miterlimit="10" d="
		M69.473,24.392"/>
	
		<line fill="none" stroke="#FFFFFF" stroke-width="4.5" stroke-linejoin="round" stroke-miterlimit="10" x1="63.275" y1="0" x2="63.275" y2="30.603"/>
	<path fill="none" stroke="#FFFFFF" stroke-width="4.5" stroke-linecap="round" stroke-linejoin="round" stroke-miterlimit="10" d="
		M67.869,30.942c3.949-0.198,9.768-1.375,14.095-5.754c7.196-7.282,5.487-18.726,5.487-18.726s-11.316-1.74-18.515,5.546
		c-4.943,5-5.685,11.967-5.663,15.838"/>
	<path fill="none" stroke="#FFFFFF" stroke-width="4.5" stroke-linecap="round" stroke-linejoin="round" stroke-miterlimit="10" d="
		M55.94,78.286c0-5.635-4.567-10.2-10.199-10.2c-2.328,0-4.446,0.809-6.164,2.12l-0.006-0.011
		c-2.927,2.181-6.547,3.486-10.477,3.486c-3.972,0-7.625-1.335-10.567-3.552l-0.005,0.004c-1.699-1.269-3.786-2.048-6.073-2.048
		c-5.634,0-10.199,4.565-10.199,10.2c0,3.804,2.107,7.085,5.194,8.836c6.2,4.156,13.626,6.628,21.65,6.628
		c8.001,0,15.401-2.46,21.587-6.592C53.804,85.413,55.94,82.116,55.94,78.286z"/>
	<path fill="none" stroke="#FFFFFF" stroke-width="4.5" stroke-linecap="round" stroke-linejoin="round" stroke-miterlimit="10" d="
		M63.275,30.603c-16.833,0-30.478,13.645-30.478,30.475c0,4.088,0.827,7.975,2.292,11.532c1.616-0.592,3.125-1.405,4.481-2.414
		l0.006,0.011c1.718-1.312,3.836-2.12,6.164-2.12c5.632,0,10.199,4.565,10.199,10.2c0,3.83-2.137,7.127-5.259,8.872
		c-0.486,0.323-0.99,0.618-1.491,0.921c4.215,2.207,8.997,3.475,14.085,3.475c16.829,0,30.475-13.645,30.475-30.477
		C93.75,44.247,80.104,30.603,63.275,30.603z"/>
	<path fill="none" stroke="#FFFFFF" stroke-width="4.5" stroke-linecap="round" stroke-linejoin="round" stroke-miterlimit="10" d="
		M35.09,72.609c-1.401-3.404-2.197-7.114-2.265-11.007c-2.444-0.565-4.696-1.632-6.637-3.094l-0.005,0.006
		c-1.697-1.27-3.786-2.049-6.073-2.049c-5.632,0-10.199,4.565-10.199,10.201c0,0.592,0.067,1.161,0.165,1.725
		c0.765-0.183,1.555-0.306,2.373-0.306c2.287,0,4.374,0.779,6.073,2.048l0.005-0.004c2.942,2.217,6.596,3.552,10.567,3.552
		c2.024,0,3.99-0.274,5.769-0.983C35.09,72.609,35.09,72.609,35.09,72.609z"/>
</g>
</svg>
