<?xml version="1.0" encoding="utf-8"?>
<!-- Generator: Adobe Illustrator 15.0.0, SVG Export Plug-In . SVG Version: 6.00 Build 0)  -->
<!DOCTYPE svg PUBLIC "-//W3C//DTD SVG 1.1//EN" "http://www.w3.org/Graphics/SVG/1.1/DTD/svg11.dtd">
<svg version="1.1" id="Layer_1" xmlns="http://www.w3.org/2000/svg" xmlns:xlink="http://www.w3.org/1999/xlink" x="0px" y="0px"
	 width="96px" height="96px" viewBox="0 0 96 96" enable-background="new 0 0 96 96" xml:space="preserve">
<g>
	<path fill="none" stroke="#FFFFFF" stroke-width="4.5" stroke-linecap="round" stroke-linejoin="round" stroke-miterlimit="10" d="
		M60.809,45.826v-8.039c0-7.135-5.733-12.914-12.809-12.914c-7.072,0-12.809,5.779-12.809,12.914v8.039
		C27.609,50.285,22.5,58.549,22.5,68.035C22.5,82.238,33.917,93.75,48,93.75c14.086,0,25.5-11.512,25.5-25.715
		C73.5,58.549,68.391,50.285,60.809,45.826z"/>
	
		<line fill="none" stroke="#FFFFFF" stroke-width="4.5" stroke-linejoin="round" stroke-miterlimit="10" x1="48" y1="0" x2="48" y2="24.873"/>
	<path fill="none" stroke="#FFFFFF" stroke-width="4.5" stroke-linecap="round" stroke-linejoin="round" stroke-miterlimit="10" d="
		M48.012,23.18c-0.085-2.805,0.299-8.559,4.321-12.613c5.508-5.555,14.162-4.23,14.162-4.23s1.31,8.729-4.195,14.279
		c-4.679,4.717-11.631,4.475-13.614,4.295"/>
</g>
</svg>
