<?xml version="1.0" encoding="utf-8"?>
<!-- Generator: Adobe Illustrator 15.0.0, SVG Export Plug-In . SVG Version: 6.00 Build 0)  -->
<!DOCTYPE svg PUBLIC "-//W3C//DTD SVG 1.1//EN" "http://www.w3.org/Graphics/SVG/1.1/DTD/svg11.dtd">
<svg version="1.1" id="Layer_1" xmlns="http://www.w3.org/2000/svg" xmlns:xlink="http://www.w3.org/1999/xlink" x="0px" y="0px"
	 width="96px" height="96px" viewBox="0 0 96 96" enable-background="new 0 0 96 96" xml:space="preserve">
<g>
	<path fill="none" stroke="#FFFFFF" stroke-width="4.5" stroke-linejoin="round" stroke-miterlimit="10" d="M53.396,27.569
		c-1.828,0-3.615,0.158-5.364,0.436c-1.767-0.283-3.579-0.436-5.428-0.436C24.045,27.569,9,42.353,9,60.587
		s15.045,33.018,33.604,33.018c1.837,0,3.639-0.152,5.396-0.428c1.756,0.275,3.558,0.428,5.396,0.428
		C71.956,93.604,87,78.821,87,60.587S71.956,27.569,53.396,27.569z"/>
	<path fill="none" stroke="#FFFFFF" stroke-width="4.5" stroke-linecap="round" stroke-linejoin="round" stroke-miterlimit="10" d="
		M19.793,63.712c-0.003-6.75,2.06-13.025,5.597-18.254"/>
	<path fill="none" stroke="#FFFFFF" stroke-width="4.5" stroke-linejoin="round" stroke-miterlimit="10" d="M87,60.587
		c0,18.234-15.044,33.018-33.604,33.018"/>
	<path fill="none" stroke="#FFFFFF" stroke-width="4.5" stroke-linejoin="round" stroke-miterlimit="10" d="M53.396,27.569"/>
	
		<line fill="none" stroke="#FFFFFF" stroke-width="4.5" stroke-linejoin="round" stroke-miterlimit="10" x1="48" y1="-0.146" x2="48" y2="28.005"/>
	<path fill="none" stroke="#FFFFFF" stroke-width="4.5" stroke-linejoin="round" stroke-miterlimit="10" d="M44.339,27.587
		c-3.147-0.158-7.782-1.096-11.23-4.586C27.375,17.2,28.737,8.083,28.737,8.083s9.015-1.385,14.751,4.418
		c3.938,3.984,4.527,9.533,4.512,12.619"/>
	<path fill="none" stroke="#FFFFFF" stroke-width="4.5" stroke-linejoin="round" stroke-miterlimit="10" d="M48,27.993
		c11.502,2.174,20.204,12.385,20.204,24.648"/>
</g>
</svg>
