<?xml version="1.0" encoding="utf-8"?>
<!-- Generator: Adobe Illustrator 15.0.0, SVG Export Plug-In . SVG Version: 6.00 Build 0)  -->
<!DOCTYPE svg PUBLIC "-//W3C//DTD SVG 1.1//EN" "http://www.w3.org/Graphics/SVG/1.1/DTD/svg11.dtd">
<svg version="1.1" id="Layer_1" xmlns="http://www.w3.org/2000/svg" xmlns:xlink="http://www.w3.org/1999/xlink" x="0px" y="0px"
	 width="96px" height="96px" viewBox="0 0 96 96" enable-background="new 0 0 96 96" xml:space="preserve">
<g>
	<g>
		
			<path fill="none" stroke="#FFFFFF" stroke-width="4.5" stroke-linecap="round" stroke-linejoin="round" stroke-miterlimit="10" d="
			M59.612,57.722c0,10.605-5.199,19.197-11.612,19.197s-11.611-8.592-11.611-19.197c0-10.602,5.198-19.195,11.611-19.195
			S59.612,47.12,59.612,57.722z"/>
		
			<path fill="none" stroke="#FFFFFF" stroke-width="4.5" stroke-linecap="round" stroke-linejoin="round" stroke-miterlimit="10" d="
			M76.175,49.948c-0.019-0.061-0.027-0.113-0.054-0.178c-3.562-9-9.547-14.994-9.547-23.461c0-8.469-6.864-15.334-15.332-15.334
			c-1.113,0-2.196,0.125-3.242,0.352c-1.046-0.227-2.128-0.352-3.241-0.352c-8.469,0-15.333,6.865-15.333,15.334
			c0,8.467-5.983,14.461-9.546,23.461c-0.026,0.064-0.035,0.117-0.055,0.178c-1.784,3.912-2.804,8.244-2.804,12.824
			c0,17.109,13.871,30.979,30.979,30.979c17.108,0,30.979-13.869,30.979-30.979C78.979,58.192,77.959,53.86,76.175,49.948z"/>
		
			<line fill="none" stroke="#FFFFFF" stroke-width="4.5" stroke-linecap="round" stroke-linejoin="round" stroke-miterlimit="10" x1="48" y1="2.251" x2="48" y2="11.327"/>
		
			<line fill="none" stroke="#FFFFFF" stroke-width="4.5" stroke-linecap="round" stroke-linejoin="round" stroke-miterlimit="10" x1="48" y1="46.192" x2="48" y2="46.192"/>
		
			<line fill="none" stroke="#FFFFFF" stroke-width="4.5" stroke-linecap="round" stroke-linejoin="round" stroke-miterlimit="10" x1="44.167" y1="53.329" x2="44.167" y2="53.329"/>
		
			<line fill="none" stroke="#FFFFFF" stroke-width="4.5" stroke-linecap="round" stroke-linejoin="round" stroke-miterlimit="10" x1="43.793" y1="61.589" x2="43.793" y2="61.589"/>
		
			<line fill="none" stroke="#FFFFFF" stroke-width="4.5" stroke-linecap="round" stroke-linejoin="round" stroke-miterlimit="10" x1="51.834" y1="53.329" x2="51.834" y2="53.329"/>
		
			<line fill="none" stroke="#FFFFFF" stroke-width="4.5" stroke-linecap="round" stroke-linejoin="round" stroke-miterlimit="10" x1="52.207" y1="61.589" x2="52.207" y2="61.589"/>
		
			<line fill="none" stroke="#FFFFFF" stroke-width="4.5" stroke-linecap="round" stroke-linejoin="round" stroke-miterlimit="10" x1="48" y1="68.726" x2="48" y2="68.726"/>
	</g>
</g>
</svg>
