<?xml version="1.0" encoding="utf-8"?>
<!-- Generator: Adobe Illustrator 15.0.0, SVG Export Plug-In . SVG Version: 6.00 Build 0)  -->
<!DOCTYPE svg PUBLIC "-//W3C//DTD SVG 1.1//EN" "http://www.w3.org/Graphics/SVG/1.1/DTD/svg11.dtd">
<svg version="1.1" id="Layer_1" xmlns="http://www.w3.org/2000/svg" xmlns:xlink="http://www.w3.org/1999/xlink" x="0px" y="0px"
	 width="96px" height="96px" viewBox="0 0 96 96" enable-background="new 0 0 96 96" xml:space="preserve">
<g>
	
		<path fill="none" stroke="#FFFFFF" stroke-width="4.4999" stroke-linecap="round" stroke-linejoin="round" stroke-miterlimit="10" d="
		M56.509,72.995c-2.794,0.299-5.691,0.486-8.659,0.486c-15.117,0-28.042-9.292-33.271-22.427"/>
	
		<path fill="none" stroke="#FFFFFF" stroke-width="4.4999" stroke-linecap="round" stroke-linejoin="round" stroke-miterlimit="10" d="
		M88.677,56.086c-7.149,0.529-19.696,4.764-33.841,4.764c-19.746,0-35.75-15.854-35.75-35.408c0-1.294,0.083-2.571,0.22-3.829H7.696
		c-0.024,0.047-0.054,0.086-0.076,0.135c0.706,1.896,1.11,3.935,1.11,6.069c0,13.551-6.48,19.65-6.48,19.967
		c0,25.021,21.152,39.216,46.419,39.216c18.275,0,35.987-11.555,44.275-20.87L88.677,56.086z"/>
	
		<path fill="none" stroke="#FFFFFF" stroke-width="4.4999" stroke-linecap="round" stroke-linejoin="round" stroke-miterlimit="10" d="
		M74.517,35.533c-2.227,2.113-4.622,4.195-7.202,6.164c-12.489,9.514-28.916,10.424-42.035,3.674"/>
	
		<path fill="none" stroke="#FFFFFF" stroke-width="4.4999" stroke-linecap="round" stroke-linejoin="round" stroke-miterlimit="10" d="
		M53.184,60.814c7.28-1.207,14.62-4.527,21.263-9.59c12.569-9.576,18.577-26.802,19.304-37.552l-8.3-4.672
		c-4.635,4.109-11.001,13.596-20.727,21.007c-13.582,10.346-33.058,7.828-43.501-5.618c-0.692-0.893-1.318-1.812-1.896-2.75"/>
</g>
</svg>
