<?xml version="1.0" encoding="utf-8"?>
<!-- Generator: Adobe Illustrator 15.0.0, SVG Export Plug-In . SVG Version: 6.00 Build 0)  -->
<!DOCTYPE svg PUBLIC "-//W3C//DTD SVG 1.1//EN" "http://www.w3.org/Graphics/SVG/1.1/DTD/svg11.dtd">
<svg version="1.1" id="Layer_1" xmlns="http://www.w3.org/2000/svg" xmlns:xlink="http://www.w3.org/1999/xlink" x="0px" y="0px"
	 width="96px" height="96px" viewBox="0 0 96 96" enable-background="new 0 0 96 96" xml:space="preserve">
<g>
	<path fill="none" stroke="#FFFFFF" stroke-width="4.5" stroke-linecap="round" stroke-linejoin="round" stroke-miterlimit="10" d="
		M41.57,27.715"/>
	
		<line fill="none" stroke="#FFFFFF" stroke-width="4.5" stroke-linejoin="round" stroke-miterlimit="10" x1="36.174" y1="0" x2="36.174" y2="28.15"/>
	<path fill="none" stroke="#FFFFFF" stroke-width="4.5" stroke-linecap="round" stroke-linejoin="round" stroke-miterlimit="10" d="
		M39.835,28.367c3.147-0.158,7.782-1.096,11.23-4.584c5.733-5.801,4.371-14.918,4.371-14.918s-9.015-1.387-14.751,4.418
		c-3.938,3.984-4.527,9.533-4.512,12.617"/>
	<path fill="none" stroke="#FFFFFF" stroke-width="4.5" stroke-linecap="round" stroke-linejoin="round" stroke-miterlimit="10" d="
		M92.625,60.951c0,18.115-14.686,32.799-32.8,32.799c-18.115,0-32.801-14.684-32.801-32.799H92.625z"/>
	<path fill="none" stroke="#FFFFFF" stroke-width="4.5" stroke-linecap="round" stroke-linejoin="round" stroke-miterlimit="10" d="
		M48.003,91.553c-3.668,1.42-7.657,2.197-11.827,2.197c-18.116,0-32.801-14.684-32.801-32.799S18.06,28.15,36.176,28.15
		c18.114,0,32.799,14.686,32.799,32.801"/>
	<g>
		
			<line fill="none" stroke="#FFFFFF" stroke-width="4.5" stroke-linecap="round" stroke-linejoin="round" stroke-miterlimit="10" x1="59.824" y1="60.951" x2="43.992" y2="76.783"/>
		
			<line fill="none" stroke="#FFFFFF" stroke-width="4.5" stroke-linecap="round" stroke-linejoin="round" stroke-miterlimit="10" x1="59.824" y1="60.951" x2="59.824" y2="83.344"/>
		
			<line fill="none" stroke="#FFFFFF" stroke-width="4.5" stroke-linecap="round" stroke-linejoin="round" stroke-miterlimit="10" x1="59.83" y1="60.955" x2="75.656" y2="76.783"/>
	</g>
</g>
</svg>
