<?xml version="1.0" encoding="utf-8"?>
<!-- Generator: Adobe Illustrator 15.0.0, SVG Export Plug-In . SVG Version: 6.00 Build 0)  -->
<!DOCTYPE svg PUBLIC "-//W3C//DTD SVG 1.1//EN" "http://www.w3.org/Graphics/SVG/1.1/DTD/svg11.dtd">
<svg version="1.1" id="Layer_1" xmlns="http://www.w3.org/2000/svg" xmlns:xlink="http://www.w3.org/1999/xlink" x="0px" y="0px"
	 width="96px" height="96px" viewBox="0 0 96 96" enable-background="new 0 0 96 96" xml:space="preserve">
<g>
	<path fill="none" stroke="#FFFFFF" stroke-width="4.5" stroke-linecap="round" stroke-linejoin="round" stroke-miterlimit="10" d="
		M93.75,53.949c0,19.233-15.592,34.827-34.825,34.827c-19.237,0-34.83-15.594-34.83-34.827H93.75z"/>
	<g>
		
			<line fill="none" stroke="#FFFFFF" stroke-width="4.5" stroke-linecap="round" stroke-linejoin="round" stroke-miterlimit="10" x1="58.923" y1="53.949" x2="42.111" y2="70.76"/>
		
			<line fill="none" stroke="#FFFFFF" stroke-width="4.5" stroke-linecap="round" stroke-linejoin="round" stroke-miterlimit="10" x1="58.923" y1="53.949" x2="58.923" y2="77.723"/>
		
			<line fill="none" stroke="#FFFFFF" stroke-width="4.5" stroke-linecap="round" stroke-linejoin="round" stroke-miterlimit="10" x1="58.929" y1="53.955" x2="75.731" y2="70.76"/>
	</g>
	<path fill="none" stroke="#FFFFFF" stroke-width="4.5" stroke-linecap="round" stroke-linejoin="round" stroke-miterlimit="10" d="
		M24.095,53.949h53.979c1.87-2.838,3.261-5.93,4.018-9.222c0.232,0.027,0.457,0.069,0.696,0.069c3.377,0,6.115-2.738,6.115-6.114
		c0-3.38-2.738-6.118-6.115-6.118c-0.239,0-0.464,0.045-0.696,0.069C78.757,18.156,63.68,7.226,45.575,7.226
		c-18.102,0-33.179,10.929-36.515,25.408c-0.229-0.024-0.456-0.069-0.694-0.069c-3.378,0-6.116,2.738-6.116,6.118
		c0,3.376,2.738,6.114,6.116,6.114c0.238,0,0.465-0.042,0.694-0.069c2.014,8.741,8.325,16.171,16.981,20.7
		C24.785,61.833,24.095,57.973,24.095,53.949z"/>
	<path fill="none" stroke="#FFFFFF" stroke-width="4.5" stroke-linecap="round" stroke-linejoin="round" stroke-miterlimit="10" d="
		M45.575,19.051c-6.957,0-13.146,2.731-17.193,6.981"/>
</g>
</svg>
