<?xml version="1.0" encoding="utf-8"?>
<!-- Generator: Adobe Illustrator 15.0.0, SVG Export Plug-In . SVG Version: 6.00 Build 0)  -->
<!DOCTYPE svg PUBLIC "-//W3C//DTD SVG 1.1//EN" "http://www.w3.org/Graphics/SVG/1.1/DTD/svg11.dtd">
<svg version="1.1" id="Layer_1" xmlns="http://www.w3.org/2000/svg" xmlns:xlink="http://www.w3.org/1999/xlink" x="0px" y="0px"
	 width="96px" height="96px" viewBox="0 0 96 96" enable-background="new 0 0 96 96" xml:space="preserve">
<g>
	<path fill="none" stroke="#FFFFFF" stroke-width="4.5" stroke-linecap="round" stroke-linejoin="round" stroke-miterlimit="10" d="
		M14.709,56.408c0-7.897,3.565-14.959,9.176-19.664"/>
	<g>
		<path fill="none" stroke="#FFFFFF" stroke-width="4.5" stroke-linejoin="round" stroke-miterlimit="10" d="M41.631,27.716"/>
		<path fill="none" stroke="#FFFFFF" stroke-width="4.5" stroke-linejoin="round" stroke-miterlimit="10" d="M92.742,60.951
			c0,18.116-14.685,32.8-32.799,32.8c-18.116,0-32.801-14.684-32.801-32.8H92.742z"/>
		<g>
			
				<line fill="none" stroke="#FFFFFF" stroke-width="4.5" stroke-linecap="round" stroke-linejoin="round" stroke-miterlimit="10" x1="59.943" y1="79.502" x2="59.943" y2="79.502"/>
			
				<line fill="none" stroke="#FFFFFF" stroke-width="4.5" stroke-linecap="round" stroke-linejoin="round" stroke-miterlimit="10" x1="49.095" y1="73.865" x2="49.095" y2="73.865"/>
			
				<line fill="none" stroke="#FFFFFF" stroke-width="4.5" stroke-linecap="round" stroke-linejoin="round" stroke-miterlimit="10" x1="70.792" y1="73.865" x2="70.792" y2="73.865"/>
			
				<line fill="none" stroke="#FFFFFF" stroke-width="4.5" stroke-linecap="round" stroke-linejoin="round" stroke-miterlimit="10" x1="59.943" y1="63.235" x2="59.943" y2="63.235"/>
			
				<line fill="none" stroke="#FFFFFF" stroke-width="4.5" stroke-linecap="round" stroke-linejoin="round" stroke-miterlimit="10" x1="42.832" y1="63.235" x2="42.832" y2="63.235"/>
			
				<line fill="none" stroke="#FFFFFF" stroke-width="4.5" stroke-linecap="round" stroke-linejoin="round" stroke-miterlimit="10" x1="77.051" y1="63.235" x2="77.051" y2="63.235"/>
		</g>
		<path fill="none" stroke="#FFFFFF" stroke-width="4.5" stroke-linejoin="round" stroke-miterlimit="10" d="M77.224,60.951
			c0.163-1.413,0.248-2.85,0.248-4.308c0-17.953-12.752-32.929-29.691-36.363c0.216-4.696,2.763-8.776,6.529-11.098
			c-1.055-0.259-2.15-0.411-3.287-0.411c-2.186,0-4.239,0.52-6.073,1.424l-4.585-7.944l-4.585,7.944
			c-1.837-0.904-3.891-1.424-6.073-1.424c-1.137,0-2.235,0.152-3.29,0.411c3.769,2.321,6.316,6.401,6.531,11.098
			C16.008,23.717,3.258,38.69,3.258,56.644c0,20.495,16.613,37.107,37.107,37.107c3.501,0,6.89-0.485,10.101-1.392"/>
	</g>
</g>
</svg>
