<?xml version="1.0" encoding="utf-8"?>
<!-- Generator: Adobe Illustrator 15.0.0, SVG Export Plug-In . SVG Version: 6.00 Build 0)  -->
<!DOCTYPE svg PUBLIC "-//W3C//DTD SVG 1.1//EN" "http://www.w3.org/Graphics/SVG/1.1/DTD/svg11.dtd">
<svg version="1.1" id="Layer_1" xmlns="http://www.w3.org/2000/svg" xmlns:xlink="http://www.w3.org/1999/xlink" x="0px" y="0px"
	 width="96px" height="96px" viewBox="0 0 96 96" enable-background="new 0 0 96 96" xml:space="preserve">
<g>
	<path fill="none" stroke="#FFFFFF" stroke-width="4.5" stroke-linejoin="round" stroke-miterlimit="10" d="M38.607,76.595
		c0,9.474-7.717,17.156-17.234,17.156c-9.52,0-17.234-7.683-17.234-17.156c0-9.471,7.715-17.149,17.234-17.149
		C30.891,59.445,38.607,67.124,38.607,76.595z"/>
	<path fill="none" stroke="#FFFFFF" stroke-width="4.5" stroke-linejoin="round" stroke-miterlimit="10" d="M85.936,76.595
		c0,9.474-7.717,17.156-17.234,17.156c-9.52,0-17.234-7.683-17.234-17.156c0-9.471,7.715-17.149,17.234-17.149
		C78.219,59.445,85.936,67.124,85.936,76.595z"/>
	<path fill="none" stroke="#FFFFFF" stroke-width="4.5" stroke-linejoin="round" stroke-miterlimit="10" d="M69.034,22.591
		c0,0,10.772-1.596,17.518,5.114c6.747,6.717,5.143,17.268,5.143,17.268s-10.604,1.602-17.351-5.115
		c-4.541-4.517-5.3-10.777-5.309-14.389L69.034,22.591z"/>
	<path fill="none" stroke="#FFFFFF" stroke-width="4.5" stroke-linecap="round" stroke-linejoin="round" stroke-miterlimit="10" d="
		M21.373,68.51c0-31.109,20.464-57.438,48.665-66.259"/>
	<path fill="none" stroke="#FFFFFF" stroke-width="4.5" stroke-linecap="round" stroke-linejoin="round" stroke-miterlimit="10" d="
		M63.094,70.272C49.974,53.536,45.623,32.161,50.04,12.347"/>
</g>
</svg>
