<?xml version="1.0" encoding="utf-8"?>
<!-- Generator: Adobe Illustrator 15.0.0, SVG Export Plug-In . SVG Version: 6.00 Build 0)  -->
<!DOCTYPE svg PUBLIC "-//W3C//DTD SVG 1.1//EN" "http://www.w3.org/Graphics/SVG/1.1/DTD/svg11.dtd">
<svg version="1.1" id="Layer_1" xmlns="http://www.w3.org/2000/svg" xmlns:xlink="http://www.w3.org/1999/xlink" x="0px" y="0px"
	 width="96px" height="96px" viewBox="0 0 96 96" enable-background="new 0 0 96 96" xml:space="preserve">
<g>
	<g>
		<g>
			
				<path fill="none" stroke="#FFFFFF" stroke-width="4.5" stroke-linecap="round" stroke-linejoin="round" stroke-miterlimit="10" d="
				M72.012,53.649c0,19.26-15.614,34.875-34.874,34.875c-19.263,0-34.876-15.615-34.876-34.875H72.012z"/>
			<g>
				
					<line fill="none" stroke="#FFFFFF" stroke-width="4.5" stroke-linecap="round" stroke-linejoin="round" stroke-miterlimit="10" x1="37.137" y1="53.649" x2="20.303" y2="70.482"/>
				
					<line fill="none" stroke="#FFFFFF" stroke-width="4.5" stroke-linecap="round" stroke-linejoin="round" stroke-miterlimit="10" x1="37.137" y1="53.649" x2="37.137" y2="77.456"/>
				
					<line fill="none" stroke="#FFFFFF" stroke-width="4.5" stroke-linecap="round" stroke-linejoin="round" stroke-miterlimit="10" x1="37.143" y1="53.655" x2="53.969" y2="70.483"/>
			</g>
		</g>
		
			<path fill="none" stroke="#FFFFFF" stroke-width="4.5" stroke-linecap="round" stroke-linejoin="round" stroke-miterlimit="10" d="
			M25.89,53.662c-1.218-3.549-1.878-7.357-1.878-11.321c0-19.254,15.607-34.863,34.863-34.863c19.254,0,34.863,15.609,34.863,34.863
			c0,17.83-13.386,32.534-30.655,34.611"/>
	</g>
	
		<line fill="none" stroke="#FFFFFF" stroke-width="4.5" stroke-linecap="round" stroke-linejoin="round" stroke-miterlimit="10" x1="68.477" y1="25.946" x2="71.068" y2="28.082"/>
</g>
</svg>
