<?xml version="1.0" encoding="utf-8"?>
<!-- Generator: Adobe Illustrator 15.0.0, SVG Export Plug-In . SVG Version: 6.00 Build 0)  -->
<!DOCTYPE svg PUBLIC "-//W3C//DTD SVG 1.1//EN" "http://www.w3.org/Graphics/SVG/1.1/DTD/svg11.dtd">
<svg version="1.1" id="Layer_1" xmlns="http://www.w3.org/2000/svg" xmlns:xlink="http://www.w3.org/1999/xlink" x="0px" y="0px"
	 width="96px" height="96px" viewBox="0 0 96 96" enable-background="new 0 0 96 96" xml:space="preserve">
<g>
	<g>
		
			<path fill="none" stroke="#FFFFFF" stroke-width="4.5" stroke-linecap="round" stroke-linejoin="round" stroke-miterlimit="10" d="
			M38.693,7.015c10.58,7.043,13.412,21.394,13.412,21.394s-14.332,2.932-24.914-4.109C16.609,17.257,13.777,2.906,13.777,2.906
			S28.109-0.026,38.693,7.015z"/>
		<g>
			
				<path fill="none" stroke="#FFFFFF" stroke-width="4.5" stroke-linecap="round" stroke-linejoin="round" stroke-miterlimit="10" d="
				M42.809,83.872C31.785,94.9,15.967,96.957,7.48,88.471c-8.486-8.485-6.428-24.303,4.596-35.323
				c11.023-11.027,26.84-13.086,35.328-4.6C55.889,57.037,53.832,72.851,42.809,83.872z"/>
			
				<path fill="none" stroke="#FFFFFF" stroke-width="4.5" stroke-linecap="round" stroke-linejoin="round" stroke-miterlimit="10" d="
				M18.252,90.05c-2.541,2.541-7.375,1.819-10.799-1.607c-3.428-3.425-4.148-8.258-1.609-10.799
				c2.539-2.537,7.375-1.817,10.799,1.608C20.068,82.676,20.789,87.513,18.252,90.05z"/>
		</g>
		<g>
			
				<ellipse transform="matrix(-0.7071 0.7071 -0.7071 -0.7071 174.97 37.2047)" fill="none" stroke="#FFFFFF" stroke-width="4.5" stroke-linecap="round" stroke-linejoin="round" stroke-miterlimit="10" cx="79.78" cy="54.837" rx="12.052" ry="15.654"/>
			
				<path fill="none" stroke="#FFFFFF" stroke-width="4.5" stroke-linecap="round" stroke-linejoin="round" stroke-miterlimit="10" d="
				M82.955,67.069c1.861,1.86,5.404,1.332,7.912-1.18c2.508-2.508,3.037-6.049,1.174-7.908c-1.855-1.859-5.396-1.333-7.904,1.177
				C81.625,61.668,81.098,65.208,82.955,67.069z"/>
		</g>
		
			<line fill="none" stroke="#FFFFFF" stroke-width="4.5" stroke-linecap="round" stroke-linejoin="round" stroke-miterlimit="10" x1="47.404" y1="48.548" x2="89.242" y2="6.708"/>
	</g>
	<path fill="none" stroke="#FFFFFF" stroke-width="4.5" stroke-linecap="round" stroke-linejoin="round" stroke-miterlimit="10" d="
		M68.568,43.917c-4.414-4.774-4.301-12.23,0.34-16.869"/>
</g>
</svg>
