<?xml version="1.0" encoding="utf-8"?>
<!-- Generator: Adobe Illustrator 15.0.0, SVG Export Plug-In . SVG Version: 6.00 Build 0)  -->
<!DOCTYPE svg PUBLIC "-//W3C//DTD SVG 1.1//EN" "http://www.w3.org/Graphics/SVG/1.1/DTD/svg11.dtd">
<svg version="1.1" id="Layer_1" xmlns="http://www.w3.org/2000/svg" xmlns:xlink="http://www.w3.org/1999/xlink" x="0px" y="0px"
	 width="96px" height="96px" viewBox="0 0 96 96" enable-background="new 0 0 96 96" xml:space="preserve">
<g>
	
		<line fill="none" stroke="#FFFFFF" stroke-width="4.5" stroke-linejoin="round" stroke-miterlimit="10" x1="48" y1="0.007" x2="48" y2="92.138"/>
	<path fill="none" stroke="#FFFFFF" stroke-width="4.5" stroke-linecap="round" stroke-linejoin="round" stroke-miterlimit="10" d="
		M84.009,50.227c0-14.156-11.477-25.631-25.632-25.631c-3.697,0-7.201,0.799-10.377,2.207c-3.176-1.408-6.68-2.207-10.377-2.207
		c-14.155,0-25.632,11.475-25.632,25.631c0,4.875,1.387,9.416,3.748,13.295l-0.02,0.027L26.523,84.21l0.004-0.002
		c2.434,5.615,8.02,9.549,14.531,9.549c2.494,0,4.844-0.594,6.941-1.619c2.098,1.025,4.447,1.619,6.941,1.619
		c6.512,0,12.098-3.934,14.531-9.549l0.004,0.002L80.28,63.549l-0.02-0.027C82.622,59.643,84.009,55.102,84.009,50.227z"/>
	<path fill="none" stroke="#FFFFFF" stroke-width="4.5" stroke-linecap="round" stroke-linejoin="round" stroke-miterlimit="10" d="
		M48.012,23.488c-0.086-2.804,0.299-8.558,4.32-12.612c5.508-5.555,14.162-4.23,14.162-4.23s1.311,8.729-4.195,14.279
		c-2.533,2.554-5.734,3.655-8.451,4.097"/>
	<path fill="none" stroke="#FFFFFF" stroke-width="4.5" stroke-linecap="round" stroke-linejoin="round" stroke-miterlimit="10" d="
		M71.496,48.527c-1.611-5.748-6.145-10.279-11.895-11.891"/>
	
		<line fill="none" stroke="#FFFFFF" stroke-width="4.5" stroke-linecap="round" stroke-linejoin="round" stroke-miterlimit="10" x1="36.506" y1="53.754" x2="36.506" y2="57.203"/>
</g>
</svg>
