<?xml version="1.0" encoding="utf-8"?>
<!-- Generator: Adobe Illustrator 15.0.0, SVG Export Plug-In . SVG Version: 6.00 Build 0)  -->
<!DOCTYPE svg PUBLIC "-//W3C//DTD SVG 1.1//EN" "http://www.w3.org/Graphics/SVG/1.1/DTD/svg11.dtd">
<svg version="1.1" id="Layer_1" xmlns="http://www.w3.org/2000/svg" xmlns:xlink="http://www.w3.org/1999/xlink" x="0px" y="0px"
	 width="96px" height="96px" viewBox="0 0 96 96" enable-background="new 0 0 96 96" xml:space="preserve">
<g>
	
		<circle fill="none" stroke="#FFFFFF" stroke-width="4.5" stroke-linecap="round" stroke-linejoin="round" stroke-miterlimit="10" cx="64.808" cy="58.1" r="28.941"/>
	<g>
		
			<line fill="none" stroke="#FFFFFF" stroke-width="4.5" stroke-linecap="round" stroke-linejoin="round" stroke-miterlimit="10" x1="68.42" y1="54.488" x2="61.195" y2="61.713"/>
		
			<line fill="none" stroke="#FFFFFF" stroke-width="4.5" stroke-linecap="round" stroke-linejoin="round" stroke-miterlimit="10" x1="68.42" y1="61.713" x2="61.195" y2="54.488"/>
	</g>
	<path fill="none" stroke="#FFFFFF" stroke-width="4.5" stroke-linejoin="round" stroke-miterlimit="10" d="M71.61,29.979
		c-0.84-4.991-3.187-9.778-7.039-13.629c-9.854-9.853-25.826-9.853-35.681,0L9.642,35.601c-9.855,9.853-9.854,25.828,0.001,35.681
		c8.539,8.54,21.677,9.679,31.441,3.416"/>
	<g>
		<g>
			
				<line fill="none" stroke="#FFFFFF" stroke-width="4.5" stroke-linecap="round" stroke-linejoin="round" stroke-miterlimit="10" x1="64.808" y1="39.929" x2="64.808" y2="43.379"/>
			
				<line fill="none" stroke="#FFFFFF" stroke-width="4.5" stroke-linecap="round" stroke-linejoin="round" stroke-miterlimit="10" x1="64.808" y1="72.822" x2="64.808" y2="76.272"/>
		</g>
		<g>
			
				<line fill="none" stroke="#FFFFFF" stroke-width="4.5" stroke-linecap="round" stroke-linejoin="round" stroke-miterlimit="10" x1="82.98" y1="58.101" x2="79.529" y2="58.101"/>
			
				<line fill="none" stroke="#FFFFFF" stroke-width="4.5" stroke-linecap="round" stroke-linejoin="round" stroke-miterlimit="10" x1="50.086" y1="58.101" x2="46.638" y2="58.101"/>
		</g>
		<g>
			
				<line fill="none" stroke="#FFFFFF" stroke-width="4.5" stroke-linecap="round" stroke-linejoin="round" stroke-miterlimit="10" x1="77.657" y1="45.251" x2="75.217" y2="47.691"/>
			
				<line fill="none" stroke="#FFFFFF" stroke-width="4.5" stroke-linecap="round" stroke-linejoin="round" stroke-miterlimit="10" x1="54.398" y1="68.51" x2="51.958" y2="70.95"/>
		</g>
		<g>
			
				<line fill="none" stroke="#FFFFFF" stroke-width="4.5" stroke-linecap="round" stroke-linejoin="round" stroke-miterlimit="10" x1="77.657" y1="70.95" x2="75.217" y2="68.51"/>
			
				<line fill="none" stroke="#FFFFFF" stroke-width="4.5" stroke-linecap="round" stroke-linejoin="round" stroke-miterlimit="10" x1="54.398" y1="47.691" x2="51.958" y2="45.251"/>
		</g>
	</g>
</g>
</svg>
