<?xml version="1.0" encoding="utf-8"?>
<!-- Generator: Adobe Illustrator 15.0.0, SVG Export Plug-In . SVG Version: 6.00 Build 0)  -->
<!DOCTYPE svg PUBLIC "-//W3C//DTD SVG 1.1//EN" "http://www.w3.org/Graphics/SVG/1.1/DTD/svg11.dtd">
<svg version="1.1" id="Layer_1" xmlns="http://www.w3.org/2000/svg" xmlns:xlink="http://www.w3.org/1999/xlink" x="0px" y="0px"
	 width="96px" height="96px" viewBox="0 0 96 96" enable-background="new 0 0 96 96" xml:space="preserve">
<g>
	<g>
		
			<path fill="none" stroke="#FFFFFF" stroke-width="4.5" stroke-linecap="round" stroke-linejoin="round" stroke-miterlimit="10" d="
			M92.833,53.943c-2.672-8.465-11.725-13.164-20.191-10.479c-3.487,1.109-46.618,14.74-50.049,15.83
			c-8.476,2.67-13.174,11.716-10.5,20.183c5.6,17.742,30.393,15.966,47.726,10.494C77.152,84.5,98.448,71.732,92.833,53.943z"/>
		
			<path fill="none" stroke="#FFFFFF" stroke-width="4.5" stroke-linecap="round" stroke-linejoin="round" stroke-miterlimit="10" d="
			M67.827,52.525c-1.195-3.783-5.241-5.884-9.026-4.683c-1.559,0.493-20.836,6.589-22.371,7.073
			c-3.788,1.195-5.888,5.238-4.692,9.022c2.501,7.933,13.585,7.137,21.331,4.692C60.819,66.186,70.336,60.48,67.827,52.525z"/>
	</g>
	<g>
		
			<path fill="none" stroke="#FFFFFF" stroke-width="4.5" stroke-linecap="round" stroke-linejoin="round" stroke-miterlimit="10" d="
			M56.803,29.91c2.169-5.625-0.644-11.955-6.274-14.118C48.205,14.902,19.54,3.859,17.258,2.986
			C11.628,0.812,5.303,3.621,3.134,9.247c-4.547,11.786,9.364,21.349,20.881,25.793C35.533,39.481,52.245,41.73,56.803,29.91z"/>
		
			<path fill="none" stroke="#FFFFFF" stroke-width="4.5" stroke-linecap="round" stroke-linejoin="round" stroke-miterlimit="10" d="
			M44.132,18.562c0.971-2.518-0.286-5.346-2.803-6.312c-1.04-0.396-13.852-5.332-14.872-5.725c-2.517-0.971-5.346,0.287-6.312,2.799
			c-2.033,5.271,4.186,9.544,9.333,11.529C34.625,22.84,42.094,23.844,44.132,18.562z"/>
	</g>
</g>
</svg>
