<?xml version="1.0" encoding="utf-8"?>
<!-- Generator: Adobe Illustrator 15.0.0, SVG Export Plug-In . SVG Version: 6.00 Build 0)  -->
<!DOCTYPE svg PUBLIC "-//W3C//DTD SVG 1.1//EN" "http://www.w3.org/Graphics/SVG/1.1/DTD/svg11.dtd">
<svg version="1.1" id="Layer_1" xmlns="http://www.w3.org/2000/svg" xmlns:xlink="http://www.w3.org/1999/xlink" x="0px" y="0px"
	 width="96px" height="96px" viewBox="0 0 96 96" enable-background="new 0 0 96 96" xml:space="preserve">
<g>
	<path fill="none" stroke="#FFFFFF" stroke-width="4.5" stroke-linecap="round" stroke-linejoin="round" stroke-miterlimit="10" d="
		M26.498,51.123l9.513-37.633c-5.076-3.764-9.512-5.1-9.512-5.1s-4.437,1.336-9.513,5.1L26.498,51.123z"/>
	<path fill="none" stroke="#FFFFFF" stroke-width="4.5" stroke-linecap="round" stroke-linejoin="round" stroke-miterlimit="10" d="
		M49.866,72.083l35.905-21.416c-0.998-6.732-3.359-11.127-3.359-11.127s-4.396-2.361-11.128-3.362L49.866,72.083z"/>
	<path fill="none" stroke="#FFFFFF" stroke-width="4.5" stroke-linecap="round" stroke-linejoin="round" stroke-miterlimit="10" d="
		M93.635,45.979L49.866,72.083L75.97,28.318c-8.821-0.674-20.626,1.354-31.878,12.607c-15.61,15.609-16.287,32.824-6.089,43.023
		c10.199,10.2,27.413,9.521,43.022-6.09C92.278,66.609,94.307,54.799,93.635,45.979z"/>
	<path fill="none" stroke="#FFFFFF" stroke-width="4.5" stroke-linecap="round" stroke-linejoin="round" stroke-miterlimit="10" d="
		M44.092,40.926c2.196-2.195,4.414-4.031,6.626-5.574c0.004-0.301,0.029-0.587,0.029-0.893c0-14.775-6.421-23.859-12.653-29.208
		L26.498,51.123L14.903,5.252C8.669,10.601,2.25,19.684,2.25,34.459c0,20.496,10.857,32.242,24.249,32.242
		c1.626,0,3.205-0.202,4.74-0.551C31.629,58.17,35.7,49.316,44.092,40.926z"/>
</g>
</svg>
