<?xml version="1.0" encoding="utf-8"?>
<!-- Generator: Adobe Illustrator 15.0.0, SVG Export Plug-In . SVG Version: 6.00 Build 0)  -->
<!DOCTYPE svg PUBLIC "-//W3C//DTD SVG 1.1//EN" "http://www.w3.org/Graphics/SVG/1.1/DTD/svg11.dtd">
<svg version="1.1" id="Layer_1" xmlns="http://www.w3.org/2000/svg" xmlns:xlink="http://www.w3.org/1999/xlink" x="0px" y="0px"
	 width="96px" height="96px" viewBox="0 0 96 96" enable-background="new 0 0 96 96" xml:space="preserve">
<g>
	<path fill="none" stroke="#FFFFFF" stroke-width="4.5" stroke-linecap="round" stroke-linejoin="round" stroke-miterlimit="10" d="
		M12.029,36.462c-13.04,13.041-13.038,34.18,0,47.219c13.04,13.038,34.178,13.038,47.218,0"/>
	<path fill="none" stroke="#FFFFFF" stroke-width="4.5" stroke-linecap="round" stroke-linejoin="round" stroke-miterlimit="10" d="
		M50.65,45.106C37.6,32.056,20.328,28.163,12.075,36.417c-7.783,7.782-4.761,23.577,6.549,36.297l-1.067,5.441l5.438-1.069
		c12.73,11.349,28.552,14.389,36.344,6.595C67.593,75.431,63.702,58.159,50.65,45.106z"/>
	<path fill="none" stroke="#FFFFFF" stroke-width="4.5" stroke-linecap="round" stroke-linejoin="round" stroke-miterlimit="10" d="
		M30.968,32.962c0.519-16.887,14.37-30.419,31.384-30.419c17.34,0,31.398,14.057,31.398,31.397
		c0,16.994-13.497,30.832-30.354,31.383"/>
	
		<line fill="none" stroke="#FFFFFF" stroke-width="4.5" stroke-linecap="round" stroke-linejoin="round" stroke-miterlimit="10" x1="79.479" y1="36.555" x2="79.479" y2="36.555"/>
	
		<line fill="none" stroke="#FFFFFF" stroke-width="4.5" stroke-linecap="round" stroke-linejoin="round" stroke-miterlimit="10" x1="68.183" y1="32.213" x2="68.183" y2="32.213"/>
	
		<line fill="none" stroke="#FFFFFF" stroke-width="4.5" stroke-linecap="round" stroke-linejoin="round" stroke-miterlimit="10" x1="72.776" y1="44.5" x2="72.776" y2="44.5"/>
	<path fill="none" stroke="#FFFFFF" stroke-width="4.5" stroke-linecap="round" stroke-linejoin="round" stroke-miterlimit="10" d="
		M41.642,54.05c8.066,8.065,11.916,17.289,8.601,20.599c-3.311,3.314-12.533-0.537-20.597-8.601
		c-8.064-8.062-11.913-17.284-8.602-20.596C24.356,42.139,33.58,45.989,41.642,54.05z"/>
</g>
</svg>
