<?xml version="1.0" encoding="utf-8"?>
<!-- Generator: Adobe Illustrator 15.0.0, SVG Export Plug-In . SVG Version: 6.00 Build 0)  -->
<!DOCTYPE svg PUBLIC "-//W3C//DTD SVG 1.1//EN" "http://www.w3.org/Graphics/SVG/1.1/DTD/svg11.dtd">
<svg version="1.1" id="Layer_1" xmlns="http://www.w3.org/2000/svg" xmlns:xlink="http://www.w3.org/1999/xlink" x="0px" y="0px"
	 width="96px" height="96px" viewBox="0 0 96 96" enable-background="new 0 0 96 96" xml:space="preserve">
<g>
	<g>
		<path fill="none" stroke="#FFFFFF" stroke-width="4.5" stroke-linejoin="round" stroke-miterlimit="10" d="M61.336,66.115
			c0-4.285-3.475-7.756-7.759-7.756c-1.646,0-3.163,0.518-4.418,1.389l-0.005-0.004c-3.258,2.428-7.617,5.762-17.025,4.562
			c-4.386-0.561-8.486-2.953-11.762-5.422l-0.004,0.004c-1.892-1.41-4.215-2.279-6.761-2.279c-6.271,0-11.353,5.084-11.353,11.354
			c0,4.234,2.347,7.887,5.782,9.834c6.9,4.627,15.165,6.475,24.097,6.475c12.766,0,24.344-8.494,27.824-13.736l-0.004-0.006
			C60.819,69.275,61.336,67.758,61.336,66.115z"/>
		
			<line fill="none" stroke="#FFFFFF" stroke-width="4.5" stroke-linecap="round" stroke-linejoin="round" stroke-miterlimit="10" x1="34.285" y1="71.088" x2="34.285" y2="64.506"/>
		
			<line fill="none" stroke="#FFFFFF" stroke-width="4.5" stroke-linecap="round" stroke-linejoin="round" stroke-miterlimit="10" x1="22.13" y1="67.645" x2="26.177" y2="62.455"/>
	</g>
	<g>
		<path fill="none" stroke="#FFFFFF" stroke-width="4.5" stroke-linejoin="round" stroke-miterlimit="10" d="M14.124,40.967
			c-2.458-3.51-1.604-8.348,1.906-10.805c1.348-0.943,2.887-1.389,4.416-1.396V28.76c4.061,0.119,9.545,0.35,16.563-6.031
			c3.271-2.975,5.256-7.289,6.522-11.188h0.006c0.74-2.24,2.144-4.285,4.229-5.746c5.136-3.598,12.214-2.35,15.812,2.785
			c2.43,3.469,2.603,7.807,0.906,11.373c-2.997,7.75-8.707,14.004-16.022,19.129c-10.456,7.324-24.812,7.008-30.671,4.711v-0.006
			C16.361,43.258,15.066,42.311,14.124,40.967z"/>
		
			<line fill="none" stroke="#FFFFFF" stroke-width="4.5" stroke-linecap="round" stroke-linejoin="round" stroke-miterlimit="10" x1="39.134" y1="29.52" x2="35.358" y2="24.129"/>
		
			<line fill="none" stroke="#FFFFFF" stroke-width="4.5" stroke-linecap="round" stroke-linejoin="round" stroke-miterlimit="10" x1="47.114" y1="19.727" x2="40.822" y2="17.799"/>
	</g>
	<g>
		<path fill="none" stroke="#FFFFFF" stroke-width="4.5" stroke-linejoin="round" stroke-miterlimit="10" d="M75.714,92.262
			c-4.285,0.018-7.771-3.441-7.789-7.727c-0.006-1.645,0.507-3.164,1.373-4.424l-0.005-0.004c2.413-3.268,5.73-7.641,4.493-17.045
			c-0.577-4.383-2.988-8.473-5.469-11.738l0.003-0.006c-1.418-1.885-2.297-4.203-2.307-6.75
			c-0.026-6.271,5.036-11.373,11.306-11.398c4.234-0.018,7.896,2.314,9.858,5.742c4.656,6.881,6.537,15.139,6.572,24.07
			c0.053,12.766-8.394,24.377-13.623,27.881l-0.006-0.004C78.87,91.732,77.354,92.256,75.714,92.262z"/>
		
			<line fill="none" stroke="#FFFFFF" stroke-width="4.5" stroke-linecap="round" stroke-linejoin="round" stroke-miterlimit="10" x1="80.575" y1="65.191" x2="73.995" y2="65.219"/>
		
			<line fill="none" stroke="#FFFFFF" stroke-width="4.5" stroke-linecap="round" stroke-linejoin="round" stroke-miterlimit="10" x1="77.083" y1="53.051" x2="71.911" y2="57.119"/>
	</g>
</g>
</svg>
