<?xml version="1.0" encoding="utf-8"?>
<!-- Generator: Adobe Illustrator 15.0.0, SVG Export Plug-In . SVG Version: 6.00 Build 0)  -->
<!DOCTYPE svg PUBLIC "-//W3C//DTD SVG 1.1//EN" "http://www.w3.org/Graphics/SVG/1.1/DTD/svg11.dtd">
<svg version="1.1" id="Layer_1" xmlns="http://www.w3.org/2000/svg" xmlns:xlink="http://www.w3.org/1999/xlink" x="0px" y="0px"
	 width="96px" height="96px" viewBox="0 0 96 96" enable-background="new 0 0 96 96" xml:space="preserve">
<g>
	<path fill="none" stroke="#FFFFFF" stroke-width="4.5" stroke-linecap="round" stroke-linejoin="round" stroke-miterlimit="10" d="
		M93.742,60.349c0-4.396-5.557-7.971-12.516-8.158c1.174-4.281,0.494-8.486-2.672-10.666c-4.625-3.178-11.02,2.435-20.436,6.43
		c5.52-12.787,14.615-21.717,11.457-26.817c-1.848-2.985-6.006-3.265-10.518-1.659C58.895,9.922,54.012,2.251,48,2.251
		S37.107,9.922,36.943,19.478c-4.516-1.605-8.672-1.326-10.521,1.659c-3.158,5.101,5.939,14.03,11.457,26.817
		c-9.414-3.996-15.809-9.607-20.434-6.43c-3.166,2.18-3.846,6.385-2.672,10.666c-6.959,0.188-12.516,3.762-12.516,8.158
		c0,4.398,5.557,7.973,12.516,8.16c-1.174,4.279-0.494,8.485,2.672,10.665c6.121,4.206,18.17-9.439,30.555-9.439
		c12.383,0,24.436,13.646,30.555,9.439c3.166-2.18,3.846-6.386,2.672-10.665C88.186,68.321,93.742,64.747,93.742,60.349z"/>
	
		<line fill="none" stroke="#FFFFFF" stroke-width="4.5" stroke-linecap="round" stroke-linejoin="round" stroke-miterlimit="10" x1="48" y1="93.751" x2="48" y2="69.734"/>
	<g>
		
			<line fill="none" stroke="#FFFFFF" stroke-width="4.5" stroke-linecap="round" stroke-linejoin="round" stroke-miterlimit="10" x1="48" y1="59.252" x2="48" y2="31.55"/>
		
			<path fill="none" stroke="#FFFFFF" stroke-width="4.5" stroke-linecap="round" stroke-linejoin="round" stroke-miterlimit="10" d="
			M68.887,54.204c-2.949,1.469-6.326,3.396-10.217,5.048"/>
		
			<path fill="none" stroke="#FFFFFF" stroke-width="4.5" stroke-linecap="round" stroke-linejoin="round" stroke-miterlimit="10" d="
			M37.33,59.252c-3.893-1.651-7.27-3.579-10.219-5.048"/>
	</g>
</g>
</svg>
