<?xml version="1.0" encoding="utf-8"?>
<!-- Generator: Adobe Illustrator 15.0.0, SVG Export Plug-In . SVG Version: 6.00 Build 0)  -->
<!DOCTYPE svg PUBLIC "-//W3C//DTD SVG 1.1//EN" "http://www.w3.org/Graphics/SVG/1.1/DTD/svg11.dtd">
<svg version="1.1" id="Layer_1" xmlns="http://www.w3.org/2000/svg" xmlns:xlink="http://www.w3.org/1999/xlink" x="0px" y="0px"
	 width="96px" height="96px" viewBox="0 0 96 96" enable-background="new 0 0 96 96" xml:space="preserve">
<g>
	<path fill="none" stroke="#FFFFFF" stroke-width="4.5" stroke-linecap="round" stroke-linejoin="round" stroke-miterlimit="10" d="
		M30.934,45.174c-3.893,0-7.049-3.152-7.049-7.045s3.156-7.047,7.049-7.047"/>
	<path fill="none" stroke="#FFFFFF" stroke-width="4.5" stroke-linecap="round" stroke-linejoin="round" stroke-miterlimit="10" d="
		M40.961,76.07c-0.314-0.844-0.51-1.746-0.51-2.699c0-4.203,3.363-7.607,7.549-7.695V17.975c-0.592,2.512-2.836,4.387-5.527,4.387
		c-3.146,0-5.691-2.549-5.691-5.693c0-5.719-4.637-10.354-10.357-10.354s-10.355,4.635-10.355,10.354
		c0,1.689,0.412,3.277,1.129,4.688c-4.773,0.922-8.379,5.117-8.379,10.162c0,1.986,0.568,3.836,1.537,5.412
		c-4.67,1.658-8.023,6.105-8.023,11.346c0,6.098,4.531,11.121,10.404,11.922c-0.424,1.23-0.664,2.547-0.664,3.92
		c0,5.111,3.188,9.469,7.68,11.219c-0.332,1.051-0.516,2.17-0.516,3.332c0,6.086,4.934,11.02,11.021,11.02
		c6.084,0,11.02-4.934,11.02-11.02c0-0.898-0.131-1.764-0.336-2.598H40.961z"/>
	<path fill="none" stroke="#FFFFFF" stroke-width="4.5" stroke-linecap="round" stroke-linejoin="round" stroke-miterlimit="10" d="
		M65.066,64.711c3.893,0,7.047-3.154,7.047-7.047s-3.154-7.047-7.047-7.047"/>
	<path fill="none" stroke="#FFFFFF" stroke-width="4.5" stroke-linecap="round" stroke-linejoin="round" stroke-miterlimit="10" d="
		M55.037,76.07c0.316-0.844,0.51-1.746,0.51-2.699c0-4.203-3.363-7.607-7.547-7.695V17.975c0.592,2.512,2.836,4.387,5.525,4.387
		c3.146,0,5.693-2.549,5.693-5.693c0-5.719,4.637-10.354,10.355-10.354c5.721,0,10.357,4.635,10.357,10.354
		c0,1.689-0.414,3.277-1.129,4.688c4.773,0.922,8.379,5.117,8.379,10.162c0,1.986-0.568,3.836-1.539,5.412
		c4.672,1.658,8.025,6.105,8.025,11.346c0,6.098-4.531,11.121-10.406,11.922c0.424,1.23,0.664,2.547,0.664,3.92
		c0,5.111-3.186,9.469-7.678,11.219c0.332,1.051,0.516,2.17,0.516,3.332c0,6.086-4.934,11.02-11.021,11.02
		s-11.021-4.934-11.021-11.02c0-0.898,0.133-1.764,0.336-2.598H55.037z"/>
</g>
</svg>
