<?xml version="1.0" encoding="utf-8"?>
<!-- Generator: Adobe Illustrator 15.0.0, SVG Export Plug-In . SVG Version: 6.00 Build 0)  -->
<!DOCTYPE svg PUBLIC "-//W3C//DTD SVG 1.1//EN" "http://www.w3.org/Graphics/SVG/1.1/DTD/svg11.dtd">
<svg version="1.1" id="Layer_1" xmlns="http://www.w3.org/2000/svg" xmlns:xlink="http://www.w3.org/1999/xlink" x="0px" y="0px"
	 width="96px" height="96px" viewBox="0 0 96 96" enable-background="new 0 0 96 96" xml:space="preserve">
<g>
	<path fill="none" stroke="#FFFFFF" stroke-width="4.5" stroke-linecap="round" stroke-linejoin="round" stroke-miterlimit="10" d="
		M88.418,54c0,25.268-11.693,39.751-26.121,39.751S36.172,79.268,36.172,54c0-25.266,26.125-51.749,26.125-51.749
		S88.418,28.734,88.418,54z"/>
	<path fill="none" stroke="#FFFFFF" stroke-width="4.5" stroke-linecap="round" stroke-linejoin="round" stroke-miterlimit="10" d="
		M52.156,35.031c4.451-9.391,10.141-16.28,10.141-16.28s15.346,18.583,15.346,36.312c0,17.729-6.871,27.891-15.346,27.891"/>
	<path fill="none" stroke="#FFFFFF" stroke-width="4.5" stroke-linecap="round" stroke-linejoin="round" stroke-miterlimit="10" d="
		M36.172,54c0-8.029,2.641-16.177,6.24-23.562C36.463,21.165,30.137,14.75,30.137,14.75S7.582,37.615,7.582,59.43
		c0,21.817,10.098,34.321,22.555,34.321c5.947,0,11.34-2.88,15.369-8.231C39.803,78.775,36.172,68.064,36.172,54z"/>
</g>
</svg>
