<?xml version="1.0" encoding="utf-8"?>
<!-- Generator: Adobe Illustrator 15.0.0, SVG Export Plug-In . SVG Version: 6.00 Build 0)  -->
<!DOCTYPE svg PUBLIC "-//W3C//DTD SVG 1.1//EN" "http://www.w3.org/Graphics/SVG/1.1/DTD/svg11.dtd">
<svg version="1.1" id="Layer_1" xmlns="http://www.w3.org/2000/svg" xmlns:xlink="http://www.w3.org/1999/xlink" x="0px" y="0px"
	 width="96px" height="96px" viewBox="0 0 96 96" enable-background="new 0 0 96 96" xml:space="preserve">
<g>
	<g>
		<path fill="none" stroke="#FFFFFF" stroke-width="4.5" stroke-linecap="round" stroke-miterlimit="10" d="M69.771,62.676
			c0,12.046-9.767,21.814-21.815,21.814c-12.048,0-21.814-9.769-21.814-21.814c0-12.049,21.816-50.239,21.816-50.239
			S69.771,50.627,69.771,62.676z"/>
		<path fill="none" stroke="#FFFFFF" stroke-width="4.5" stroke-linecap="round" stroke-miterlimit="10" d="M58.726,62.676
			c0,5.948-4.822,10.77-10.771,10.77"/>
		
			<line fill="none" stroke="#FFFFFF" stroke-width="4.5" stroke-linecap="round" stroke-miterlimit="10" x1="47.957" y1="12.449" x2="47.957" y2="4.001"/>
		<g>
			<path fill="none" stroke="#FFFFFF" stroke-width="4.5" stroke-linecap="round" stroke-miterlimit="10" d="M34.988,13.373
				C30.407,19.564,9.261,48.618,7.909,59.274c-1.518,11.949,6.941,22.869,18.894,24.387c3.965,0.504,7.811-0.109,11.244-1.567"/>
			<path fill="none" stroke="#FFFFFF" stroke-width="4.5" stroke-linecap="round" stroke-miterlimit="10" d="M34.988,13.373
				c0.561-0.755,0.888-1.188,0.888-1.188c1.444-1.823,2.115-4.007,2.064-6.166V4.043"/>
		</g>
		<g>
			<path fill="none" stroke="#FFFFFF" stroke-width="4.5" stroke-linecap="round" stroke-miterlimit="10" d="M61.013,13.373
				c4.58,6.191,25.727,35.245,27.078,45.901c1.517,11.949-6.941,22.869-18.894,24.387c-3.966,0.504-7.81-0.109-11.244-1.567"/>
			<path fill="none" stroke="#FFFFFF" stroke-width="4.5" stroke-linecap="round" stroke-miterlimit="10" d="M61.013,13.373
				c-0.561-0.755-0.888-1.188-0.888-1.188c-1.444-1.823-2.116-4.007-2.065-6.166V4.043"/>
		</g>
	</g>
	
		<line fill="none" stroke="#FFFFFF" stroke-width="4.5" stroke-linecap="round" stroke-miterlimit="10" x1="47.955" y1="92.001" x2="47.955" y2="84.49"/>
	
		<line fill="none" stroke="#FFFFFF" stroke-width="4.5" stroke-linecap="round" stroke-miterlimit="10" x1="58.726" y1="89.838" x2="54.97" y2="83.334"/>
	
		<line fill="none" stroke="#FFFFFF" stroke-width="4.5" stroke-linecap="round" stroke-miterlimit="10" x1="37.188" y1="89.838" x2="40.942" y2="83.334"/>
</g>
</svg>
