<?xml version="1.0" encoding="utf-8"?>
<!-- Generator: Adobe Illustrator 15.0.0, SVG Export Plug-In . SVG Version: 6.00 Build 0)  -->
<!DOCTYPE svg PUBLIC "-//W3C//DTD SVG 1.1//EN" "http://www.w3.org/Graphics/SVG/1.1/DTD/svg11.dtd">
<svg version="1.1" id="Layer_1" xmlns="http://www.w3.org/2000/svg" xmlns:xlink="http://www.w3.org/1999/xlink" x="0px" y="0px"
	 width="96px" height="96px" viewBox="0 0 96 96" enable-background="new 0 0 96 96" xml:space="preserve">
<g>
	<path fill="none" stroke="#FFFFFF" stroke-width="4.5" stroke-linecap="round" stroke-linejoin="round" stroke-miterlimit="10" d="
		M22.648,70.027c0.647-9.208,2.502-19.185,5.655-29.356c1.231-3.966,2.622-7.779,4.12-11.447c0.963-1.891,1.517-4.023,1.517-6.291
		c0-7.682-6.229-13.911-13.914-13.911c-7.55,0-13.684,6.022-13.891,13.523l-0.005-0.001c-0.001,0.033,0,0.067-0.001,0.102
		c-0.002,0.096-0.014,0.19-0.014,0.287c0,0.066,0.008,0.13,0.009,0.196c-0.147,6.703,0.344,13.905,1.497,21.366
		c-2.139,1.183-3.604,3.433-3.604,6.049c0,3.593,2.741,6.515,6.24,6.87c0.657,2.599,1.361,5.157,2.142,7.64"/>
	<path fill="none" stroke="#FFFFFF" stroke-width="4.5" stroke-linecap="round" stroke-linejoin="round" stroke-miterlimit="10" d="
		M12.454,65.02c-0.612,0.44-1.226,0.874-1.84,1.305c-3.953,2.447-6.596,6.808-6.596,11.798c0,7.665,6.215,13.879,13.879,13.879
		c1.761,0,3.438-0.341,4.987-0.94l0.007,0.014c10.775-3.9,22.339-10.221,33.455-18.709"/>
	<path fill="none" stroke="#FFFFFF" stroke-width="4.5" stroke-linecap="round" stroke-linejoin="round" stroke-miterlimit="10" d="
		M90.631,31.809c-2.526-0.969-5.04-2.202-7.489-3.707c-3.112-1.913-5.887-4.115-8.278-6.508"/>
	<path fill="none" stroke="#FFFFFF" stroke-width="4.5" stroke-linecap="round" stroke-linejoin="round" stroke-miterlimit="10" d="
		M31.473,31.61c-0.277,0.002-0.556,0.002-0.837,0c-3.652-0.032-7.165-0.489-10.449-1.306"/>
	<path fill="none" stroke="#FFFFFF" stroke-width="4.5" stroke-linecap="round" stroke-linejoin="round" stroke-miterlimit="10" d="
		M44.78,80.337c-2.718-1.762-5.16-3.748-7.296-5.888"/>
	<path fill="none" stroke="#FFFFFF" stroke-width="4.5" stroke-linecap="round" stroke-linejoin="round" stroke-miterlimit="10" d="
		M56.347,72.365c3.706,3.239,10.959,9.229,19.507,11.977c1.339,0.431,2.674,0.787,3.989,1.063l0.007-0.065
		c4.944,1.254,10.079-1.496,11.661-6.424c1.647-5.121-1.168-10.612-6.294-12.26c-1.253-0.402-2.529-0.529-3.763-0.431l0.002-0.029
		c-3.013,0.237-9.799,1.493-20.572-5.216c-5.358-3.337-10.171-7.11-14.301-11.247"/>
	<path fill="none" stroke="#FFFFFF" stroke-width="4.5" stroke-linecap="round" stroke-linejoin="round" stroke-miterlimit="10" d="
		M66.431,63.932c10.162-9.35,17.947-19.362,22.839-28.839l-0.022-0.011c1.665-3.003,2.619-6.455,2.619-10.133
		c0-11.569-9.379-20.948-20.947-20.948c-9.438,0-17.415,6.244-20.035,14.825c-4.062,11.489-13.246,24.479-26.232,36.299"/>
</g>
</svg>
