<?xml version="1.0" encoding="utf-8"?>
<!-- Generator: Adobe Illustrator 15.0.0, SVG Export Plug-In . SVG Version: 6.00 Build 0)  -->
<!DOCTYPE svg PUBLIC "-//W3C//DTD SVG 1.1//EN" "http://www.w3.org/Graphics/SVG/1.1/DTD/svg11.dtd">
<svg version="1.1" id="Layer_1" xmlns="http://www.w3.org/2000/svg" xmlns:xlink="http://www.w3.org/1999/xlink" x="0px" y="0px"
	 width="96px" height="96px" viewBox="0 0 96 96" enable-background="new 0 0 96 96" xml:space="preserve">
<g>
	<g>
		
			<path fill="none" stroke="#FFFFFF" stroke-width="4.5" stroke-linecap="round" stroke-linejoin="round" stroke-miterlimit="10" d="
			M58.922,9.215c4.514,1.16,8.787,3.509,12.324,7.044c3.391,3.392,5.689,7.463,6.895,11.775"/>
		
			<path fill="none" stroke="#FFFFFF" stroke-width="4.5" stroke-linecap="round" stroke-linejoin="round" stroke-miterlimit="10" d="
			M89.17,22.546l-0.021,0.01c-2.002-3.977-6.109-6.709-10.865-6.709c-6.723,0-12.172,5.449-12.172,12.172
			c0,1.357,0.23,2.658,0.641,3.878l0,0c1.543,4.653,2.379,9.632,2.379,14.804c0,12.705-5.043,24.23-13.236,32.688l0.006,0.006
			c-0.797,0.784-1.293,1.871-1.293,3.076c0,2.384,1.932,4.317,4.316,4.317c0.48,0,1.393-0.193,1.393-0.193
			C79.6,81.216,93.75,63.521,93.75,42.521C93.75,35.359,92.104,28.581,89.17,22.546z"/>
		
			<path fill="none" stroke="#FFFFFF" stroke-width="4.5" stroke-linecap="round" stroke-linejoin="round" stroke-miterlimit="10" d="
			M87.688,20.282c1.74,2.105,2.783,4.807,2.783,7.752c0,5.719-3.936,10.514-9.246,11.831"/>
	</g>
	<g>
		
			<path fill="none" stroke="#FFFFFF" stroke-width="4.5" stroke-linecap="round" stroke-linejoin="round" stroke-miterlimit="10" d="
			M48.414,30.392c1.547,3.215,2.275,6.871,1.945,10.684c-0.312,3.652-1.562,7.002-3.494,9.832"/>
		
			<path fill="none" stroke="#FFFFFF" stroke-width="4.5" stroke-linecap="round" stroke-linejoin="round" stroke-miterlimit="10" d="
			M55.508,54.657l-0.016-0.008c1.342-3.131,0.918-6.88-1.422-9.662c-3.312-3.934-9.184-4.438-13.117-1.129
			c-0.797,0.67-1.441,1.444-1.955,2.285v0.002c-1.963,3.191-4.463,6.131-7.49,8.68c-7.434,6.257-16.662,8.979-25.645,8.35
			L5.861,63.18c-0.85-0.079-1.732,0.167-2.436,0.762c-1.395,1.172-1.574,3.255-0.4,4.649c0.234,0.281,0.797,0.721,0.797,0.721
			c12.645,8.637,29.965,8.203,42.254-2.137C50.264,63.647,53.422,59.345,55.508,54.657z"/>
	</g>
</g>
</svg>
