<?xml version="1.0" encoding="utf-8"?>
<!-- Generator: Adobe Illustrator 15.0.0, SVG Export Plug-In . SVG Version: 6.00 Build 0)  -->
<!DOCTYPE svg PUBLIC "-//W3C//DTD SVG 1.1//EN" "http://www.w3.org/Graphics/SVG/1.1/DTD/svg11.dtd">
<svg version="1.1" id="Layer_1" xmlns="http://www.w3.org/2000/svg" xmlns:xlink="http://www.w3.org/1999/xlink" x="0px" y="0px"
	 width="96px" height="96px" viewBox="0 0 96 96" enable-background="new 0 0 96 96" xml:space="preserve">
<g>
	<path fill="none" stroke="#FFFFFF" stroke-width="4.5" stroke-linecap="round" stroke-linejoin="round" stroke-miterlimit="10" d="
		M56.507,60.376c0,22.574-9.516,33.375-21.252,33.375S14.003,82.95,14.003,60.376c0-22.576,21.252-58.125,21.252-58.125
		S56.507,37.8,56.507,60.376z"/>
	<path fill="none" stroke="#FFFFFF" stroke-width="4.5" stroke-linecap="round" stroke-linejoin="round" stroke-miterlimit="10" d="
		M42.414,60.376c0,22.574-3.205,33.375-7.159,33.375c-3.953,0-7.158-10.801-7.158-33.375c0-22.576,7.158-58.125,7.158-58.125
		S42.414,37.8,42.414,60.376z"/>
	<path fill="none" stroke="#FFFFFF" stroke-width="4.5" stroke-linecap="round" stroke-linejoin="round" stroke-miterlimit="10" d="
		M64.751,19.502c0,0-6.341,10.616-11.333,23.058c1.86,6.238,3.089,12.4,3.089,17.816c0,10.554-2.098,18.502-5.512,24.008
		c3.144,6.287,8.13,9.367,13.756,9.367c9.523,0,17.246-8.765,17.246-27.082C81.997,48.348,64.751,19.502,64.751,19.502z"/>
</g>
</svg>
