<?xml version="1.0" encoding="utf-8"?>
<!-- Generator: Adobe Illustrator 15.0.0, SVG Export Plug-In . SVG Version: 6.00 Build 0)  -->
<!DOCTYPE svg PUBLIC "-//W3C//DTD SVG 1.1//EN" "http://www.w3.org/Graphics/SVG/1.1/DTD/svg11.dtd">
<svg version="1.1" id="Layer_1" xmlns="http://www.w3.org/2000/svg" xmlns:xlink="http://www.w3.org/1999/xlink" x="0px" y="0px"
	 width="96px" height="96px" viewBox="0 0 96 96" enable-background="new 0 0 96 96" xml:space="preserve">
<g>
	<path fill="none" stroke="#FFFFFF" stroke-width="4.5" stroke-linecap="round" stroke-linejoin="round" stroke-miterlimit="10" d="
		M48,22.926c0-11.461,9.29-20.751,20.752-20.751"/>
	<path fill="none" stroke="#FFFFFF" stroke-width="4.5" stroke-linecap="round" stroke-linejoin="round" stroke-miterlimit="10" d="
		M82.11,42.3c0-10.702-8.675-19.374-19.374-19.374c-2.61,0-5.095,0.521-7.368,1.459c-2.272-0.938-4.758-1.459-7.367-1.459
		c-2.61,0-5.096,0.521-7.369,1.459c-2.272-0.938-4.758-1.459-7.367-1.459c-10.7,0-19.375,8.672-19.375,19.374
		c0,3.155,0.771,6.126,2.109,8.76h-0.003l14.493,31.648l0.003-0.002c3.103,6.564,9.765,11.117,17.509,11.117
		c7.746,0,14.413-4.559,17.513-11.129l0.015,0.014l14.493-31.648l-0.02-0.004C81.34,48.423,82.11,45.456,82.11,42.3z"/>
	<path fill="none" stroke="#FFFFFF" stroke-width="4.5" stroke-linecap="round" stroke-linejoin="round" stroke-miterlimit="10" d="
		M28.624,42.3c0-10.702,8.675-19.374,19.377-19.374c2.612,0,5.104,0.516,7.377,1.453"/>
	
		<line fill="none" stroke="#FFFFFF" stroke-width="4.5" stroke-linecap="round" stroke-linejoin="round" stroke-miterlimit="10" x1="55.182" y1="70.949" x2="61.761" y2="56.586"/>
</g>
</svg>
