<?xml version="1.0" encoding="utf-8"?>
<!-- Generator: Adobe Illustrator 15.0.0, SVG Export Plug-In . SVG Version: 6.00 Build 0)  -->
<!DOCTYPE svg PUBLIC "-//W3C//DTD SVG 1.1//EN" "http://www.w3.org/Graphics/SVG/1.1/DTD/svg11.dtd">
<svg version="1.1" id="Layer_1" xmlns="http://www.w3.org/2000/svg" xmlns:xlink="http://www.w3.org/1999/xlink" x="0px" y="0px"
	 width="96px" height="96px" viewBox="0 0 96 96" enable-background="new 0 0 96 96" xml:space="preserve">
<g>
	<g>
		
			<path fill="none" stroke="#FFFFFF" stroke-width="4.5" stroke-linecap="round" stroke-linejoin="round" stroke-miterlimit="10" d="
			M49.255,60.496C35.646,74.106,20.68,84.742,5.704,92.098c22.47,4.969,46.92-1.268,64.396-18.744
			C89.335,54.116,94.961,26.44,87.009,2.25C80.143,21.956,67.329,42.423,49.255,60.496z"/>
		<g>
			
				<path fill="none" stroke="#FFFFFF" stroke-width="4.5" stroke-linecap="round" stroke-linejoin="round" stroke-miterlimit="10" d="
				M86.927,2.478c-9.973,15.407-27.296,29.871-49.329,39.468c-10.797,4.707-21.679,7.782-32.099,9.331
				c14.887,7.004,32.163,8.725,48.768,3.98"/>
		</g>
	</g>
	
		<line fill="none" stroke="#FFFFFF" stroke-width="4.5" stroke-linecap="round" stroke-linejoin="round" stroke-miterlimit="10" x1="78.931" y1="38.428" x2="78.931" y2="38.428"/>
	
		<line fill="none" stroke="#FFFFFF" stroke-width="4.5" stroke-linecap="round" stroke-linejoin="round" stroke-miterlimit="10" x1="48.103" y1="76.287" x2="51.576" y2="73.67"/>
	
		<line fill="none" stroke="#FFFFFF" stroke-width="4.5" stroke-linecap="round" stroke-linejoin="round" stroke-miterlimit="10" x1="60.281" y1="65.221" x2="63.308" y2="62.098"/>
	
		<line fill="none" stroke="#FFFFFF" stroke-width="4.5" stroke-linecap="round" stroke-linejoin="round" stroke-miterlimit="10" x1="71.324" y1="52.518" x2="73.87" y2="48.994"/>
	
		<line fill="none" stroke="#FFFFFF" stroke-width="4.5" stroke-linecap="round" stroke-linejoin="round" stroke-miterlimit="10" x1="37.472" y1="82.324" x2="37.472" y2="82.324"/>
</g>
</svg>
