<?xml version="1.0" encoding="utf-8"?>
<!-- Generator: Adobe Illustrator 15.0.0, SVG Export Plug-In . SVG Version: 6.00 Build 0)  -->
<!DOCTYPE svg PUBLIC "-//W3C//DTD SVG 1.1//EN" "http://www.w3.org/Graphics/SVG/1.1/DTD/svg11.dtd">
<svg version="1.1" id="Layer_1" xmlns="http://www.w3.org/2000/svg" xmlns:xlink="http://www.w3.org/1999/xlink" x="0px" y="0px"
	 width="96px" height="96px" viewBox="0 0 96 96" enable-background="new 0 0 96 96" xml:space="preserve">
<g>
	
		<line fill="none" stroke="#FFFFFF" stroke-width="4.5" stroke-linecap="round" stroke-linejoin="round" stroke-miterlimit="10" x1="57.188" y1="25.812" x2="57.188" y2="13.387"/>
	
		<line fill="none" stroke="#FFFFFF" stroke-width="4.5" stroke-linecap="round" stroke-linejoin="round" stroke-miterlimit="10" x1="74.125" y1="40" x2="74.125" y2="43.809"/>
	
		<line fill="none" stroke="#FFFFFF" stroke-width="4.5" stroke-linecap="round" stroke-linejoin="round" stroke-miterlimit="10" x1="31.875" y1="49.065" x2="31.875" y2="34"/>
	
		<line fill="none" stroke="#FFFFFF" stroke-width="4.5" stroke-linecap="round" stroke-linejoin="round" stroke-miterlimit="10" x1="19.875" y1="28.126" x2="19.875" y2="21.098"/>
	
		<circle fill="none" stroke="#FFFFFF" stroke-width="4.5" stroke-linecap="round" stroke-linejoin="round" stroke-miterlimit="10" cx="44.344" cy="63.969" r="19.406"/>
	
		<line fill="none" stroke="#FFFFFF" stroke-width="4.5" stroke-linecap="round" stroke-linejoin="round" stroke-miterlimit="10" x1="38.967" y1="82.615" x2="40.75" y2="77.626"/>
	
		<line fill="none" stroke="#FFFFFF" stroke-width="4.5" stroke-linecap="round" stroke-linejoin="round" stroke-miterlimit="10" x1="56.375" y1="75.502" x2="58.131" y2="77.626"/>
	
		<line fill="none" stroke="#FFFFFF" stroke-width="4.5" stroke-linecap="round" stroke-linejoin="round" stroke-miterlimit="10" x1="9.75" y1="69.248" x2="12.5" y2="69.248"/>
	<path fill="none" stroke="#FFFFFF" stroke-width="4.5" stroke-linecap="round" stroke-linejoin="round" stroke-miterlimit="10" d="
		M24.938,63.969c0-3.056,0.727-5.936,1.984-8.506c-0.982-0.217-2-0.339-3.045-0.339c-7.803,0-14.127,6.322-14.127,14.124
		c0,7.805,6.324,14.127,14.127,14.127c3.576,0,6.834-1.34,9.324-3.533C28.209,76.331,24.938,70.536,24.938,63.969z"/>
	<path fill="none" stroke="#FFFFFF" stroke-width="4.5" stroke-linecap="round" stroke-linejoin="round" stroke-miterlimit="10" d="
		M84.516,29.193c-0.35,0-0.691,0.023-1.031,0.062C78.041,19.534,64.213,12.625,48,12.625c-16.211,0-30.041,6.909-35.482,16.63
		c-0.34-0.038-0.684-0.062-1.033-0.062c-5.102,0-9.234,4.136-9.234,9.234c0,5.1,4.133,9.234,9.234,9.234
		c0.35,0,0.693-0.023,1.033-0.062c1.691,3.021,4.207,5.76,7.344,8.111c1.273-0.378,2.617-0.588,4.016-0.588
		c1.045,0,2.062,0.122,3.045,0.339c-0.043,0.086-0.072,0.18-0.113,0.268c3.098-6.592,9.77-11.168,17.535-11.168
		c10.027,0,18.275,7.605,19.297,17.361c9.088-2.801,16.273-7.949,19.844-14.323c0.338,0.038,0.682,0.062,1.031,0.062
		c5.1,0,9.234-4.135,9.234-9.234C93.75,33.329,89.615,29.193,84.516,29.193z"/>
</g>
</svg>
