<?xml version="1.0" encoding="utf-8"?>
<!-- Generator: Adobe Illustrator 15.0.0, SVG Export Plug-In . SVG Version: 6.00 Build 0)  -->
<!DOCTYPE svg PUBLIC "-//W3C//DTD SVG 1.1//EN" "http://www.w3.org/Graphics/SVG/1.1/DTD/svg11.dtd">
<svg version="1.1" id="Layer_1" xmlns="http://www.w3.org/2000/svg" xmlns:xlink="http://www.w3.org/1999/xlink" x="0px" y="0px"
	 width="96px" height="96px" viewBox="0 0 96 96" enable-background="new 0 0 96 96" xml:space="preserve">
<g>
	
		<circle fill="none" stroke="#FFFFFF" stroke-width="4.5" stroke-linecap="round" stroke-linejoin="round" stroke-miterlimit="10" cx="76.157" cy="64.931" r="17.593"/>
	
		<line fill="none" stroke="#FFFFFF" stroke-width="4.5" stroke-linecap="round" stroke-linejoin="round" stroke-miterlimit="10" x1="56.792" y1="32.303" x2="56.792" y2="30.155"/>
	
		<line fill="none" stroke="#FFFFFF" stroke-width="4.5" stroke-linecap="round" stroke-linejoin="round" stroke-miterlimit="10" x1="74.438" y1="24.029" x2="74.438" y2="21.882"/>
	
		<line fill="none" stroke="#FFFFFF" stroke-width="4.5" stroke-linecap="round" stroke-linejoin="round" stroke-miterlimit="10" x1="39.146" y1="32.303" x2="39.146" y2="30.155"/>
	
		<line fill="none" stroke="#FFFFFF" stroke-width="4.5" stroke-linecap="round" stroke-linejoin="round" stroke-miterlimit="10" x1="21.501" y1="24.029" x2="21.501" y2="21.882"/>
	
		<line fill="none" stroke="#FFFFFF" stroke-width="4.5" stroke-linecap="round" stroke-linejoin="round" stroke-miterlimit="10" x1="21.501" y1="55.843" x2="21.501" y2="53.695"/>
	<path fill="none" stroke="#FFFFFF" stroke-width="4.5" stroke-linecap="round" stroke-linejoin="round" stroke-miterlimit="10" d="
		M4.805,28.16c-1.576-1.556-2.555-3.715-2.555-6.105c0-4.737,3.841-8.578,8.578-8.578"/>
	<path fill="none" stroke="#FFFFFF" stroke-width="4.5" stroke-linecap="round" stroke-linejoin="round" stroke-miterlimit="10" d="
		M84.202,49.283c1.175-0.647,2.323-1.324,3.445-2.033l-0.006-0.006c3.674-2.385,6.108-6.516,6.108-11.221
		c0-7.386-5.988-13.374-13.374-13.374c-3.018,0-5.792,1.011-8.03,2.695l-0.015-0.021C65.93,30.243,57.387,33.249,48,33.249
		c-9.451,0-18.064-3.044-24.48-8.021l-0.009,0.012c-2.212-1.62-4.934-2.59-7.887-2.59c-7.386,0-13.374,5.988-13.374,13.374
		c0,4.629,2.353,8.707,5.924,11.106v0.003c7.611,4.86,16.427,8.3,26.071,9.984"/>
	<g>
		
			<line fill="none" stroke="#FFFFFF" stroke-width="4.5" stroke-linecap="round" stroke-linejoin="round" stroke-miterlimit="10" x1="70.676" y1="64.931" x2="67.225" y2="64.931"/>
		
			<line fill="none" stroke="#FFFFFF" stroke-width="4.5" stroke-linecap="round" stroke-linejoin="round" stroke-miterlimit="10" x1="85.075" y1="64.931" x2="81.624" y2="64.931"/>
		
			<line fill="none" stroke="#FFFFFF" stroke-width="4.5" stroke-linecap="round" stroke-linejoin="round" stroke-miterlimit="10" x1="76.148" y1="59.458" x2="76.148" y2="56.007"/>
		
			<line fill="none" stroke="#FFFFFF" stroke-width="4.5" stroke-linecap="round" stroke-linejoin="round" stroke-miterlimit="10" x1="76.148" y1="73.857" x2="76.148" y2="70.406"/>
	</g>
	<g>
		
			<line fill="none" stroke="#FFFFFF" stroke-width="4.5" stroke-linecap="round" stroke-linejoin="round" stroke-miterlimit="10" x1="44.525" y1="64.931" x2="41.074" y2="64.931"/>
		
			<line fill="none" stroke="#FFFFFF" stroke-width="4.5" stroke-linecap="round" stroke-linejoin="round" stroke-miterlimit="10" x1="49.998" y1="59.458" x2="49.998" y2="56.007"/>
		
			<line fill="none" stroke="#FFFFFF" stroke-width="4.5" stroke-linecap="round" stroke-linejoin="round" stroke-miterlimit="10" x1="49.998" y1="73.857" x2="49.998" y2="70.406"/>
	</g>
	<path fill="none" stroke="#FFFFFF" stroke-width="4.5" stroke-linecap="round" stroke-linejoin="round" stroke-miterlimit="10" d="
		M63.082,76.696c-3.223,3.577-7.89,5.827-13.081,5.827c-9.718,0-17.593-7.875-17.593-17.593c0-9.715,7.875-17.593,17.593-17.593
		c5.194,0,9.864,2.253,13.084,5.833"/>
</g>
</svg>
