<?xml version="1.0" encoding="utf-8"?>
<!-- Generator: Adobe Illustrator 15.0.0, SVG Export Plug-In . SVG Version: 6.00 Build 0)  -->
<!DOCTYPE svg PUBLIC "-//W3C//DTD SVG 1.1//EN" "http://www.w3.org/Graphics/SVG/1.1/DTD/svg11.dtd">
<svg version="1.1" id="Layer_1" xmlns="http://www.w3.org/2000/svg" xmlns:xlink="http://www.w3.org/1999/xlink" x="0px" y="0px"
	 width="96px" height="96px" viewBox="0 0 96 96" enable-background="new 0 0 96 96" xml:space="preserve">
<g>
	
		<line fill="none" stroke="#FFFFFF" stroke-width="4.5" stroke-linecap="round" stroke-linejoin="round" stroke-miterlimit="10" x1="47.999" y1="93.75" x2="47.999" y2="86.814"/>
	<g>
		
			<line fill="none" stroke="#FFFFFF" stroke-width="4.5" stroke-linecap="round" stroke-linejoin="round" stroke-miterlimit="10" x1="47.999" y1="86.814" x2="47.999" y2="44.186"/>
	</g>
	<path fill="none" stroke="#FFFFFF" stroke-width="4.5" stroke-linecap="round" stroke-linejoin="round" stroke-miterlimit="10" d="
		M75.653,41.261c0,0-3.854-0.193-8.232,1.021c0.445-2.851,0.686-5.873,0.686-9.006c0-17.137-8.05-31.025-20.107-31.025
		c-12.059,0-20.107,13.888-20.107,31.025c0,3.133,0.242,6.155,0.688,9.006c-4.381-1.214-8.232-1.021-8.232-1.021
		s-0.557,10.372,5.491,16.425c6.058,6.049,13.718,12.863,13.718,12.863c-4.811-2.437-10.309-2.15-10.309-2.15
		s-0.469,8.713,4.613,13.797c5.09,5.083,13.803,4.619,13.803,4.619s0.125,0.006,0.336,0.007c0.21-0.001,0.338-0.007,0.338-0.007
		s8.711,0.464,13.8-4.619c5.081-5.084,4.614-13.797,4.614-13.797s-5.498-0.286-10.311,2.15c0,0,7.66-6.814,13.719-12.863
		C76.21,51.633,75.653,41.261,75.653,41.261z"/>
</g>
</svg>
