<?xml version="1.0" encoding="utf-8"?>
<!-- Generator: Adobe Illustrator 15.0.0, SVG Export Plug-In . SVG Version: 6.00 Build 0)  -->
<!DOCTYPE svg PUBLIC "-//W3C//DTD SVG 1.1//EN" "http://www.w3.org/Graphics/SVG/1.1/DTD/svg11.dtd">
<svg version="1.1" id="Layer_1" xmlns="http://www.w3.org/2000/svg" xmlns:xlink="http://www.w3.org/1999/xlink" x="0px" y="0px"
	 width="96px" height="96px" viewBox="0 0 96 96" enable-background="new 0 0 96 96" xml:space="preserve">
<g>
	<g>
		
			<path fill="none" stroke="#FFFFFF" stroke-width="4.5" stroke-linecap="round" stroke-linejoin="round" stroke-miterlimit="10" d="
			M39.093,8.346c3.233-0.006,6.468,1.225,8.934,3.691c4.92,4.919,4.92,12.896,0,17.815"/>
		
			<path fill="none" stroke="#FFFFFF" stroke-width="4.5" stroke-linecap="round" stroke-linejoin="round" stroke-miterlimit="10" d="
			M49.27,13.423c-2.552-2.552-2.552-6.688,0-9.24c2.554-2.552,6.69-2.552,9.241,0c2.554,2.552,2.554,6.688,0,9.24"/>
	</g>
	<path fill="none" stroke="#FFFFFF" stroke-width="4.5" stroke-linecap="round" stroke-linejoin="round" stroke-miterlimit="10" d="
		M48.036,91.449c-3.805,1.474-7.947,2.282-12.283,2.282c-18.535,0-33.562-14.804-33.562-33.064s15.027-33.062,33.562-33.062
		c4.341,0,8.488,0.812,12.295,2.288"/>
	<path fill="none" stroke="#FFFFFF" stroke-width="4.5" stroke-linecap="round" stroke-linejoin="round" stroke-miterlimit="10" d="
		M48.013,29.879c12.472,4.822,21.303,16.79,21.303,30.788c0,5.285-1.258,10.28-3.496,14.71"/>
	<path fill="none" stroke="#FFFFFF" stroke-width="4.5" stroke-linecap="round" stroke-linejoin="round" stroke-miterlimit="10" d="
		M47.956,29.894c3.807-1.477,7.952-2.288,12.291-2.288c18.536,0,33.562,14.801,33.562,33.062S78.783,93.731,60.247,93.731
		c-4.312,0-8.435-0.803-12.22-2.262"/>
	<path fill="none" stroke="#FFFFFF" stroke-width="4.5" stroke-linecap="round" stroke-linejoin="round" stroke-miterlimit="10" d="
		M14.245,60.667c0-11.701,9.63-21.188,21.508-21.188"/>
	<path fill="none" stroke="#FFFFFF" stroke-width="4.5" stroke-linecap="round" stroke-linejoin="round" stroke-miterlimit="10" d="
		M79.69,48.67c-4.748-11.057-15.865-18.817-28.821-18.817l-2.81,0.026"/>
</g>
</svg>
