<?xml version="1.0" encoding="utf-8"?>
<!-- Generator: Adobe Illustrator 15.0.0, SVG Export Plug-In . SVG Version: 6.00 Build 0)  -->
<!DOCTYPE svg PUBLIC "-//W3C//DTD SVG 1.1//EN" "http://www.w3.org/Graphics/SVG/1.1/DTD/svg11.dtd">
<svg version="1.1" id="Layer_1" xmlns="http://www.w3.org/2000/svg" xmlns:xlink="http://www.w3.org/1999/xlink" x="0px" y="0px"
	 width="96px" height="96px" viewBox="0 0 96 96" enable-background="new 0 0 96 96" xml:space="preserve">
<g>
	<path fill="none" stroke="#FFFFFF" stroke-width="4.5" stroke-miterlimit="10" d="M38.367,2.25h19.269
		c0,19.591,24.864,19.591,24.864,48.302c0,19.28-15.445,34.91-34.5,34.91s-34.5-15.63-34.5-34.91
		C13.5,21.841,38.367,21.841,38.367,2.25z"/>
	<path fill="none" stroke="#FFFFFF" stroke-width="4.5" stroke-miterlimit="10" d="M48,52.547c0,0,13.649,7.749,13.649,19.104
		c0,7.629-6.111,13.811-13.649,13.811c-7.535,0-13.646-6.182-13.646-13.811C34.354,60.296,48,52.547,48,52.547z"/>
	
		<line fill="none" stroke="#FFFFFF" stroke-width="4.5" stroke-linecap="round" stroke-miterlimit="10" x1="48.003" y1="93.75" x2="48.003" y2="85.462"/>
	<path fill="none" stroke="#FFFFFF" stroke-width="4.5" stroke-miterlimit="10" d="M48.032,27.419c0,0,24.035,13.667,24.035,33.688
		c0,13.453-10.775,24.354-24.067,24.354c-13.289,0-24.064-10.901-24.064-24.354C23.936,41.086,48.032,27.419,48.032,27.419z"/>
	<g>
		
			<line fill="none" stroke="#FFFFFF" stroke-width="4.5" stroke-linecap="round" stroke-miterlimit="10" x1="38.517" y1="91.787" x2="44.906" y2="85.321"/>
		
			<line fill="none" stroke="#FFFFFF" stroke-width="4.5" stroke-linecap="round" stroke-miterlimit="10" x1="57.492" y1="91.787" x2="51.111" y2="85.33"/>
	</g>
</g>
</svg>
