<?xml version="1.0" encoding="utf-8"?>
<!-- Generator: Adobe Illustrator 15.0.0, SVG Export Plug-In . SVG Version: 6.00 Build 0)  -->
<!DOCTYPE svg PUBLIC "-//W3C//DTD SVG 1.1//EN" "http://www.w3.org/Graphics/SVG/1.1/DTD/svg11.dtd">
<svg version="1.1" id="Layer_1" xmlns="http://www.w3.org/2000/svg" xmlns:xlink="http://www.w3.org/1999/xlink" x="0px" y="0px"
	 width="96px" height="96px" viewBox="0 0 96 96" enable-background="new 0 0 96 96" xml:space="preserve">
<g>
	<path fill="none" stroke="#FFFFFF" stroke-width="4.5" stroke-linejoin="round" stroke-miterlimit="10" d="M64.354,25.461
		c0-9.097-7.321-16.469-16.354-16.469s-16.356,7.373-16.356,16.469c0,2.583,0.609,5.017,1.664,7.194l0.018,0.009
		c0,0,5.722-2.588,7.711-6.12c1.093,3.463,6.964,6.12,6.964,6.12s5.915-2.678,6.973-6.161c1.945,3.507,7.573,6.088,7.723,6.154
		C63.747,30.481,64.354,28.045,64.354,25.461z"/>
	<line fill="none" stroke="#FFFFFF" stroke-width="4.5" stroke-miterlimit="10" x1="48" y1="8.992" x2="48" y2="-0.153"/>
	<path fill="none" stroke="#FFFFFF" stroke-width="4.5" stroke-miterlimit="10" d="M34.008,32.315v15.806
		C27.516,52.613,23.25,60.139,23.25,68.672c0,13.766,11.083,24.925,24.75,24.925c13.67,0,24.75-11.159,24.75-24.925
		c0-8.533-4.266-16.059-10.758-20.551V32.315"/>
</g>
</svg>
