<?xml version="1.0" encoding="utf-8"?>
<!-- Generator: Adobe Illustrator 15.0.0, SVG Export Plug-In . SVG Version: 6.00 Build 0)  -->
<!DOCTYPE svg PUBLIC "-//W3C//DTD SVG 1.1//EN" "http://www.w3.org/Graphics/SVG/1.1/DTD/svg11.dtd">
<svg version="1.1" id="Layer_1" xmlns="http://www.w3.org/2000/svg" xmlns:xlink="http://www.w3.org/1999/xlink" x="0px" y="0px"
	 width="96px" height="96px" viewBox="0 0 96 96" enable-background="new 0 0 96 96" xml:space="preserve">
<g>
	<path fill="none" stroke="#FFFFFF" stroke-width="4.5" stroke-linecap="round" stroke-miterlimit="10" d="M70.5,36.58
		c0,8.713-10.073,57.161-22.5,57.161c-12.426,0-22.5-48.448-22.5-57.161c0-8.71,10.074-15.773,22.5-15.773
		C60.427,20.807,70.5,27.87,70.5,36.58z"/>
	
		<line fill="none" stroke="#FFFFFF" stroke-width="4.5" stroke-linecap="round" stroke-miterlimit="10" x1="29.891" y1="60.62" x2="53.125" y2="60.62"/>
	
		<line fill="none" stroke="#FFFFFF" stroke-width="4.5" stroke-linecap="round" stroke-miterlimit="10" x1="35.536" y1="78.24" x2="45.999" y2="78.24"/>
	
		<line fill="none" stroke="#FFFFFF" stroke-width="4.5" stroke-linecap="round" stroke-miterlimit="10" x1="48" y1="20.807" x2="48" y2="2.259"/>
	
		<line fill="none" stroke="#FFFFFF" stroke-width="4.5" stroke-linecap="round" stroke-miterlimit="10" x1="35.442" y1="23.49" x2="29.639" y2="8.534"/>
	
		<line fill="none" stroke="#FFFFFF" stroke-width="4.5" stroke-linecap="round" stroke-miterlimit="10" x1="41.896" y1="21.396" x2="37.637" y2="2.534"/>
	
		<line fill="none" stroke="#FFFFFF" stroke-width="4.5" stroke-linecap="round" stroke-miterlimit="10" x1="60.559" y1="23.49" x2="66.362" y2="8.534"/>
	
		<line fill="none" stroke="#FFFFFF" stroke-width="4.5" stroke-linecap="round" stroke-miterlimit="10" x1="54.104" y1="21.396" x2="58.364" y2="2.534"/>
	
		<line fill="none" stroke="#FFFFFF" stroke-width="4.5" stroke-linecap="round" stroke-miterlimit="10" x1="41.667" y1="43" x2="69.828" y2="43"/>
</g>
</svg>
