<?xml version="1.0" encoding="utf-8"?>
<!-- Generator: Adobe Illustrator 15.0.0, SVG Export Plug-In . SVG Version: 6.00 Build 0)  -->
<!DOCTYPE svg PUBLIC "-//W3C//DTD SVG 1.1//EN" "http://www.w3.org/Graphics/SVG/1.1/DTD/svg11.dtd">
<svg version="1.1" id="Layer_1" xmlns="http://www.w3.org/2000/svg" xmlns:xlink="http://www.w3.org/1999/xlink" x="0px" y="0px"
	 width="96px" height="96px" viewBox="0 0 96 96" enable-background="new 0 0 96 96" xml:space="preserve">
<g>
	<path fill="none" stroke="#FFFFFF" stroke-width="4.5" stroke-linejoin="round" stroke-miterlimit="10" d="M87,60.732
		C87,78.967,71.956,93.75,53.396,93.75"/>
	
		<line fill="none" stroke="#FFFFFF" stroke-width="4.5" stroke-linejoin="round" stroke-miterlimit="10" x1="48" y1="0" x2="48" y2="24.229"/>
	<path fill="none" stroke="#FFFFFF" stroke-width="4.5" stroke-linecap="round" stroke-linejoin="round" stroke-miterlimit="10" d="
		M38.759,12.938c-2.258,2.507-2.202,6.357,0.211,8.771c2.493,2.494,6.536,2.494,9.03,0"/>
	<path fill="none" stroke="#FFFFFF" stroke-width="4.5" stroke-linecap="round" stroke-linejoin="round" stroke-miterlimit="10" d="
		M27.234,12.938c-0.839,3.947,0.266,8.226,3.331,11.291c4.815,4.814,12.621,4.814,17.435,0"/>
	<path fill="none" stroke="#FFFFFF" stroke-width="4.5" stroke-linecap="round" stroke-linejoin="round" stroke-miterlimit="10" d="
		M57.242,12.938c2.257,2.507,2.201,6.357-0.211,8.771c-2.493,2.494-6.536,2.494-9.031,0"/>
	<path fill="none" stroke="#FFFFFF" stroke-width="4.5" stroke-linecap="round" stroke-linejoin="round" stroke-miterlimit="10" d="
		M68.766,12.938c0.84,3.947-0.265,8.226-3.331,11.291c-4.814,4.814-12.621,4.814-17.435,0"/>
	<path fill="none" stroke="#FFFFFF" stroke-width="4.5" stroke-linecap="round" stroke-linejoin="round" stroke-miterlimit="10" d="
		M47.874,82.964V38.626h-5.919c-12.243,0-22.169,9.925-22.169,22.169c0,12.244,9.926,22.169,22.169,22.169H47.874z"/>
	
		<line fill="none" stroke="#FFFFFF" stroke-width="4.5" stroke-linecap="round" stroke-linejoin="round" stroke-miterlimit="10" x1="32.138" y1="60.795" x2="28.687" y2="60.795"/>
	
		<line fill="none" stroke="#FFFFFF" stroke-width="4.5" stroke-linecap="round" stroke-linejoin="round" stroke-miterlimit="10" x1="37.729" y1="52.576" x2="35.288" y2="50.136"/>
	
		<line fill="none" stroke="#FFFFFF" stroke-width="4.5" stroke-linecap="round" stroke-linejoin="round" stroke-miterlimit="10" x1="37.729" y1="69.013" x2="35.288" y2="71.453"/>
	<path fill="none" stroke="#FFFFFF" stroke-width="4.5" stroke-linejoin="round" stroke-miterlimit="10" d="M40.287,27.792
		C22.809,28.963,9,43.264,9,60.732C9,78.967,24.046,93.75,42.605,93.75c1.837,0,3.639-0.152,5.395-0.428
		c1.757,0.275,3.559,0.428,5.396,0.428C71.956,93.75,87,78.967,87,60.732c0-17.547-13.931-31.897-31.519-32.955"/>
</g>
</svg>
