<?xml version="1.0" encoding="utf-8"?>
<!-- Generator: Adobe Illustrator 15.0.0, SVG Export Plug-In . SVG Version: 6.00 Build 0)  -->
<!DOCTYPE svg PUBLIC "-//W3C//DTD SVG 1.1//EN" "http://www.w3.org/Graphics/SVG/1.1/DTD/svg11.dtd">
<svg version="1.1" id="Layer_1" xmlns="http://www.w3.org/2000/svg" xmlns:xlink="http://www.w3.org/1999/xlink" x="0px" y="0px"
	 width="96px" height="96px" viewBox="0 0 96 96" enable-background="new 0 0 96 96" xml:space="preserve">
<g>
	<path fill="none" stroke="#FFFFFF" stroke-width="4.5" stroke-miterlimit="10" d="M53.596,49.588
		c-14.049-4.089-12.806-17.961-28.594-18.58C12.445,30.516,2.25,41.158,2.25,53.678s10.67,24.029,22.875,27.004
		C41.909,84.768,45.744,92.25,56.329,92.25c10.588,0,19.169-8.555,19.169-19.102C75.498,62.601,63.756,52.545,53.596,49.588z"/>
	<path fill="none" stroke="#FFFFFF" stroke-width="4.5" stroke-linecap="round" stroke-linejoin="round" stroke-miterlimit="10" d="
		M23.854,50.951c-0.562-1.492,1.118-2.974,0.932-5.019"/>
	<path fill="none" stroke="#FFFFFF" stroke-width="4.5" stroke-linecap="round" stroke-linejoin="round" stroke-miterlimit="10" d="
		M22.389,69.656c1.119-0.651,0.759-3.668-0.186-4.273"/>
	<path fill="none" stroke="#FFFFFF" stroke-width="4.5" stroke-linecap="round" stroke-linejoin="round" stroke-miterlimit="10" d="
		M58.567,77.646c0,1.301-4.395,3.934-5.874,2.785"/>
	<path fill="none" stroke="#FFFFFF" stroke-width="4.5" stroke-linecap="round" stroke-linejoin="round" stroke-miterlimit="10" d="
		M47.628,59.971c-1.025,0.467-1.26,5.875,0,6.434"/>
	<path fill="none" stroke="#FFFFFF" stroke-width="4.5" stroke-linecap="round" stroke-linejoin="round" stroke-miterlimit="10" d="
		M76.93,39.472c1.158,0.164,3.329,1.254,3.739,2.145"/>
	<path fill="none" stroke="#FFFFFF" stroke-width="4.5" stroke-linecap="round" stroke-linejoin="round" stroke-miterlimit="10" d="
		M61.725,46.21c0.897,1.532,0.818,5.92,0.687,6.583"/>
	<path fill="none" stroke="#FFFFFF" stroke-width="4.5" stroke-linecap="round" stroke-linejoin="round" stroke-miterlimit="10" d="
		M38.728,25.468c-0.103-0.855,1.074-3.844,2.249-4.868"/>
	<path fill="none" stroke="#FFFFFF" stroke-width="4.5" stroke-miterlimit="10" d="M61.477,26.365
		C55.77,11.996,47.612,3.51,34.45,3.755c-11.259,0.209-20.388,9.098-20.388,20.316c0,3.073,0.686,5.985,1.913,8.593"/>
	<path fill="none" stroke="#FFFFFF" stroke-width="4.5" stroke-miterlimit="10" d="M75.181,70.26
		C85.746,68.303,93.75,59.076,93.75,47.98c0-12.52-8.95-21.557-22.752-22.67c-12.405-1.002-22.916,6.917-26.614,18.75"/>
</g>
</svg>
