<?xml version="1.0" encoding="utf-8"?>
<!-- Generator: Adobe Illustrator 15.0.0, SVG Export Plug-In . SVG Version: 6.00 Build 0)  -->
<!DOCTYPE svg PUBLIC "-//W3C//DTD SVG 1.1//EN" "http://www.w3.org/Graphics/SVG/1.1/DTD/svg11.dtd">
<svg version="1.1" id="Layer_1" xmlns="http://www.w3.org/2000/svg" xmlns:xlink="http://www.w3.org/1999/xlink" x="0px" y="0px"
	 width="96px" height="96px" viewBox="0 0 96 96" enable-background="new 0 0 96 96" xml:space="preserve">
<g>
	<g>
		
			<path fill="none" stroke="#FFFFFF" stroke-width="4.5" stroke-linecap="round" stroke-linejoin="round" stroke-miterlimit="10" d="
			M70.307,83.918c-15.091,15.091-33.159,2.537-39.328,8.707c6.304-6.305-6.385-24.237,8.706-39.328
			c8.851-8.851,20.793-7.081,29.247,1.374C77.387,63.126,79.157,75.067,70.307,83.918z"/>
		
			<path fill="none" stroke="#FFFFFF" stroke-width="4.5" stroke-linecap="round" stroke-linejoin="round" stroke-miterlimit="10" d="
			M52.411,58.887c2.934,0.199,5.845,1.646,8.253,4.055"/>
		
			<path fill="none" stroke="#FFFFFF" stroke-width="4.5" stroke-linecap="round" stroke-linejoin="round" stroke-miterlimit="10" d="
			M75.406,20.599c7.606,7.608,7.604,19.945-0.003,27.551l-6.497,6.498"/>
		
			<path fill="none" stroke="#FFFFFF" stroke-width="4.5" stroke-linecap="round" stroke-linejoin="round" stroke-miterlimit="10" d="
			M69.993,33.68c5.49,5.49,5.489,14.391,0,19.881l-1.088,1.087"/>
		
			<path fill="none" stroke="#FFFFFF" stroke-width="4.5" stroke-linecap="round" stroke-linejoin="round" stroke-miterlimit="10" d="
			M93.75,53.388c-6.499-6.498-17.037-6.498-23.532-0.003l-1.286,1.286"/>
	</g>
	<g>
		
			<path fill="none" stroke="#FFFFFF" stroke-width="4.5" stroke-linecap="round" stroke-linejoin="round" stroke-miterlimit="10" d="
			M32.341,67.289c-5.294-2.455-10.407-6.404-13.554-14.001c-4.789-11.563,1.418-21.917,12.463-26.493
			c11.048-4.576,22.759-1.644,27.549,9.92c1.869,4.515,2.341,8.616,1.997,12.357"/>
		
			<path fill="none" stroke="#FFFFFF" stroke-width="4.5" stroke-linecap="round" stroke-linejoin="round" stroke-miterlimit="10" d="
			M2.25,7.775c9.939-4.116,21.337,0.604,25.453,10.544l3.516,8.487"/>
		
			<path fill="none" stroke="#FFFFFF" stroke-width="4.5" stroke-linecap="round" stroke-linejoin="round" stroke-miterlimit="10" d="
			M19.022,21c4.616-1.913,9.907,0.278,11.818,4.896l0.378,0.911"/>
		
			<path fill="none" stroke="#FFFFFF" stroke-width="4.5" stroke-linecap="round" stroke-linejoin="round" stroke-miterlimit="10" d="
			M39.56,3.375c-8.487,3.516-12.52,13.254-9.006,21.741l0.696,1.679"/>
	</g>
</g>
</svg>
