<?xml version="1.0" encoding="utf-8"?>
<!-- Generator: Adobe Illustrator 15.0.0, SVG Export Plug-In . SVG Version: 6.00 Build 0)  -->
<!DOCTYPE svg PUBLIC "-//W3C//DTD SVG 1.1//EN" "http://www.w3.org/Graphics/SVG/1.1/DTD/svg11.dtd">
<svg version="1.1" id="Layer_1" xmlns="http://www.w3.org/2000/svg" xmlns:xlink="http://www.w3.org/1999/xlink" x="0px" y="0px"
	 width="96px" height="96px" viewBox="0 0 96 96" enable-background="new 0 0 96 96" xml:space="preserve">
<g>
	<g>
		
			<path fill="none" stroke="#FFFFFF" stroke-width="4.5" stroke-linecap="round" stroke-linejoin="round" stroke-miterlimit="10" d="
			M48.056,63.188c-8.094,0-14.654-6.561-14.654-14.655c0-13.344,14.654-20.656,14.654-20.656s14.656,7.312,14.656,20.656"/>
	</g>
	<g>
		
			<path fill="none" stroke="#FFFFFF" stroke-width="4.5" stroke-linecap="round" stroke-linejoin="round" stroke-miterlimit="10" d="
			M75.601,28.573c-3.715-8.782-13.178-13.51-13.178-13.51s-9.465,4.729-13.182,13.51"/>
		
			<path fill="none" stroke="#FFFFFF" stroke-width="4.5" stroke-linecap="round" stroke-linejoin="round" stroke-miterlimit="10" d="
			M46.757,28.573c-3.716-8.782-13.18-13.51-13.18-13.51s-9.463,4.729-13.178,13.51"/>
		
			<path fill="none" stroke="#FFFFFF" stroke-width="4.5" stroke-linecap="round" stroke-linejoin="round" stroke-miterlimit="10" d="
			M61.179,15.76c-3.717-8.782-13.18-13.51-13.18-13.51S38.536,6.979,34.82,15.76"/>
	</g>
	<path fill="none" stroke="#FFFFFF" stroke-width="4.5" stroke-linecap="round" stroke-linejoin="round" stroke-miterlimit="10" d="
		M33.56,45.694c-1.85-11.536-14.424-17.818-14.424-17.818S5.138,34.868,4.511,47.648H4.479v0.002c0,0.15,0.084,2.477,0.207,3.249
		c2.131,16.922,20.707,30.15,43.312,30.15c22.928,0,41.699-13.608,43.383-30.874c0.012-0.102,0.139-1.778,0.139-2.525v-0.002h-0.07
		c-0.627-12.781-14.625-19.772-14.625-19.772s-12.479,6.283-14.329,17.818"/>
	<path fill="none" stroke="#FFFFFF" stroke-width="4.5" stroke-linecap="round" stroke-linejoin="round" stroke-miterlimit="10" d="
		M65.353,63.188c4.342-1.822,7.924-4.577,10.289-7.916"/>
	
		<polyline fill="none" stroke="#FFFFFF" stroke-width="4.5" stroke-linecap="round" stroke-linejoin="round" stroke-miterlimit="10" points="
		40.468,80.543 40.468,93.75 55.532,93.75 55.532,80.542 	"/>
</g>
</svg>
