<?xml version="1.0" encoding="utf-8"?>
<!-- Generator: Adobe Illustrator 15.0.0, SVG Export Plug-In . SVG Version: 6.00 Build 0)  -->
<!DOCTYPE svg PUBLIC "-//W3C//DTD SVG 1.1//EN" "http://www.w3.org/Graphics/SVG/1.1/DTD/svg11.dtd">
<svg version="1.1" id="Layer_1" xmlns="http://www.w3.org/2000/svg" xmlns:xlink="http://www.w3.org/1999/xlink" x="0px" y="0px"
	 width="96px" height="96px" viewBox="0 0 96 96" enable-background="new 0 0 96 96" xml:space="preserve">
<g>
	<path fill="none" stroke="#FFFFFF" stroke-width="4.5" stroke-linecap="round" stroke-linejoin="round" stroke-miterlimit="10" d="
		M78.538,59.256c0,12.715-29.741,25.635-29.741,34.494c0-9.053-29.74-21.779-29.74-34.494c0-12.712,13.316-20.019,29.74-20.019
		S78.538,46.543,78.538,59.256z"/>
	<path fill="none" stroke="#FFFFFF" stroke-width="4.5" stroke-linecap="round" stroke-linejoin="round" stroke-miterlimit="10" d="
		M41.803,39.703c5.236-0.756,7.536-4.282,7.536-7.526c0-2.428-1.093-4.579-2.784-6.05c3.561-0.803,6.227-3.993,6.227-7.819
		c0-4.433-3.568-8.026-7.969-8.026c-1.551,0-2.986,0.465-4.211,1.238c-0.026-4.409-3.58-7.98-7.965-7.98
		c-3.558,0-6.533,2.364-7.557,5.602c-1.198-2.909-4.04-4.959-7.362-4.959c-4.4,0-7.968,3.594-7.968,8.026
		c0,3.968,2.867,7.242,6.626,7.89c-1.559,1.465-2.546,3.533-2.546,5.851c0,4.431,3.568,8.024,7.969,8.024
		c1.529,0,2.945-0.454,4.158-1.207c0.075,4.366,4.544,9.161,13.886,7.248"/>
	<path fill="none" stroke="#FFFFFF" stroke-width="4.5" stroke-miterlimit="10" d="M69.803,20.232"/>
	<path fill="none" stroke="#FFFFFF" stroke-width="4.5" stroke-linecap="round" stroke-miterlimit="10" d="M67.532,21.993
		c0,0-9.281,12.789-21.229,17.303"/>
	<path fill="none" stroke="#FFFFFF" stroke-width="4.5" stroke-linecap="round" stroke-linejoin="round" stroke-miterlimit="10" d="
		M59.514,40.374c12.05,3.27,16.4-4.491,16.517-8.821c0.719,0.214,1.465,0.364,2.254,0.364c4.4,0,7.966-3.593,7.966-8.025
		c0-3.064-1.727-5.698-4.236-7.051c1.436-1.451,2.323-3.452,2.323-5.663c0-4.431-3.565-8.025-7.966-8.025
		c-2.807,0-5.232,1.488-6.65,3.694c-1.875-2.773-5.036-4.596-8.619-4.596c-5.757,0-10.424,4.827-10.424,10.626"/>
	<path fill="none" stroke="#FFFFFF" stroke-width="4.5" stroke-linecap="round" stroke-miterlimit="10" d="M30.876,19.313
		c0,0,9.094,8.906,9.69,20.577"/>
</g>
</svg>
