<?xml version="1.0" encoding="utf-8"?>
<!-- Generator: Adobe Illustrator 15.0.0, SVG Export Plug-In . SVG Version: 6.00 Build 0)  -->
<!DOCTYPE svg PUBLIC "-//W3C//DTD SVG 1.1//EN" "http://www.w3.org/Graphics/SVG/1.1/DTD/svg11.dtd">
<svg version="1.1" id="Layer_1" xmlns="http://www.w3.org/2000/svg" xmlns:xlink="http://www.w3.org/1999/xlink" x="0px" y="0px"
	 width="96px" height="96px" viewBox="0 0 96 96" enable-background="new 0 0 96 96" xml:space="preserve">
<g>
	<path fill="none" stroke="#FFFFFF" stroke-width="4.5" stroke-linecap="round" stroke-linejoin="round" stroke-miterlimit="10" d="
		M74.083,37.961C78.208,35.588,81,31.08,81,25.9c0-7.645-6.065-13.841-13.547-13.841c-1.794,0-3.501,0.365-5.065,1.009
		C60.48,6.801,54.762,2.25,48,2.25S35.52,6.801,33.612,13.068c-1.565-0.645-3.272-1.009-5.065-1.009
		C21.066,12.059,15,18.255,15,25.9c0,5.18,2.792,9.688,6.916,12.062c-3.564,2.493-5.905,6.68-5.905,11.425
		c0,3.688,1.421,7.029,3.721,9.51h-0.009l0.11,0.113c0.101,0.107,0.203,0.209,0.306,0.312l22.16,22.643V93.75h11.323l-0.018-11.785
		L74.97,60.137c3.06-2.539,5.02-6.41,5.02-10.75C79.989,44.641,77.648,40.455,74.083,37.961z"/>
	<line fill="none" stroke="#FFFFFF" stroke-width="4.5" stroke-miterlimit="10" x1="48" y1="19.222" x2="48" y2="68.487"/>
	<g>
		
			<line fill="none" stroke="#FFFFFF" stroke-width="4.5" stroke-linecap="round" stroke-miterlimit="10" x1="56.646" y1="44.354" x2="63.357" y2="37.644"/>
		
			<line fill="none" stroke="#FFFFFF" stroke-width="4.5" stroke-linecap="round" stroke-miterlimit="10" x1="56.646" y1="60.613" x2="63.357" y2="53.904"/>
		
			<line fill="none" stroke="#FFFFFF" stroke-width="4.5" stroke-linecap="round" stroke-miterlimit="10" x1="39.354" y1="31.964" x2="32.643" y2="25.255"/>
		
			<line fill="none" stroke="#FFFFFF" stroke-width="4.5" stroke-linecap="round" stroke-miterlimit="10" x1="39.354" y1="48.226" x2="32.643" y2="41.515"/>
	</g>
</g>
</svg>
