<?xml version="1.0" encoding="utf-8"?>
<!-- Generator: Adobe Illustrator 15.0.0, SVG Export Plug-In . SVG Version: 6.00 Build 0)  -->
<!DOCTYPE svg PUBLIC "-//W3C//DTD SVG 1.1//EN" "http://www.w3.org/Graphics/SVG/1.1/DTD/svg11.dtd">
<svg version="1.1" id="Layer_1" xmlns="http://www.w3.org/2000/svg" xmlns:xlink="http://www.w3.org/1999/xlink" x="0px" y="0px"
	 width="96px" height="96px" viewBox="0 0 96 96" enable-background="new 0 0 96 96" xml:space="preserve">
<g>
	<path fill="none" stroke="#FFFFFF" stroke-width="4.5" stroke-linecap="round" stroke-linejoin="round" stroke-miterlimit="10" d="
		M15.92,47.25c0,3.65,2.97,6.609,6.626,6.609"/>
	<path fill="none" stroke="#FFFFFF" stroke-width="4.5" stroke-linecap="round" stroke-linejoin="round" stroke-miterlimit="10" d="
		M55.73,24.886c-0.591-3.602-3.998-6.047-7.607-5.461c-3.612,0.589-6.062,3.984-5.476,7.588"/>
	<path fill="none" stroke="#FFFFFF" stroke-width="4.5" stroke-linecap="round" stroke-linejoin="round" stroke-miterlimit="10" d="
		M41.709,60.154c2.512,3.035,4.137,8.889,5.251,15.75"/>
	<path fill="none" stroke="#FFFFFF" stroke-width="4.5" stroke-linecap="round" stroke-linejoin="round" stroke-miterlimit="10" d="
		M29.762,62.586c6.302,6.48,7.204,16.629,7.204,21.838c0,5.535,5.927,6.283,8.834,6.316c0.949,0.012,4.962,0.014,5.936,0
		c2.927-0.041,8.783-0.812,8.783-6.316c0-5.119,0.875-14.529,6.879-20.876"/>
	<path fill="none" stroke="#FFFFFF" stroke-width="4.5" stroke-linecap="round" stroke-linejoin="round" stroke-miterlimit="10" d="
		M77.091,33.403c-0.125,0-0.248,0.016-0.371,0.018c0.841-1.658,1.339-3.521,1.339-5.511c0-6.779-5.511-12.274-12.308-12.274
		c-1.573,0-3.07,0.306-4.454,0.845C59.115,9.958,52.957,5.25,45.686,5.25c-6.956,0-12.894,4.307-15.306,10.387
		C23.596,15.652,18.1,21.141,18.1,27.91c0,1.992,0.5,3.858,1.344,5.52c-0.178-0.006-0.354-0.026-0.533-0.026
		c-9.201,0-16.66,7.438-16.66,16.616c0,9.176,7.459,16.616,16.66,16.616c4.972,0,9.42-2.184,12.472-5.624
		c3.19-0.017,6.076-1.26,8.25-3.261c2.988,4.169,7.87,6.896,13.396,6.896c1.386,0,2.725-0.189,4.01-0.508
		c2.931-0.229,5.651-1.205,7.97-2.734c3.038,3.205,7.314,5.23,12.084,5.23c9.2,0,16.659-7.44,16.659-16.616
		C93.75,40.841,86.291,33.403,77.091,33.403z"/>
	<path fill="none" stroke="#FFFFFF" stroke-width="4.5" stroke-linecap="round" stroke-linejoin="round" stroke-miterlimit="10" d="
		M30.38,15.637c-0.647,1.762-1.163,4.049-1.163,6.035c0,7.346,4.84,13.564,11.508,15.662c-2.581,2.9-4.163,6.706-4.163,10.89
		c0,3.495,1.204,6.864,3.07,9.526"/>
	<path fill="none" stroke="#FFFFFF" stroke-width="4.5" stroke-linecap="round" stroke-linejoin="round" stroke-miterlimit="10" d="
		M65.007,61.404c1.04,0.654,2.238,1.066,3.554,1.066c3.732,0,6.759-3.014,6.759-6.738c0-1.502-0.51-2.877-1.345-3.998
		c0.047,0.001,0.091,0.008,0.138,0.008c5.2,0,9.412-4.201,9.412-9.383c0-4.236-2.938-7.771-6.805-8.938"/>
</g>
</svg>
