<?xml version="1.0" encoding="utf-8"?>
<!-- Generator: Adobe Illustrator 15.0.0, SVG Export Plug-In . SVG Version: 6.00 Build 0)  -->
<!DOCTYPE svg PUBLIC "-//W3C//DTD SVG 1.1//EN" "http://www.w3.org/Graphics/SVG/1.1/DTD/svg11.dtd">
<svg version="1.1" id="Layer_1" xmlns="http://www.w3.org/2000/svg" xmlns:xlink="http://www.w3.org/1999/xlink" x="0px" y="0px"
	 width="96px" height="96px" viewBox="0 0 96 96" enable-background="new 0 0 96 96" xml:space="preserve">
<g>
	<path fill="none" stroke="#FFFFFF" stroke-width="4.5" stroke-miterlimit="10" d="M33.181,63.213
		c-11.199-5.111-25.736,2.771-25.736,2.771s3.615,16.162,14.812,21.274c1.763,0.802,3.604,1.282,5.456,1.525h0.01H48
		c0,0,0-1.115,0-5.436C48,79.027,44.38,68.322,33.181,63.213z"/>
	<path fill="none" stroke="#FFFFFF" stroke-width="4.5" stroke-miterlimit="10" d="M62.819,63.213
		c11.198-5.111,25.738,2.771,25.738,2.771S84.938,82.146,73.74,87.259c-1.759,0.802-3.601,1.282-5.452,1.525h-0.01H48
		c0,0,0-1.115,0-5.436C48,79.027,51.62,68.322,62.819,63.213z"/>
	<path fill="none" stroke="#FFFFFF" stroke-width="4.5" stroke-linecap="round" stroke-linejoin="round" stroke-miterlimit="10" d="
		M29.506,46.418c-3.958,0-7.167-3.213-7.167-7.183c0-3.967,3.209-7.18,7.167-7.18"/>
	<path fill="none" stroke="#FFFFFF" stroke-width="4.5" stroke-linecap="round" stroke-linejoin="round" stroke-miterlimit="10" d="
		M48.246,18.963c3.955,0,7.167,3.214,7.167,7.181c0,3.969-3.212,7.182-7.167,7.182"/>
	<path fill="none" stroke="#FFFFFF" stroke-width="4.5" stroke-linecap="round" stroke-linejoin="round" stroke-miterlimit="10" d="
		M39.037,57.305c0-3.968,3.205-7.184,7.164-7.184c3.956,0,7.168,3.216,7.168,7.184"/>
	<path fill="none" stroke="#FFFFFF" stroke-width="4.5" stroke-linecap="round" stroke-linejoin="round" stroke-miterlimit="10" d="
		M59.93,41.48c0-3.967,3.208-7.182,7.164-7.182c3.96,0,7.168,3.215,7.168,7.182"/>
	<path fill="none" stroke="#FFFFFF" stroke-width="4.5" stroke-linecap="round" stroke-linejoin="round" stroke-miterlimit="10" d="
		M85.262,64.479c2.539-1.576,4.238-4.379,4.238-7.594c0-2.362-0.923-4.508-2.417-6.106c1.494-1.601,2.417-3.746,2.417-6.108
		c0-4.001-2.618-7.383-6.229-8.532c0.63-1.227,0.994-2.616,0.994-4.09c0-4.943-3.996-8.951-8.932-8.951
		c-0.039,0-0.069,0.006-0.106,0.006c0.062-0.425,0.106-0.857,0.106-1.3c0-4.941-4-8.95-8.931-8.95c-1.124,0-2.197,0.219-3.19,0.6
		c-1.148-3.615-4.522-6.236-8.511-6.236c-2.671,0-5.067,1.185-6.702,3.051c-1.639-1.867-4.031-3.051-6.703-3.051
		c-3.984,0-7.36,2.622-8.51,6.236c-0.992-0.381-2.066-0.6-3.192-0.6c-4.932,0-8.929,4.009-8.929,8.95c0,0.442,0.045,0.875,0.106,1.3
		c-0.034,0-0.07-0.006-0.106-0.006c-4.932,0-8.931,4.007-8.931,8.951c0,1.474,0.363,2.863,0.994,4.09
		C9.121,37.287,6.5,40.668,6.5,44.67c0,2.363,0.924,4.508,2.416,6.108C7.424,52.377,6.5,54.522,6.5,56.885
		c0,2.93,1.656,6.174,4.168,7.623"/>
</g>
</svg>
