<?xml version="1.0" encoding="utf-8"?>
<!-- Generator: Adobe Illustrator 15.0.0, SVG Export Plug-In . SVG Version: 6.00 Build 0)  -->
<!DOCTYPE svg PUBLIC "-//W3C//DTD SVG 1.1//EN" "http://www.w3.org/Graphics/SVG/1.1/DTD/svg11.dtd">
<svg version="1.1" id="Layer_1" xmlns="http://www.w3.org/2000/svg" xmlns:xlink="http://www.w3.org/1999/xlink" x="0px" y="0px"
	 width="96px" height="96px" viewBox="0 0 96 96" enable-background="new 0 0 96 96" xml:space="preserve">
<g>
	<g>
		
			<path fill="none" stroke="#FFFFFF" stroke-width="4.5" stroke-linecap="round" stroke-linejoin="round" stroke-miterlimit="10" d="
			M78.779,78.779c5.804-5.805,5.804-15.211,0-21.014c-0.513-0.514-1.063-0.967-1.632-1.389L45.99,31.439"/>
		
			<path fill="none" stroke="#FFFFFF" stroke-width="4.5" stroke-linecap="round" stroke-linejoin="round" stroke-miterlimit="10" d="
			M82.573,47.2l0.009-0.012l-45.41-34.325l-0.003,0.003c-4.931-3.888-11.479-4.702-17.101-2.47c0.003-0.003,0.009-0.003,0.012-0.006
			l-8.139-8.14L2.25,11.942l8.142,8.142C8.168,25.7,8.982,32.242,12.867,37.169l-0.006,0.003l34.33,45.406L47.2,82.57
			c0.891,1.309,1.898,2.557,3.056,3.717c9.952,9.949,26.083,9.949,36.032,0s9.949-26.08,0-36.031
			C85.128,49.098,83.88,48.09,82.573,47.2z"/>
		
			<polyline fill="none" stroke="#FFFFFF" stroke-width="4.5" stroke-linecap="round" stroke-linejoin="round" stroke-miterlimit="10" points="
			23.174,31.171 23.174,31.171 37.688,50.367 37.69,50.365 		"/>
		
			<path fill="none" stroke="#FFFFFF" stroke-width="4.5" stroke-linecap="round" stroke-linejoin="round" stroke-miterlimit="10" d="
			M78.779,78.779"/>
	</g>
	
		<line fill="none" stroke="#FFFFFF" stroke-width="4.5" stroke-linecap="round" stroke-linejoin="round" stroke-miterlimit="10" x1="10.392" y1="20.083" x2="20.08" y2="10.391"/>
</g>
</svg>
