<?xml version="1.0" encoding="utf-8"?>
<!-- Generator: Adobe Illustrator 15.0.0, SVG Export Plug-In . SVG Version: 6.00 Build 0)  -->
<!DOCTYPE svg PUBLIC "-//W3C//DTD SVG 1.1//EN" "http://www.w3.org/Graphics/SVG/1.1/DTD/svg11.dtd">
<svg version="1.1" id="Layer_1" xmlns="http://www.w3.org/2000/svg" xmlns:xlink="http://www.w3.org/1999/xlink" x="0px" y="0px"
	 width="96px" height="96px" viewBox="0 0 96 96" enable-background="new 0 0 96 96" xml:space="preserve">
<g>
	<path fill="none" stroke="#FFFFFF" stroke-width="4.5" stroke-linecap="round" stroke-linejoin="round" stroke-miterlimit="10" d="
		M78,63.656c0,16.62-13.433,30.094-30,30.094c-16.568,0-30-13.474-30-30.094C18,47.033,31.432,9.683,48,9.683
		C64.567,9.683,78,47.033,78,63.656z"/>
	<path fill="none" stroke="#FFFFFF" stroke-width="4.5" stroke-linecap="round" stroke-linejoin="round" stroke-miterlimit="10" d="
		M60.422,62.936c0,6.861-5.561,12.425-12.422,12.425c-6.862,0-12.423-5.563-12.423-12.425c0-6.858,3.929-22.277,12.423-22.277
		C56.496,40.658,60.422,56.077,60.422,62.936z"/>
	
		<line fill="none" stroke="#FFFFFF" stroke-width="4.5" stroke-linejoin="round" stroke-miterlimit="10" x1="48" y1="0" x2="48" y2="9.683"/>
</g>
</svg>
