<?xml version="1.0" encoding="utf-8"?>
<!-- Generator: Adobe Illustrator 15.0.0, SVG Export Plug-In . SVG Version: 6.00 Build 0)  -->
<!DOCTYPE svg PUBLIC "-//W3C//DTD SVG 1.1//EN" "http://www.w3.org/Graphics/SVG/1.1/DTD/svg11.dtd">
<svg version="1.1" id="Layer_1" xmlns="http://www.w3.org/2000/svg" xmlns:xlink="http://www.w3.org/1999/xlink" x="0px" y="0px"
	 width="96px" height="96px" viewBox="0 0 96 96" enable-background="new 0 0 96 96" xml:space="preserve">
<g>
	<path fill="none" stroke="#FFFFFF" stroke-width="4.5" stroke-miterlimit="10" d="M56.233,4.751c0,0,11.984,6.334,12.352,21.312
		c0.368,14.974-12.758,24.373-4.463,41.195"/>
	<path fill="none" stroke="#FFFFFF" stroke-width="4.5" stroke-miterlimit="10" d="M88.928,31.792c0,0,0.307,23.48-16.471,30.874
		c-16.776,7.396-18.435,17.01-18.435,17.01"/>
	<path fill="none" stroke="#FFFFFF" stroke-width="4.5" stroke-linejoin="round" stroke-miterlimit="10" d="M47.237,62.006
		c0-4.312,1.742-9.852,2.835-11.992c1.091-2.137,1.859-5.159,1.859-8.052c0-10.21-8.253-18.486-18.435-18.486
		c-2.844,0-5.522,0.664-7.926,1.817c-0.565-5.456-5.167-9.709-10.757-9.709C8.842,15.584,4,20.439,4,26.43
		c0,2.733,1.015,5.225,2.678,7.131C5.11,38.085,4.244,42.939,4.244,48c0,24.3,19.646,44,43.88,44c6.816,0,13.272-1.561,19.026-4.342
		C55.712,84.747,47.237,74.381,47.237,62.006z"/>
	<path fill="none" stroke="#FFFFFF" stroke-width="4.5" stroke-miterlimit="10" d="M17.952,16.052C25.817,8.583,36.437,4,48.124,4
		C72.354,4,92,23.7,92,48S72.354,92,48.124,92c-24.233,0-43.88-19.7-43.88-44"/>
</g>
</svg>
