<?xml version="1.0" encoding="utf-8"?>
<!-- Generator: Adobe Illustrator 15.0.0, SVG Export Plug-In . SVG Version: 6.00 Build 0)  -->
<!DOCTYPE svg PUBLIC "-//W3C//DTD SVG 1.1//EN" "http://www.w3.org/Graphics/SVG/1.1/DTD/svg11.dtd">
<svg version="1.1" id="Layer_1" xmlns="http://www.w3.org/2000/svg" xmlns:xlink="http://www.w3.org/1999/xlink" x="0px" y="0px"
	 width="96px" height="96px" viewBox="0 0 96 96" enable-background="new 0 0 96 96" xml:space="preserve">
<g>
	<path fill="none" stroke="#FFFFFF" stroke-width="4.5" stroke-linecap="round" stroke-linejoin="round" stroke-miterlimit="10" d="
		M84.963,52.011c-9.682,9.662-25.377,9.662-35.059,0c-9.681-9.662-9.681-25.327,0-34.989c9.682-9.662,43.822-8.748,43.822-8.748
		S94.644,42.349,84.963,52.011z"/>
	<path fill="none" stroke="#FFFFFF" stroke-width="4.5" stroke-linecap="round" stroke-linejoin="round" stroke-miterlimit="10" d="
		M32.926,42.524c6.05,6.038,6.05,15.829,0,21.867c-6.05,6.041-15.861,6.041-21.911,0C4.965,58.354,2.25,33.776,2.25,33.776
		S26.876,36.486,32.926,42.524z"/>
	<path fill="none" stroke="#FFFFFF" stroke-width="4.5" stroke-linecap="round" stroke-linejoin="round" stroke-miterlimit="10" d="
		M44.461,87.744c-0.311-7.509,0.624-15.413,2.964-23.317c4.451-15.035,13.169-27.313,23.769-35.156"/>
	<path fill="none" stroke="#FFFFFF" stroke-width="4.5" stroke-linecap="round" stroke-linejoin="round" stroke-miterlimit="10" d="
		M18.542,48.914c14.261,6.272,23.647,21.103,25.89,38.836"/>
</g>
</svg>
