<?xml version="1.0" encoding="UTF-8" standalone="no"?>
<svg width="257px" height="209px" viewBox="0 0 257 209" version="1.1" xmlns="http://www.w3.org/2000/svg" xmlns:xlink="http://www.w3.org/1999/xlink">
    <!-- Generator: Sketch 43.2 (39069) - http://www.bohemiancoding.com/sketch -->
    <title>logo</title>
    <desc>Created with Sketch.</desc>
    <defs></defs>
    <g id="Page-1" stroke="none" stroke-width="1" fill="none" fill-rule="evenodd">
        <g id="menu" transform="translate(-592.000000, -81.000000)">
            <g id="logo" transform="translate(570.000000, 81.000000)">
                <rect id="Rectangle" x="0" y="32" width="300" height="150"></rect>
                <path d="M55.2167373,53.6141157 L46.702354,51.3259823 C44.0355497,50.6093123 42.4546536,47.8664643 43.1713237,45.1996601 C43.7984316,42.8661259 45.9769388,41.3640475 48.2983756,41.5052249 C48.4762038,40.1737739 49.1868301,38.9173054 50.3707012,38.0814454 C52.6265284,36.4887419 55.7463791,37.0263098 57.3390826,39.2821371 L61.3016773,44.8945621 L113.108822,58.8170802 L120.166837,46.8865925 L146.362407,2.60701537 C149.756851,-3.13077078 158.36353,1.96089621 154.969086,7.69868236 L127.63108,53.9093735 L123.133885,61.5111895 L236.844521,92.0694918 C239.511325,92.7861619 241.092221,95.5290098 240.375551,98.1958141 C239.658881,100.862618 236.916033,102.443514 234.249229,101.726844 L117.848349,70.4455731 L100.293073,100.120065 L171.322313,200.722398 C172.915016,202.978226 172.377448,206.098076 170.121621,207.69078 C167.865794,209.283483 164.745943,208.745915 163.15324,206.490088 L94.7122381,109.553608 L80.5812162,133.439925 L66.4501944,157.326242 C63.0557497,163.064028 54.4490705,157.972361 57.8435152,152.234575 L73.1169741,126.417144 L88.390433,100.599713 L55.2167373,53.6141157 Z M70.3245791,57.674158 L93.9712682,91.1661696 L107.823287,67.7514639 L70.3245791,57.674158 Z" id="Combined-Shape" fill="#000000" fill-rule="nonzero" opacity="0.049999997"></path>
                <g id="Text" transform="translate(22.000000, 46.000000)" fill="#83C572">
                    <path d="M0.416,55.136 C0.92,54.92 1.424,54.848 1.712,54.272 C1.784,54.128 2.216,53.984 2.504,53.984 C4.808,53.912 7.112,53.84 9.488,53.768 C10.136,53.768 10.784,53.84 11.36,53.768 C12.872,53.552 14.24,54.128 15.536,54.704 C16.688,55.28 17.84,55.928 18.848,56.648 C20.288,57.728 21.224,59.168 21.872,60.824 C23.456,65.216 23.672,69.608 22.304,73.928 C21.584,76.16 20.288,78.104 18.776,79.832 C17.768,80.984 16.4,81.56 15.104,82.136 C14.168,82.64 12.944,82.64 11.792,82.424 C11.216,82.352 10.568,82.28 9.848,82.208 C9.848,83.576 9.848,84.8 9.92,86.024 C9.992,88.184 10.208,90.344 10.208,92.504 C10.28,93.872 10.136,95.312 10.064,96.752 C10.064,98.408 10.208,100.064 10.064,101.72 C9.92,103.952 10.064,106.184 10.208,108.416 C10.28,109.352 9.704,109.928 8.984,110.144 C7.832,110.504 6.68,110.864 5.456,110.432 C5.312,110.36 5.096,110.36 4.952,110.36 C3.944,110.36 2.864,110.432 1.856,110.288 C0.632,110.216 0.2,109.712 0.2,108.416 C0.2,107.48 0.272,106.544 0.344,105.608 C0.416,103.232 0.488,100.784 0.56,98.408 C0.56,96.608 0.56,94.808 0.488,93.08 L0.488,84.944 C0.488,83.432 0.56,81.992 0.56,80.48 C0.632,78.392 0.704,76.304 0.704,74.144 C0.776,72.056 0.848,69.968 0.848,67.952 C0.776,66.44 0.704,65 0.632,63.488 C0.488,61.256 0.344,59.024 0.272,56.792 C0.272,56.216 0.344,55.712 0.416,55.136 Z M9.92,57.296 C9.992,58.52 10.064,59.528 10.136,60.608 C10.136,62.192 10.352,63.776 10.208,65.36 C9.92,69.608 9.992,73.928 9.848,78.176 C9.848,78.608 9.92,79.04 9.92,79.616 C10.568,79.472 11.072,79.4 11.504,79.256 C12.944,78.752 14.24,77.888 15.32,76.88 C15.608,76.592 15.896,76.304 16.112,75.944 C16.904,74.216 17.696,72.416 18.416,70.688 C18.632,70.112 18.632,69.392 18.632,68.816 C18.704,67.88 18.704,66.944 18.704,66.008 C18.704,63.92 18.416,61.904 17.408,60.032 C16.616,58.52 15.392,57.8 13.808,57.584 C13.592,57.584 13.376,57.656 13.232,57.584 C12.224,57.08 11.216,57.512 9.92,57.296 Z M35.84,79.184 C35.84,78.824 35.768,78.608 35.768,78.32 L35.552,69.68 C35.48,67.016 35.408,64.28 35.336,61.616 C35.336,60.608 35.264,59.6 35.264,58.592 C35.264,57.8 35.48,57.584 36.344,57.656 C36.992,57.656 37.64,57.728 38.216,57.728 C39.872,57.728 41.6,57.728 43.256,57.656 C43.616,57.656 43.976,57.728 44.336,57.728 C45.488,57.656 46.208,57.152 46.64,56 C46.712,55.712 46.568,55.28 46.424,55.064 C45.92,54.488 45.272,54.056 44.552,54.056 C43.04,54.056 41.528,54.056 40.016,54.128 C37.496,54.128 34.976,54.2 32.456,54.272 C31.52,54.272 30.656,54.2 29.72,54.2 C29.216,54.272 28.928,54.56 28.856,55.064 C28.784,55.712 28.712,56.288 28.64,56.936 C28.568,59.816 28.424,62.696 28.352,65.576 C28.208,67.664 28.064,69.752 27.992,71.912 C27.848,74.936 27.92,77.96 27.848,81.056 C27.776,84.368 27.632,87.68 27.56,91.064 C27.488,94.664 27.704,98.264 27.2,101.792 C27.128,102.368 27.2,102.944 27.056,103.52 C26.768,104.456 26.984,105.32 27.128,106.256 C27.128,106.76 27.344,107.192 27.344,107.696 C27.488,108.632 27.848,109.496 28.64,110 C29.288,110.504 30.008,111.224 31.016,110.648 C31.304,110.504 31.736,110.648 32.024,110.648 C32.672,110.576 33.32,110.576 33.968,110.504 C35.192,110.432 36.344,110.36 37.568,110.216 C39.008,110.072 40.448,109.784 41.96,109.568 C42.248,109.568 42.608,109.496 42.896,109.568 C44.048,109.784 44.912,109.424 45.416,108.416 C45.488,108.344 45.488,108.128 45.632,108.056 C46.136,107.552 45.848,107.12 45.56,106.76 C44.624,105.608 42.752,105.104 41.384,105.68 C40.232,106.184 39.08,106.4 37.856,106.472 C36.992,106.544 36.056,107.048 35.12,106.616 C34.904,103.52 34.76,86.456 35.624,82.856 C37.064,82.64 38.648,82.28 40.16,82.352 C40.736,82.352 41.312,82.208 41.816,82.064 C43.328,81.488 43.616,80.048 42.32,79.04 C42.032,78.896 41.672,78.752 41.384,78.752 C40.016,78.752 38.648,78.536 37.352,79.04 C36.92,79.184 36.416,79.112 35.84,79.184 Z M57.224,110.648 C56.936,110.504 56.576,110.288 56.144,110.144 C55.856,110.072 55.496,110 55.208,110.144 C54.416,110.36 53.624,110.288 52.976,109.64 C52.4,109.064 51.464,108.704 51.248,107.696 C51.176,107.48 51.104,107.264 51.104,107.048 C51.104,104.96 51.176,102.944 51.248,100.928 C51.248,99.992 51.392,99.128 51.392,98.192 C51.392,95.744 51.464,93.368 51.392,90.92 C51.392,87.968 51.248,85.016 51.176,81.992 C51.104,79.256 51.032,76.448 50.96,73.712 C50.96,71.624 51.032,69.536 51.032,67.448 C50.96,65.792 50.96,64.208 50.816,62.624 C50.744,60.968 50.528,59.384 50.384,57.8 C50.312,56.432 50.312,56.432 49.592,55.28 C50.024,53.912 51.248,53.984 52.256,53.84 C53.048,53.768 53.84,53.984 54.56,53.984 L59.24,53.984 C61.256,53.984 63.272,54.416 65.288,54.776 C68.096,55.352 70.4,56.936 72.632,58.736 C74.432,60.104 75.368,62.12 76.232,64.064 C77.168,66.008 77.024,68.024 77.168,70.04 C77.312,71.84 76.592,73.352 76.016,75.008 C75.44,76.52 74.432,77.744 73.64,79.112 C73.424,79.544 72.992,79.832 72.632,80.192 L72.488,80.192 C71.48,81.488 70.4,82.568 68.888,83.144 L70.472,87.896 C70.76,88.688 71.048,89.336 71.336,90.056 C71.696,90.992 72.056,91.856 72.344,92.792 C72.704,93.944 72.992,95.024 73.208,96.176 C73.64,98.984 74.648,101.648 75.296,104.384 C75.44,104.744 75.44,105.176 75.512,105.608 C75.8,107.048 76.088,108.488 76.448,110 C74.936,110.504 73.352,109.928 71.84,109.856 C71.264,109.28 71.12,108.632 71.336,108.056 C71.768,106.904 71.264,105.896 71.048,104.816 C70.688,103.232 70.328,101.576 69.896,99.992 C68.888,96.32 68.312,92.648 67.016,89.12 C66.656,87.896 66.224,86.744 65.792,85.592 C65.36,84.224 65.072,84.008 63.704,84.224 C63.416,84.296 63.056,84.368 62.768,84.296 C62.408,84.296 62.12,84.224 61.76,84.224 C61.76,84.656 61.832,85.088 61.832,85.52 C62.048,89.696 62.192,93.8 62.552,97.976 C62.696,100.136 62.552,102.224 62.624,104.312 C62.696,105.608 62.552,106.832 62.48,108.056 C62.48,108.488 62.408,108.848 62.336,109.208 C62.048,110.144 61.76,110.36 60.752,110.36 C60.176,110.288 59.528,110.144 58.952,110.216 C58.376,110.288 57.872,110.504 57.224,110.648 Z M61.616,81.2 C62.912,81.272 63.416,81.128 64.856,80.48 C66.368,79.832 67.736,78.896 68.816,77.744 C70.04,76.304 70.976,74.648 71.696,72.848 C71.984,72.272 72.2,71.624 72.416,70.976 C72.992,69.464 72.776,67.808 72.632,66.152 C72.416,63.272 71.048,61.112 68.6,59.672 C68.024,59.312 67.448,58.952 66.872,58.736 C64.928,58.088 62.912,57.872 60.968,57.728 C60.32,57.728 60.176,57.872 60.248,58.52 C60.32,59.24 60.464,59.96 60.536,60.68 C61.04,64.424 61.04,68.096 61.184,71.84 C61.256,74.72 61.328,77.6 61.472,80.48 C61.472,80.768 61.544,80.984 61.616,81.2 Z M86.24,73.784 C86.528,74.144 86.888,74.432 87.032,74.792 C87.392,76.088 88.328,76.952 88.76,78.248 C88.832,78.392 88.904,78.536 89.048,78.68 C90.56,80.336 91.424,82.424 92.432,84.368 C92.72,85.016 93.08,85.592 93.368,86.24 C93.512,86.384 93.584,86.528 93.656,86.672 C94.016,87.752 94.232,87.896 95.24,87.896 C95.672,87.896 96.176,87.824 96.608,87.68 C98.336,86.888 99.632,85.448 101.072,84.296 C101.864,83.648 102.008,82.928 101.648,81.992 C101.504,81.776 101.576,81.344 101.72,81.056 C103.088,78.464 104.24,75.8 105.392,73.064 C105.536,72.704 105.608,72.344 106.112,72.128 C106.112,72.992 106.112,73.856 105.968,74.648 C105.824,76.16 105.68,77.744 105.464,79.256 C105.464,79.328 105.536,79.4 105.464,79.472 C104.672,81.632 105.104,83.864 104.816,86.024 C104.456,88.04 104.528,90.128 104.6,92.144 C104.6,92.36 104.6,92.576 104.528,92.792 C104.312,95.384 104.384,97.976 104.456,100.496 C104.528,102.224 104.24,103.952 104.096,105.68 C104.024,106.976 104.312,108.128 104.744,109.208 C105.752,109.424 106.688,109.64 107.552,109.64 C108.848,109.64 110.144,109.424 111.44,109.28 C111.728,109.28 111.944,109.136 112.232,109.136 C113.744,108.704 114.536,107.768 114.536,106.112 C114.608,104.024 114.752,101.864 114.752,99.776 C114.752,98.48 114.68,97.184 114.68,95.888 C114.68,92.144 114.752,88.472 114.752,84.728 C114.752,82.064 114.68,79.4 114.752,76.808 C114.752,75.08 114.896,73.352 114.896,71.624 C114.896,69.824 114.752,68.024 114.824,66.224 C114.824,63.92 114.968,61.616 115.04,59.24 C115.112,58.16 115.04,57.008 115.04,55.856 C115.04,55.424 114.824,55.136 114.32,55.064 C113.816,54.992 113.24,54.632 112.736,54.776 C111.224,55.208 109.712,55.712 108.848,57.296 C108.2,58.592 107.48,59.816 106.76,61.04 C105.896,62.624 105.104,64.28 104.24,65.864 C104.096,66.008 104.096,66.224 103.952,66.368 C102.368,69.032 101.144,71.84 99.776,74.576 C99.2,75.8 98.48,76.88 97.832,78.176 C97.544,77.744 97.328,77.456 97.112,77.024 C95.888,74.288 94.592,71.552 93.368,68.816 C92.936,67.808 92.72,66.656 92.288,65.576 C91.784,64.352 91.28,63.128 90.704,61.904 C90.488,61.4 90.272,60.824 90.056,60.248 C89.336,58.808 88.688,57.224 87.896,55.784 C87.68,55.424 87.104,54.992 86.672,54.992 C86.096,54.992 85.52,54.92 84.944,54.776 C83.792,54.488 82.856,55.208 82.208,55.928 C81.704,56.36 81.56,57.224 81.488,57.944 C81.344,61.472 81.2,64.928 81.128,68.456 C81.056,69.32 81.056,70.112 81.056,70.976 C80.984,73.496 80.84,76.088 80.84,78.608 C80.912,82.352 81.2,86.024 81.344,89.768 C81.344,90.992 81.272,92.288 81.272,93.512 C81.2,94.088 81.344,94.736 81.272,95.312 C81.272,97.328 81.272,99.344 81.2,101.288 C81.128,103.088 80.984,104.816 81.272,106.544 C81.416,107.408 81.056,108.416 81.56,109.28 C81.632,109.352 81.632,109.496 81.704,109.64 C83.288,110 84.728,109.424 85.952,108.488 C86.24,108.2 86.528,107.696 86.528,107.264 C86.528,106.472 86.744,105.68 86.456,104.96 C86.312,104.672 86.384,104.24 86.384,103.808 L86.384,101.288 C86.384,100.208 86.528,99.2 86.528,98.12 C86.6,97.4 86.456,96.608 86.456,95.888 C86.456,94.232 86.384,92.648 86.384,90.992 L86.168,85.592 C86.096,83.72 86.024,81.848 85.952,80.048 C85.88,78.32 85.88,76.52 85.88,74.792 C85.88,74.504 85.952,74.144 86.024,73.856 C86.096,73.856 86.168,73.784 86.24,73.784 Z M131.528,94.808 C130.448,94.808 129.44,94.88 128.504,94.808 C127.568,94.808 126.632,94.664 125.624,94.592 C125.552,94.808 125.408,94.952 125.408,95.168 C125.192,96.608 124.976,97.976 124.832,99.416 C124.544,101.576 124.328,103.664 124.112,105.824 C124.04,106.472 123.968,107.12 123.896,107.696 C123.824,109.208 123.248,109.784 121.736,109.928 C121.304,109.928 120.872,110 120.44,110 C119.576,110 118.856,109.496 118.784,108.704 C118.64,107.984 118.64,107.336 118.712,106.616 C118.928,105.392 119.144,104.168 119.288,102.872 C119.648,100.352 120.008,97.832 120.296,95.312 C120.8,91.712 121.232,88.184 121.664,84.584 L122.744,76.16 C123.176,73.136 123.68,70.184 124.112,67.16 C124.328,65.936 124.688,64.64 124.832,63.416 C125.12,60.824 125.264,58.232 125.552,55.64 C125.624,55.136 125.84,54.56 126.056,53.912 C127.352,54.128 128.504,54.272 129.728,54.416 C130.016,54.488 130.304,54.56 130.52,54.488 C131.168,54.128 131.6,54.416 132.032,54.92 C132.968,54.272 134.12,54.416 135.2,54.488 C136.208,54.56 136.928,55.352 137.072,56.504 L137.936,63.2 C138.152,64.496 138.224,65.864 138.368,67.232 C138.656,70.472 138.944,73.784 139.232,77.024 C139.376,78.536 139.736,80.048 140.024,81.488 C140.312,83.576 140.6,85.664 140.96,87.752 C141.32,89.984 141.824,92.288 141.968,94.592 C142.184,96.536 142.544,98.48 142.832,100.424 C143.192,102.44 143.696,104.456 144.056,106.544 C144.2,107.192 144.2,107.912 144.2,108.632 C144.2,108.848 143.984,109.136 143.768,109.208 C143.192,109.424 142.616,109.568 142.04,109.568 C139.808,109.568 137.576,109.496 135.344,109.424 C135.056,109.424 134.84,109.424 134.624,109.352 C134.336,109.136 133.832,108.848 133.76,108.56 C133.472,107.48 132.824,106.472 132.824,105.32 C132.824,104.24 132.752,103.232 132.68,102.152 C132.68,101.576 132.68,101.072 132.536,100.496 C132.32,98.84 132.032,97.184 131.744,95.528 C131.744,95.312 131.672,95.096 131.528,94.808 Z M131.168,91.496 C130.952,88.472 130.592,85.448 130.016,82.496 C129.728,80.984 129.584,79.472 129.512,78.032 C129.368,76.088 129.368,74.216 129.368,72.344 C129.368,70.616 129.44,68.888 129.44,67.16 C129.44,66.944 129.296,66.728 129.224,66.512 C127.568,74.72 127.28,83.144 126.056,91.496 C127.784,91.712 129.44,91.64 131.168,91.496 Z M134.912,81.128 L134.984,81.128 C134.984,80.912 134.912,80.768 134.912,80.552 L134.84,80.552 C134.84,80.768 134.84,80.912 134.912,81.128 Z M164.144,104.744 C162.56,104.456 162.632,102.8 161.552,102.224 C161.696,101.288 160.904,100.64 160.688,99.848 C159.968,97.616 159.536,95.384 159.32,93.08 C159.032,89.912 159.32,86.744 159.68,83.576 C159.824,82.64 159.968,81.704 159.968,80.768 C159.968,77.744 160.112,74.792 160.832,71.84 C160.904,71.624 160.832,71.408 160.904,71.12 C160.976,70.688 160.976,70.184 161.12,69.68 C161.336,68.816 161.696,68.024 161.984,67.16 C162.416,66.08 162.704,64.928 163.208,63.848 C163.784,62.696 164.144,61.328 165.368,60.608 C165.512,59.888 166.16,59.6 166.664,59.24 C167.024,58.88 167.528,58.952 167.816,59.384 C168.248,59.96 168.752,60.536 169.04,61.184 C169.76,62.768 170.12,64.496 170.192,66.224 C170.192,66.8 170.264,67.376 170.264,67.952 L170.264,69.752 C170.264,70.184 170.264,70.616 170.696,70.976 C171.416,71.552 172.064,72.272 172.784,72.848 C173.144,73.136 173.864,73.136 174.152,72.704 C174.44,72.344 174.8,71.84 174.8,71.336 C174.944,70.4 174.944,69.392 174.872,68.384 C174.872,67.664 174.728,66.872 174.584,66.152 C174.152,64.352 173.792,62.408 173.144,60.68 C172.28,58.376 170.408,56.936 168.392,55.784 C167.312,55.136 166.16,54.776 164.864,54.704 C164.288,54.704 163.64,54.344 163.064,54.416 C161.408,54.56 159.752,54.92 158.384,55.928 C157.232,56.72 156.152,57.728 155,58.664 C154.928,58.736 154.928,58.88 154.856,58.952 C154.496,59.528 154.208,60.104 153.776,60.68 C152.624,62.264 151.544,63.92 150.968,65.864 C150.32,67.808 149.528,69.752 149.168,71.768 C149.096,72.488 149.096,73.208 148.88,73.928 C148.088,76.88 148.088,79.904 147.944,82.928 C147.8,84.656 147.872,86.384 147.872,88.112 C147.872,89.768 147.728,91.424 147.944,93.008 C148.232,94.736 148.592,96.464 148.952,98.192 C149.24,99.848 150.032,101.144 150.68,102.656 C150.968,103.304 151.4,103.952 151.904,104.528 C153.488,106.472 155.504,107.912 157.88,108.704 C158.96,108.992 160.04,109.352 161.192,109.64 C161.768,109.784 162.416,110 162.992,110 C163.784,109.928 164.576,109.712 165.296,109.424 C166.16,109.064 167.024,108.56 167.456,107.696 C167.672,107.264 167.888,106.976 168.248,106.832 C169.328,106.328 170.048,105.608 170.48,104.528 C170.624,104.168 170.984,103.808 171.272,103.448 C171.344,103.376 171.416,103.232 171.488,103.088 C171.92,102.008 172.28,100.928 172.64,99.848 C173.36,98.048 173.648,96.176 173.864,94.304 C174.008,93.656 173.864,92.936 173.216,92.432 C172.064,91.352 171.272,91.208 169.616,91.928 C169.544,92.504 169.4,93.008 169.328,93.584 C169.04,94.88 168.824,96.176 168.464,97.472 C168.248,98.408 167.816,99.272 167.456,100.208 C167.384,100.424 167.312,100.568 167.24,100.784 C166.448,102.296 165.08,103.376 164.144,104.744 Z M178.616,94.808 L178.616,91.208 C178.616,89.408 178.616,87.608 178.688,85.808 C178.832,83.648 178.976,81.488 179.192,79.328 C179.264,78.176 179.336,77.024 179.48,75.872 C179.84,73.064 180.056,70.256 180.56,67.52 C180.848,66.008 181.424,64.568 182.072,63.128 C182.576,61.904 183.224,60.752 183.872,59.6 C184.52,58.376 185.528,57.368 186.752,56.648 C187.544,56.216 188.264,55.568 189.056,55.136 C189.92,54.776 190.856,54.56 191.792,54.416 C193.232,54.344 194.744,54.344 196.184,54.344 C196.544,54.344 197.048,54.272 197.264,54.776 C197.264,54.92 197.84,54.704 198.056,54.848 C198.488,55.208 199.064,55.28 199.64,55.28 C199.856,55.28 200.072,55.496 200.288,55.64 C200.792,56.072 201.152,56.576 201.728,56.864 C202.952,57.584 203.744,58.664 204.176,59.888 C204.824,61.616 205.4,63.416 205.76,65.144 C206.12,66.8 206.12,68.528 206.264,70.256 C206.48,72.056 206.624,73.856 206.696,75.656 C206.768,77.744 206.984,79.832 206.84,81.92 C206.696,83.432 206.84,84.944 206.768,86.528 C206.624,88.688 206.408,90.848 206.264,93.08 C206.12,95.024 205.544,96.824 205.184,98.696 C204.896,100.28 204.248,101.72 203.456,103.016 C202.376,104.672 201.224,106.4 199.784,107.84 C198.56,108.92 197.12,109.568 195.464,109.496 C194.6,109.424 193.808,109.496 193.016,109.856 C192.44,110.144 191.72,110.144 191.072,109.928 C189.776,109.496 188.552,109.136 187.256,108.848 C186.032,108.56 185.168,107.624 184.016,107.12 C182.288,106.328 181.712,104.528 180.416,103.304 C179.84,102.8 179.624,101.72 179.408,100.856 C178.832,98.912 178.4,96.896 178.616,94.808 Z M193.448,105.824 C193.808,105.464 194.24,105.104 194.528,104.744 C195.464,103.52 195.968,102.152 196.4,100.712 C197.264,98.336 197.264,95.96 197.552,93.584 C197.768,91.856 197.768,90.2 197.84,88.472 C197.912,87.536 197.984,86.672 198.056,85.808 C198.2,83.144 198.488,80.552 198.344,77.96 C198.272,77.384 198.2,76.808 198.272,76.232 C198.416,71.912 198.128,67.52 197.768,63.128 C197.696,61.832 197.48,60.464 196.832,59.312 C196.184,58.232 194.96,58.088 194.24,59.024 C193.448,59.96 192.656,60.968 192.08,62.048 C190.712,64.496 189.92,67.16 189.848,70.04 C189.776,72.56 189.848,75.08 189.416,77.672 C188.912,80.84 188.624,84.08 188.84,87.392 C189.056,90.488 188.984,93.584 189.128,96.68 C189.272,98.48 189.488,100.28 189.848,102.08 C190.136,103.232 190.568,104.384 191.648,105.032 C192.224,105.32 192.8,105.536 193.448,105.824 Z M220.376,107.048 C220.232,106.544 220.088,106.04 220.016,105.536 C219.944,104.24 219.8,103.016 219.8,101.72 C219.728,99.92 219.8,98.12 219.656,96.392 C219.512,93.08 219.224,89.84 219.08,86.6 C218.936,84.152 218.864,81.704 218.792,79.328 C218.792,77.672 218.936,76.088 219.008,74.504 C219.008,73.208 219.152,71.84 219.152,70.544 L218.936,60.608 C218.864,59.024 218.792,57.44 218.792,55.784 C218.72,55.28 218.648,54.704 218.144,54.416 C217.568,54.128 216.92,53.768 216.272,53.768 C214.688,53.696 213.104,53.768 211.52,53.408 L211.16,53.408 C210.728,53.408 210.512,53.624 210.512,53.984 C210.512,55.136 210.512,56.216 210.584,57.296 C210.656,59.168 210.944,61.112 210.872,62.984 C210.728,66.296 210.656,69.608 210.872,72.992 C210.944,74 210.872,75.008 210.944,76.016 C211.088,77.528 211.16,79.112 211.376,80.624 C211.52,82.424 211.16,84.08 211.376,85.808 C211.664,88.256 211.592,90.632 211.592,93.08 C211.664,93.584 211.52,94.088 211.52,94.664 C211.52,95.6 211.592,96.608 211.592,97.544 L211.808,106.184 C211.88,106.904 211.88,107.552 211.016,107.912 C211.52,108.488 212.024,108.92 212.312,109.496 C212.888,110.648 213.968,110.792 214.904,110.936 C215.984,111.152 217.136,111.008 218.288,111.008 C220.664,110.864 222.968,110.792 225.344,110.648 C226.064,110.576 226.784,110.432 227.432,110.576 C228.152,110.72 228.728,110.72 229.376,110.648 C230.024,110.432 230.672,110.144 231.392,110.144 C232.328,110.144 232.616,109.496 232.688,108.92 C232.76,108.056 233.336,107.264 232.832,106.4 C233.192,104.672 232.4,102.8 232.832,101.072 C232.904,101 232.832,100.856 232.832,100.784 C232.472,99.056 230.96,98.192 229.304,98.84 C228.512,99.128 228.368,99.344 228.44,99.992 C228.512,101.648 228.584,103.376 228.656,105.032 C228.656,105.824 227.936,106.688 227.216,106.688 C225.128,106.616 223.112,106.976 221.096,107.12 C220.88,107.12 220.664,107.12 220.376,107.048 Z M245.648,79.184 C245.648,78.824 245.576,78.608 245.576,78.32 L245.36,69.68 C245.288,67.016 245.216,64.28 245.144,61.616 C245.144,60.608 245.072,59.6 245.072,58.592 C245.072,57.8 245.288,57.584 246.152,57.656 C246.8,57.656 247.448,57.728 248.024,57.728 C249.68,57.728 251.408,57.728 253.064,57.656 C253.424,57.656 253.784,57.728 254.144,57.728 C255.296,57.656 256.016,57.152 256.448,56 C256.52,55.712 256.376,55.28 256.232,55.064 C255.728,54.488 255.08,54.056 254.36,54.056 C252.848,54.056 251.336,54.056 249.824,54.128 C247.304,54.128 244.784,54.2 242.264,54.272 C241.328,54.272 240.464,54.2 239.528,54.2 C239.024,54.272 238.736,54.56 238.664,55.064 C238.592,55.712 238.52,56.288 238.448,56.936 C238.376,59.816 238.232,62.696 238.16,65.576 C238.016,67.664 237.872,69.752 237.8,71.912 C237.656,74.936 237.728,77.96 237.656,81.056 C237.584,84.368 237.44,87.68 237.368,91.064 C237.296,94.664 237.512,98.264 237.008,101.792 C236.936,102.368 237.008,102.944 236.864,103.52 C236.576,104.456 236.792,105.32 236.936,106.256 C236.936,106.76 237.152,107.192 237.152,107.696 C237.296,108.632 237.656,109.496 238.448,110 C239.096,110.504 239.816,111.224 240.824,110.648 C241.112,110.504 241.544,110.648 241.832,110.648 C242.48,110.576 243.128,110.576 243.776,110.504 C245,110.432 246.152,110.36 247.376,110.216 C248.816,110.072 250.256,109.784 251.768,109.568 C252.056,109.568 252.416,109.496 252.704,109.568 C253.856,109.784 254.72,109.424 255.224,108.416 C255.296,108.344 255.296,108.128 255.44,108.056 C255.944,107.552 255.656,107.12 255.368,106.76 C254.432,105.608 252.56,105.104 251.192,105.68 C250.04,106.184 248.888,106.4 247.664,106.472 C246.8,106.544 245.864,107.048 244.928,106.616 C244.712,103.52 244.568,86.456 245.432,82.856 C246.872,82.64 248.456,82.28 249.968,82.352 C250.544,82.352 251.12,82.208 251.624,82.064 C253.136,81.488 253.424,80.048 252.128,79.04 C251.84,78.896 251.48,78.752 251.192,78.752 C249.824,78.752 248.456,78.536 247.16,79.04 C246.728,79.184 246.224,79.112 245.648,79.184 Z" id="Permacole"></path>
                    <path d="M53.332,36.032 C53.236,35.696 53.14,35.36 53.092,35.024 C53.044,34.16 52.948,33.344 52.948,32.48 C52.9,31.28 52.948,30.08 52.852,28.928 C52.756,26.72 52.564,24.56 52.468,22.4 C52.372,20.768 52.324,19.136 52.276,17.552 C52.276,16.448 52.372,15.392 52.42,14.336 C52.42,13.472 52.516,12.56 52.516,11.696 L52.372,5.072 C52.324,4.016 52.276,2.96 52.276,1.856 C52.228,1.52 52.18,1.136 51.844,0.944 C51.46,0.752 51.028,0.512 50.596,0.512 C49.54,0.464 48.484,0.512 47.428,0.272 L47.188,0.272 C46.9,0.272 46.756,0.416 46.756,0.656 C46.756,1.424 46.756,2.144 46.804,2.864 C46.852,4.112 47.044,5.408 46.996,6.656 C46.9,8.864 46.852,11.072 46.996,13.328 C47.044,14 46.996,14.672 47.044,15.344 C47.14,16.352 47.188,17.408 47.332,18.416 C47.428,19.616 47.188,20.72 47.332,21.872 C47.524,23.504 47.476,25.088 47.476,26.72 C47.524,27.056 47.428,27.392 47.428,27.776 C47.428,28.4 47.476,29.072 47.476,29.696 L47.62,35.456 C47.668,35.936 47.668,36.368 47.092,36.608 C47.428,36.992 47.764,37.28 47.956,37.664 C48.34,38.432 49.06,38.528 49.684,38.624 C50.404,38.768 51.172,38.672 51.94,38.672 C53.524,38.576 55.06,38.528 56.644,38.432 C57.124,38.384 57.604,38.288 58.036,38.384 C58.516,38.48 58.9,38.48 59.332,38.432 C59.764,38.288 60.196,38.096 60.676,38.096 C61.3,38.096 61.492,37.664 61.54,37.28 C61.588,36.704 61.972,36.176 61.636,35.6 C61.876,34.448 61.348,33.2 61.636,32.048 C61.684,32 61.636,31.904 61.636,31.856 C61.396,30.704 60.388,30.128 59.284,30.56 C58.756,30.752 58.66,30.896 58.708,31.328 C58.756,32.432 58.804,33.584 58.852,34.688 C58.852,35.216 58.372,35.792 57.892,35.792 C56.5,35.744 55.156,35.984 53.812,36.08 C53.668,36.08 53.524,36.08 53.332,36.032 Z M70.18,17.456 C70.18,17.216 70.132,17.072 70.132,16.88 L69.988,11.12 C69.94,9.344 69.892,7.52 69.844,5.744 C69.844,5.072 69.796,4.4 69.796,3.728 C69.796,3.2 69.94,3.056 70.516,3.104 C70.948,3.104 71.38,3.152 71.764,3.152 C72.868,3.152 74.02,3.152 75.124,3.104 C75.364,3.104 75.604,3.152 75.844,3.152 C76.612,3.104 77.092,2.768 77.38,2 C77.428,1.808 77.332,1.52 77.236,1.376 C76.9,0.992 76.468,0.704 75.988,0.704 C74.98,0.704 73.972,0.704 72.964,0.752 C71.284,0.752 69.604,0.8 67.924,0.848 C67.3,0.848 66.724,0.8 66.1,0.8 C65.764,0.848 65.572,1.04 65.524,1.376 C65.476,1.808 65.428,2.192 65.38,2.624 C65.332,4.544 65.236,6.464 65.188,8.384 C65.092,9.776 64.996,11.168 64.948,12.608 C64.852,14.624 64.9,16.64 64.852,18.704 C64.804,20.912 64.708,23.12 64.66,25.376 C64.612,27.776 64.756,30.176 64.42,32.528 C64.372,32.912 64.42,33.296 64.324,33.68 C64.132,34.304 64.276,34.88 64.372,35.504 C64.372,35.84 64.516,36.128 64.516,36.464 C64.612,37.088 64.852,37.664 65.38,38 C65.812,38.336 66.292,38.816 66.964,38.432 C67.156,38.336 67.444,38.432 67.636,38.432 C68.068,38.384 68.5,38.384 68.932,38.336 C69.748,38.288 70.516,38.24 71.332,38.144 C72.292,38.048 73.252,37.856 74.26,37.712 C74.452,37.712 74.692,37.664 74.884,37.712 C75.652,37.856 76.228,37.616 76.564,36.944 C76.612,36.896 76.612,36.752 76.708,36.704 C77.044,36.368 76.852,36.08 76.66,35.84 C76.036,35.072 74.788,34.736 73.876,35.12 C73.108,35.456 72.34,35.6 71.524,35.648 C70.948,35.696 70.324,36.032 69.7,35.744 C69.556,33.68 69.46,22.304 70.036,19.904 C70.996,19.76 72.052,19.52 73.06,19.568 C73.444,19.568 73.828,19.472 74.164,19.376 C75.172,18.992 75.364,18.032 74.5,17.36 C74.308,17.264 74.068,17.168 73.876,17.168 C72.964,17.168 72.052,17.024 71.188,17.36 C70.9,17.456 70.564,17.408 70.18,17.456 Z M94.42,1.568 C94.66,2.72 94.852,3.776 95.044,4.832 C95.044,4.928 95.092,5.024 95.14,5.12 L95.572,6.992 C95.668,7.472 95.764,8 95.86,8.48 C96.148,9.68 96.484,10.928 96.772,12.128 L97.78,15.728 C98.116,16.928 98.404,18.128 98.74,19.28 C98.836,19.664 98.932,20 99.028,20.384 C99.22,21.248 99.46,22.064 99.7,22.928 L101.14,28.112 C101.188,28.304 101.284,28.496 101.38,28.736 C101.524,28.976 101.62,29.264 101.716,29.504 C102.148,31.328 102.58,33.104 102.964,34.88 C103.156,35.648 103.636,36.32 103.972,36.992 C104.068,37.184 104.308,37.328 104.548,37.424 C105.268,37.664 106.036,37.904 106.804,37.76 C107.092,37.712 107.38,37.712 107.668,37.76 C108.58,37.856 109.06,37.664 109.3,36.848 C109.636,35.744 110.068,34.688 110.26,33.536 C110.404,32.432 110.74,31.376 111.076,30.32 C111.316,29.36 111.604,28.448 111.892,27.536 C112.084,26.864 112.228,26.192 112.42,25.52 C112.66,24.656 112.948,23.792 113.188,22.88 C113.476,21.632 113.572,20.336 113.956,19.136 C114.484,17.6 114.676,15.92 115.252,14.384 C115.732,13.184 115.972,11.84 116.308,10.592 C116.452,10.016 116.644,9.488 116.74,8.912 C116.98,7.616 117.412,6.416 118.132,5.36 C118.276,5.216 118.324,5.024 118.372,4.832 C118.516,4.304 118.66,3.728 118.804,3.2 C118.948,2.432 118.564,1.808 117.748,1.472 C117.556,1.376 117.364,1.328 117.172,1.28 C116.644,1.04 115.348,1.664 115.204,2.096 C115.06,2.672 114.868,3.248 114.676,3.776 C114.34,5.024 113.956,6.224 113.62,7.424 C113.284,8.48 112.948,9.536 112.66,10.592 C112.228,12.224 111.892,13.856 111.46,15.44 C111.364,15.968 111.22,16.496 111.076,16.976 C110.836,17.984 110.5,18.896 110.26,19.904 C109.732,22.016 109.204,24.176 108.676,26.288 C108.628,26.528 108.628,26.864 108.244,26.96 C108.052,26.336 107.908,25.76 107.716,25.184 C107.236,23.744 106.708,22.352 106.276,20.912 C105.892,19.616 105.604,18.272 105.076,16.976 C105.028,16.88 105.028,16.784 104.98,16.688 C104.692,15.488 104.404,14.288 104.02,13.088 C103.684,12.032 103.252,10.976 102.916,9.872 C102.196,7.664 101.476,5.456 100.804,3.248 C100.564,2.576 100.276,1.856 100.036,1.136 C99.94,0.848 99.748,0.752 99.412,0.704 C98.548,0.656 97.732,0.848 96.964,1.184 C96.772,1.232 96.676,1.28 96.436,1.328 C95.764,1.376 95.092,1.472 94.42,1.568 Z M127.252,17.456 C127.252,17.216 127.204,17.072 127.204,16.88 L127.06,11.12 C127.012,9.344 126.964,7.52 126.916,5.744 C126.916,5.072 126.868,4.4 126.868,3.728 C126.868,3.2 127.012,3.056 127.588,3.104 C128.02,3.104 128.452,3.152 128.836,3.152 C129.94,3.152 131.092,3.152 132.196,3.104 C132.436,3.104 132.676,3.152 132.916,3.152 C133.684,3.104 134.164,2.768 134.452,2 C134.5,1.808 134.404,1.52 134.308,1.376 C133.972,0.992 133.54,0.704 133.06,0.704 C132.052,0.704 131.044,0.704 130.036,0.752 C128.356,0.752 126.676,0.8 124.996,0.848 C124.372,0.848 123.796,0.8 123.172,0.8 C122.836,0.848 122.644,1.04 122.596,1.376 C122.548,1.808 122.5,2.192 122.452,2.624 C122.404,4.544 122.308,6.464 122.26,8.384 C122.164,9.776 122.068,11.168 122.02,12.608 C121.924,14.624 121.972,16.64 121.924,18.704 C121.876,20.912 121.78,23.12 121.732,25.376 C121.684,27.776 121.828,30.176 121.492,32.528 C121.444,32.912 121.492,33.296 121.396,33.68 C121.204,34.304 121.348,34.88 121.444,35.504 C121.444,35.84 121.588,36.128 121.588,36.464 C121.684,37.088 121.924,37.664 122.452,38 C122.884,38.336 123.364,38.816 124.036,38.432 C124.228,38.336 124.516,38.432 124.708,38.432 C125.14,38.384 125.572,38.384 126.004,38.336 C126.82,38.288 127.588,38.24 128.404,38.144 C129.364,38.048 130.324,37.856 131.332,37.712 C131.524,37.712 131.764,37.664 131.956,37.712 C132.724,37.856 133.3,37.616 133.636,36.944 C133.684,36.896 133.684,36.752 133.78,36.704 C134.116,36.368 133.924,36.08 133.732,35.84 C133.108,35.072 131.86,34.736 130.948,35.12 C130.18,35.456 129.412,35.6 128.596,35.648 C128.02,35.696 127.396,36.032 126.772,35.744 C126.628,33.68 126.532,22.304 127.108,19.904 C128.068,19.76 129.124,19.52 130.132,19.568 C130.516,19.568 130.9,19.472 131.236,19.376 C132.244,18.992 132.436,18.032 131.572,17.36 C131.38,17.264 131.14,17.168 130.948,17.168 C130.036,17.168 129.124,17.024 128.26,17.36 C127.972,17.456 127.636,17.408 127.252,17.456 Z M141.508,38.432 C141.316,38.336 141.076,38.192 140.788,38.096 C140.596,38.048 140.356,38 140.164,38.096 C139.636,38.24 139.108,38.192 138.676,37.76 C138.292,37.376 137.668,37.136 137.524,36.464 C137.476,36.32 137.428,36.176 137.428,36.032 C137.428,34.64 137.476,33.296 137.524,31.952 C137.524,31.328 137.62,30.752 137.62,30.128 C137.62,28.496 137.668,26.912 137.62,25.28 C137.62,23.312 137.524,21.344 137.476,19.328 C137.428,17.504 137.38,15.632 137.332,13.808 C137.332,12.416 137.38,11.024 137.38,9.632 C137.332,8.528 137.332,7.472 137.236,6.416 C137.188,5.312 137.044,4.256 136.948,3.2 C136.9,2.288 136.9,2.288 136.42,1.52 C136.708,0.608 137.524,0.656 138.196,0.56 C138.724,0.512 139.252,0.656 139.732,0.656 L142.852,0.656 C144.196,0.656 145.54,0.944 146.884,1.184 C148.756,1.568 150.292,2.624 151.78,3.824 C152.98,4.736 153.604,6.08 154.18,7.376 C154.804,8.672 154.708,10.016 154.804,11.36 C154.9,12.56 154.42,13.568 154.036,14.672 C153.652,15.68 152.98,16.496 152.452,17.408 C152.308,17.696 152.02,17.888 151.78,18.128 L151.684,18.128 C151.012,18.992 150.292,19.712 149.284,20.096 L150.34,23.264 C150.532,23.792 150.724,24.224 150.916,24.704 C151.156,25.328 151.396,25.904 151.588,26.528 C151.828,27.296 152.02,28.016 152.164,28.784 C152.452,30.656 153.124,32.432 153.556,34.256 C153.652,34.496 153.652,34.784 153.7,35.072 C153.892,36.032 154.084,36.992 154.324,38 C153.316,38.336 152.26,37.952 151.252,37.904 C150.868,37.52 150.772,37.088 150.916,36.704 C151.204,35.936 150.868,35.264 150.724,34.544 C150.484,33.488 150.244,32.384 149.956,31.328 C149.284,28.88 148.9,26.432 148.036,24.08 C147.796,23.264 147.508,22.496 147.22,21.728 C146.932,20.816 146.74,20.672 145.828,20.816 C145.636,20.864 145.396,20.912 145.204,20.864 C144.964,20.864 144.772,20.816 144.532,20.816 C144.532,21.104 144.58,21.392 144.58,21.68 C144.724,24.464 144.82,27.2 145.06,29.984 C145.156,31.424 145.06,32.816 145.108,34.208 C145.156,35.072 145.06,35.888 145.012,36.704 C145.012,36.992 144.964,37.232 144.916,37.472 C144.724,38.096 144.532,38.24 143.86,38.24 C143.476,38.192 143.044,38.096 142.66,38.144 C142.276,38.192 141.94,38.336 141.508,38.432 Z M144.436,18.8 C145.3,18.848 145.636,18.752 146.596,18.32 C147.604,17.888 148.516,17.264 149.236,16.496 C150.052,15.536 150.676,14.432 151.156,13.232 C151.348,12.848 151.492,12.416 151.636,11.984 C152.02,10.976 151.876,9.872 151.78,8.768 C151.636,6.848 150.724,5.408 149.092,4.448 C148.708,4.208 148.324,3.968 147.94,3.824 C146.644,3.392 145.3,3.248 144.004,3.152 C143.572,3.152 143.476,3.248 143.524,3.68 C143.572,4.16 143.668,4.64 143.716,5.12 C144.052,7.616 144.052,10.064 144.148,12.56 C144.196,14.48 144.244,16.4 144.34,18.32 C144.34,18.512 144.388,18.656 144.436,18.8 Z M170.26,4.544 C170.404,4.928 170.692,5.312 170.74,5.744 C170.836,6.944 170.932,8.144 170.836,9.344 C170.788,10.496 170.548,11.648 170.404,12.8 C170.356,13.184 170.452,13.52 170.74,13.808 C170.98,14.096 171.268,14.288 171.556,14.528 C171.988,14.912 172.468,15.008 172.948,14.72 C173.428,14.48 173.86,14.192 173.86,13.52 C173.86,12.656 173.86,11.744 174.052,10.928 C174.388,9.392 174.148,7.808 174.052,6.272 C173.956,5.312 173.572,4.448 172.996,3.68 C172.756,3.296 172.564,2.912 172.276,2.528 C172.084,2.384 171.844,2.24 171.604,2.192 C171.22,2 170.788,1.952 170.404,1.808 C169.54,1.376 168.724,1.232 167.764,1.28 C166.468,1.328 165.316,1.952 164.212,2.48 C162.916,3.008 162.196,4.208 161.428,5.264 C161.188,5.6 160.9,5.888 160.708,6.224 C160.324,6.944 159.988,7.664 159.7,8.432 C159.412,9.248 159.124,10.112 158.884,10.976 C158.5,12.416 158.116,13.904 157.828,15.44 C157.636,16.448 157.588,17.504 157.492,18.56 C157.444,19.136 157.54,19.712 157.492,20.288 C157.444,21.2 157.348,22.112 157.252,23.024 C157.252,23.168 157.3,23.312 157.3,23.456 C157.348,23.888 157.444,24.368 157.492,24.8 C157.54,26.288 157.684,27.776 158.02,29.264 C158.164,29.792 158.404,30.368 158.452,30.944 C158.5,31.856 158.98,32.576 159.46,33.2 C160.18,34.16 160.9,35.168 161.908,35.84 C162.052,35.936 162.196,36.272 162.34,36.272 C162.772,36.224 162.964,36.608 163.252,36.848 C163.396,36.896 163.54,37.04 163.636,37.04 C164.164,37.136 164.644,37.136 165.124,37.232 C165.7,37.376 166.276,37.376 166.804,37.28 C167.332,37.184 167.812,37.136 168.292,37.04 C168.628,36.944 168.964,36.8 169.396,36.944 C169.54,36.992 169.78,36.896 169.924,36.8 C170.164,36.704 170.356,36.56 170.548,36.416 C171.028,36.128 171.46,35.84 171.844,35.456 C172.612,34.688 173.14,33.824 173.572,32.816 C173.86,32.048 174.148,31.184 174.484,30.416 C174.676,29.888 174.772,29.408 174.58,28.928 C174.34,28.16 174.484,27.392 174.436,26.576 C174.34,25.28 174.292,23.936 173.908,22.64 C174.1,22.208 174.34,21.728 174.532,21.248 C174.196,20.624 173.668,20.24 172.948,20.24 C172.324,20.288 171.7,20.336 171.076,20.432 C170.308,20.576 169.54,20.72 168.82,20.864 C168.148,21.008 167.524,21.104 166.852,21.2 C166.324,21.344 166.18,21.728 166.564,22.208 C166.804,22.496 167.188,22.544 167.476,22.784 C167.956,23.168 168.484,23.168 169.06,23.12 C169.684,23.072 170.26,23.072 170.98,23.024 C171.028,24.272 171.076,25.424 171.076,26.576 C171.172,28.688 170.596,30.608 169.396,32.288 C169.156,32.672 168.82,33.056 168.436,33.344 C167.86,33.776 166.948,33.824 166.372,33.392 C165.892,33.056 165.412,32.624 165.076,32.144 C164.212,30.944 163.924,29.504 163.684,28.112 C163.492,26.624 163.444,25.04 163.396,23.552 C163.396,21.824 163.492,20.144 163.588,18.464 C163.588,17.936 163.732,17.36 163.78,16.832 C163.876,15.68 163.972,14.528 164.116,13.376 C164.26,12.512 164.452,11.6 164.788,10.784 C165.22,9.632 165.796,8.48 166.324,7.376 C166.9,6.224 167.668,5.264 168.916,4.736 C169.3,4.544 169.684,4.4 170.26,4.544 Z M183.124,17.456 C183.124,17.216 183.076,17.072 183.076,16.88 L182.932,11.12 C182.884,9.344 182.836,7.52 182.788,5.744 C182.788,5.072 182.74,4.4 182.74,3.728 C182.74,3.2 182.884,3.056 183.46,3.104 C183.892,3.104 184.324,3.152 184.708,3.152 C185.812,3.152 186.964,3.152 188.068,3.104 C188.308,3.104 188.548,3.152 188.788,3.152 C189.556,3.104 190.036,2.768 190.324,2 C190.372,1.808 190.276,1.52 190.18,1.376 C189.844,0.992 189.412,0.704 188.932,0.704 C187.924,0.704 186.916,0.704 185.908,0.752 C184.228,0.752 182.548,0.8 180.868,0.848 C180.244,0.848 179.668,0.8 179.044,0.8 C178.708,0.848 178.516,1.04 178.468,1.376 C178.42,1.808 178.372,2.192 178.324,2.624 C178.276,4.544 178.18,6.464 178.132,8.384 C178.036,9.776 177.94,11.168 177.892,12.608 C177.796,14.624 177.844,16.64 177.796,18.704 C177.748,20.912 177.652,23.12 177.604,25.376 C177.556,27.776 177.7,30.176 177.364,32.528 C177.316,32.912 177.364,33.296 177.268,33.68 C177.076,34.304 177.22,34.88 177.316,35.504 C177.316,35.84 177.46,36.128 177.46,36.464 C177.556,37.088 177.796,37.664 178.324,38 C178.756,38.336 179.236,38.816 179.908,38.432 C180.1,38.336 180.388,38.432 180.58,38.432 C181.012,38.384 181.444,38.384 181.876,38.336 C182.692,38.288 183.46,38.24 184.276,38.144 C185.236,38.048 186.196,37.856 187.204,37.712 C187.396,37.712 187.636,37.664 187.828,37.712 C188.596,37.856 189.172,37.616 189.508,36.944 C189.556,36.896 189.556,36.752 189.652,36.704 C189.988,36.368 189.796,36.08 189.604,35.84 C188.98,35.072 187.732,34.736 186.82,35.12 C186.052,35.456 185.284,35.6 184.468,35.648 C183.892,35.696 183.268,36.032 182.644,35.744 C182.5,33.68 182.404,22.304 182.98,19.904 C183.94,19.76 184.996,19.52 186.004,19.568 C186.388,19.568 186.772,19.472 187.108,19.376 C188.116,18.992 188.308,18.032 187.444,17.36 C187.252,17.264 187.012,17.168 186.82,17.168 C185.908,17.168 184.996,17.024 184.132,17.36 C183.844,17.456 183.508,17.408 183.124,17.456 Z M197.38,38.432 C197.188,38.336 196.948,38.192 196.66,38.096 C196.468,38.048 196.228,38 196.036,38.096 C195.508,38.24 194.98,38.192 194.548,37.76 C194.164,37.376 193.54,37.136 193.396,36.464 C193.348,36.32 193.3,36.176 193.3,36.032 C193.3,34.64 193.348,33.296 193.396,31.952 C193.396,31.328 193.492,30.752 193.492,30.128 C193.492,28.496 193.54,26.912 193.492,25.28 C193.492,23.312 193.396,21.344 193.348,19.328 C193.3,17.504 193.252,15.632 193.204,13.808 C193.204,12.416 193.252,11.024 193.252,9.632 C193.204,8.528 193.204,7.472 193.108,6.416 C193.06,5.312 192.916,4.256 192.82,3.2 C192.772,2.288 192.772,2.288 192.292,1.52 C192.58,0.608 193.396,0.656 194.068,0.56 C194.596,0.512 195.124,0.656 195.604,0.656 L198.724,0.656 C200.068,0.656 201.412,0.944 202.756,1.184 C204.628,1.568 206.164,2.624 207.652,3.824 C208.852,4.736 209.476,6.08 210.052,7.376 C210.676,8.672 210.58,10.016 210.676,11.36 C210.772,12.56 210.292,13.568 209.908,14.672 C209.524,15.68 208.852,16.496 208.324,17.408 C208.18,17.696 207.892,17.888 207.652,18.128 L207.556,18.128 C206.884,18.992 206.164,19.712 205.156,20.096 L206.212,23.264 C206.404,23.792 206.596,24.224 206.788,24.704 C207.028,25.328 207.268,25.904 207.46,26.528 C207.7,27.296 207.892,28.016 208.036,28.784 C208.324,30.656 208.996,32.432 209.428,34.256 C209.524,34.496 209.524,34.784 209.572,35.072 C209.764,36.032 209.956,36.992 210.196,38 C209.188,38.336 208.132,37.952 207.124,37.904 C206.74,37.52 206.644,37.088 206.788,36.704 C207.076,35.936 206.74,35.264 206.596,34.544 C206.356,33.488 206.116,32.384 205.828,31.328 C205.156,28.88 204.772,26.432 203.908,24.08 C203.668,23.264 203.38,22.496 203.092,21.728 C202.804,20.816 202.612,20.672 201.7,20.816 C201.508,20.864 201.268,20.912 201.076,20.864 C200.836,20.864 200.644,20.816 200.404,20.816 C200.404,21.104 200.452,21.392 200.452,21.68 C200.596,24.464 200.692,27.2 200.932,29.984 C201.028,31.424 200.932,32.816 200.98,34.208 C201.028,35.072 200.932,35.888 200.884,36.704 C200.884,36.992 200.836,37.232 200.788,37.472 C200.596,38.096 200.404,38.24 199.732,38.24 C199.348,38.192 198.916,38.096 198.532,38.144 C198.148,38.192 197.812,38.336 197.38,38.432 Z M200.308,18.8 C201.172,18.848 201.508,18.752 202.468,18.32 C203.476,17.888 204.388,17.264 205.108,16.496 C205.924,15.536 206.548,14.432 207.028,13.232 C207.22,12.848 207.364,12.416 207.508,11.984 C207.892,10.976 207.748,9.872 207.652,8.768 C207.508,6.848 206.596,5.408 204.964,4.448 C204.58,4.208 204.196,3.968 203.812,3.824 C202.516,3.392 201.172,3.248 199.876,3.152 C199.444,3.152 199.348,3.248 199.396,3.68 C199.444,4.16 199.54,4.64 199.588,5.12 C199.924,7.616 199.924,10.064 200.02,12.56 C200.068,14.48 200.116,16.4 200.212,18.32 C200.212,18.512 200.26,18.656 200.308,18.8 Z" id="Le-Verger"></path>
                </g>
            </g>
        </g>
    </g>
</svg>