<?xml version="1.0" encoding="UTF-8" standalone="no"?>
<svg width="248px" height="209px" viewBox="0 0 248 209" version="1.1" xmlns="http://www.w3.org/2000/svg" xmlns:xlink="http://www.w3.org/1999/xlink">
    <!-- Generator: Sketch 43.2 (39069) - http://www.bohemiancoding.com/sketch -->
    <title>logo</title>
    <desc>Created with Sketch.</desc>
    <defs></defs>
    <g id="Page-1" stroke="none" stroke-width="1" fill="none" fill-rule="evenodd">
        <g id="seedsStock" transform="translate(-104.000000, -16.000000)">
            <g id="logo" transform="translate(101.000000, 16.000000)">
                <rect id="Rectangle" x="0" y="14" width="300" height="150"></rect>
                <path d="M15.2167373,53.6141157 L6.70235402,51.3259823 C4.03554973,50.6093123 2.4546536,47.8664643 3.17132369,45.1996601 C3.79843162,42.8661259 5.97693882,41.3640475 8.29837562,41.5052249 C8.47620379,40.1737739 9.18683009,38.9173054 10.3707012,38.0814454 C12.6265284,36.4887419 15.7463791,37.0263098 17.3390826,39.2821371 L21.3016773,44.8945621 L73.1088225,58.8170802 L80.1668374,46.8865925 L106.362407,2.60701537 C109.756851,-3.13077078 118.36353,1.96089621 114.969086,7.69868236 L87.6310796,53.9093735 L83.1338845,61.5111895 L196.844521,92.0694918 C199.511325,92.7861619 201.092221,95.5290098 200.375551,98.1958141 C199.658881,100.862618 196.916033,102.443514 194.249229,101.726844 L77.8483493,70.4455731 L60.2930733,100.120065 L131.322313,200.722398 C132.915016,202.978226 132.377448,206.098076 130.121621,207.69078 C127.865794,209.283483 124.745943,208.745915 123.15324,206.490088 L54.7122381,109.553608 L40.5812162,133.439925 L26.4501944,157.326242 C23.0557497,163.064028 14.4490705,157.972361 17.8435152,152.234575 L33.1169741,126.417144 L48.390433,100.599713 L15.2167373,53.6141157 Z M30.3245791,57.674158 L53.9712682,91.1661696 L67.8232873,67.7514639 L30.3245791,57.674158 Z" id="Combined-Shape" fill="#FFFFFF" fill-rule="nonzero" opacity="0.100000001"></path>
                <g id="Text" transform="translate(21.000000, 42.000000)" fill="#83C572">
                    <path d="M1.592,42.232 C2.04,42.04 2.488,41.976 2.744,41.464 C2.808,41.336 3.192,41.208 3.448,41.208 C5.496,41.144 7.544,41.08 9.656,41.016 C10.232,41.016 10.808,41.08 11.32,41.016 C12.664,40.824 13.88,41.336 15.032,41.848 C16.056,42.36 17.08,42.936 17.976,43.576 C19.256,44.536 20.088,45.816 20.664,47.288 C22.072,51.192 22.264,55.096 21.048,58.936 C20.408,60.92 19.256,62.648 17.912,64.184 C17.016,65.208 15.8,65.72 14.648,66.232 C13.816,66.68 12.728,66.68 11.704,66.488 C11.192,66.424 10.616,66.36 9.976,66.296 C9.976,67.512 9.976,68.6 10.04,69.688 C10.104,71.608 10.296,73.528 10.296,75.448 C10.36,76.664 10.232,77.944 10.168,79.224 C10.168,80.696 10.296,82.168 10.168,83.64 C10.04,85.624 10.168,87.608 10.296,89.592 C10.36,90.424 9.848,90.936 9.208,91.128 C8.184,91.448 7.16,91.768 6.072,91.384 C5.944,91.32 5.752,91.32 5.624,91.32 C4.728,91.32 3.768,91.384 2.872,91.256 C1.784,91.192 1.4,90.744 1.4,89.592 C1.4,88.76 1.464,87.928 1.528,87.096 C1.592,84.984 1.656,82.808 1.72,80.696 C1.72,79.096 1.72,77.496 1.656,75.96 L1.656,68.728 C1.656,67.384 1.72,66.104 1.72,64.76 C1.784,62.904 1.848,61.048 1.848,59.128 C1.912,57.272 1.976,55.416 1.976,53.624 C1.912,52.28 1.848,51 1.784,49.656 C1.656,47.672 1.528,45.688 1.464,43.704 C1.464,43.192 1.528,42.744 1.592,42.232 Z M10.04,44.152 C10.104,45.24 10.168,46.136 10.232,47.096 C10.232,48.504 10.424,49.912 10.296,51.32 C10.04,55.096 10.104,58.936 9.976,62.712 C9.976,63.096 10.04,63.48 10.04,63.992 C10.616,63.864 11.064,63.8 11.448,63.672 C12.728,63.224 13.88,62.456 14.84,61.56 C15.096,61.304 15.352,61.048 15.544,60.728 C16.248,59.192 16.952,57.592 17.592,56.056 C17.784,55.544 17.784,54.904 17.784,54.392 C17.848,53.56 17.848,52.728 17.848,51.896 C17.848,50.04 17.592,48.248 16.696,46.584 C15.992,45.24 14.904,44.6 13.496,44.408 C13.304,44.408 13.112,44.472 12.984,44.408 C12.088,43.96 11.192,44.344 10.04,44.152 Z M33.08,63.608 C33.08,63.288 33.016,63.096 33.016,62.84 L32.824,55.16 C32.76,52.792 32.696,50.36 32.632,47.992 C32.632,47.096 32.568,46.2 32.568,45.304 C32.568,44.6 32.76,44.408 33.528,44.472 C34.104,44.472 34.68,44.536 35.192,44.536 C36.664,44.536 38.2,44.536 39.672,44.472 C39.992,44.472 40.312,44.536 40.632,44.536 C41.656,44.472 42.296,44.024 42.68,43 C42.744,42.744 42.616,42.36 42.488,42.168 C42.04,41.656 41.464,41.272 40.824,41.272 C39.48,41.272 38.136,41.272 36.792,41.336 C34.552,41.336 32.312,41.4 30.072,41.464 C29.24,41.464 28.472,41.4 27.64,41.4 C27.192,41.464 26.936,41.72 26.872,42.168 C26.808,42.744 26.744,43.256 26.68,43.832 C26.616,46.392 26.488,48.952 26.424,51.512 C26.296,53.368 26.168,55.224 26.104,57.144 C25.976,59.832 26.04,62.52 25.976,65.272 C25.912,68.216 25.784,71.16 25.72,74.168 C25.656,77.368 25.848,80.568 25.4,83.704 C25.336,84.216 25.4,84.728 25.272,85.24 C25.016,86.072 25.208,86.84 25.336,87.672 C25.336,88.12 25.528,88.504 25.528,88.952 C25.656,89.784 25.976,90.552 26.68,91 C27.256,91.448 27.896,92.088 28.792,91.576 C29.048,91.448 29.432,91.576 29.688,91.576 C30.264,91.512 30.84,91.512 31.416,91.448 C32.504,91.384 33.528,91.32 34.616,91.192 C35.896,91.064 37.176,90.808 38.52,90.616 C38.776,90.616 39.096,90.552 39.352,90.616 C40.376,90.808 41.144,90.488 41.592,89.592 C41.656,89.528 41.656,89.336 41.784,89.272 C42.232,88.824 41.976,88.44 41.72,88.12 C40.888,87.096 39.224,86.648 38.008,87.16 C36.984,87.608 35.96,87.8 34.872,87.864 C34.104,87.928 33.272,88.376 32.44,87.992 C32.248,85.24 32.12,70.072 32.888,66.872 C34.168,66.68 35.576,66.36 36.92,66.424 C37.432,66.424 37.944,66.296 38.392,66.168 C39.736,65.656 39.992,64.376 38.84,63.48 C38.584,63.352 38.264,63.224 38.008,63.224 C36.792,63.224 35.576,63.032 34.424,63.48 C34.04,63.608 33.592,63.544 33.08,63.608 Z M52.088,91.576 C51.832,91.448 51.512,91.256 51.128,91.128 C50.872,91.064 50.552,91 50.296,91.128 C49.592,91.32 48.888,91.256 48.312,90.68 C47.8,90.168 46.968,89.848 46.776,88.952 C46.712,88.76 46.648,88.568 46.648,88.376 C46.648,86.52 46.712,84.728 46.776,82.936 C46.776,82.104 46.904,81.336 46.904,80.504 C46.904,78.328 46.968,76.216 46.904,74.04 C46.904,71.416 46.776,68.792 46.712,66.104 C46.648,63.672 46.584,61.176 46.52,58.744 C46.52,56.888 46.584,55.032 46.584,53.176 C46.52,51.704 46.52,50.296 46.392,48.888 C46.328,47.416 46.136,46.008 46.008,44.6 C45.944,43.384 45.944,43.384 45.304,42.36 C45.688,41.144 46.776,41.208 47.672,41.08 C48.376,41.016 49.08,41.208 49.72,41.208 L53.88,41.208 C55.672,41.208 57.464,41.592 59.256,41.912 C61.752,42.424 63.8,43.832 65.784,45.432 C67.384,46.648 68.216,48.44 68.984,50.168 C69.816,51.896 69.688,53.688 69.816,55.48 C69.944,57.08 69.304,58.424 68.792,59.896 C68.28,61.24 67.384,62.328 66.68,63.544 C66.488,63.928 66.104,64.184 65.784,64.504 L65.656,64.504 C64.76,65.656 63.8,66.616 62.456,67.128 L63.864,71.352 C64.12,72.056 64.376,72.632 64.632,73.272 C64.952,74.104 65.272,74.872 65.528,75.704 C65.848,76.728 66.104,77.688 66.296,78.712 C66.68,81.208 67.576,83.576 68.152,86.008 C68.28,86.328 68.28,86.712 68.344,87.096 C68.6,88.376 68.856,89.656 69.176,91 C67.832,91.448 66.424,90.936 65.08,90.872 C64.568,90.36 64.44,89.784 64.632,89.272 C65.016,88.248 64.568,87.352 64.376,86.392 C64.056,84.984 63.736,83.512 63.352,82.104 C62.456,78.84 61.944,75.576 60.792,72.44 C60.472,71.352 60.088,70.328 59.704,69.304 C59.32,68.088 59.064,67.896 57.848,68.088 C57.592,68.152 57.272,68.216 57.016,68.152 C56.696,68.152 56.44,68.088 56.12,68.088 C56.12,68.472 56.184,68.856 56.184,69.24 C56.376,72.952 56.504,76.6 56.824,80.312 C56.952,82.232 56.824,84.088 56.888,85.944 C56.952,87.096 56.824,88.184 56.76,89.272 C56.76,89.656 56.696,89.976 56.632,90.296 C56.376,91.128 56.12,91.32 55.224,91.32 C54.712,91.256 54.136,91.128 53.624,91.192 C53.112,91.256 52.664,91.448 52.088,91.576 Z M55.992,65.4 C57.144,65.464 57.592,65.336 58.872,64.76 C60.216,64.184 61.432,63.352 62.392,62.328 C63.48,61.048 64.312,59.576 64.952,57.976 C65.208,57.464 65.4,56.888 65.592,56.312 C66.104,54.968 65.912,53.496 65.784,52.024 C65.592,49.464 64.376,47.544 62.2,46.264 C61.688,45.944 61.176,45.624 60.664,45.432 C58.936,44.856 57.144,44.664 55.416,44.536 C54.84,44.536 54.712,44.664 54.776,45.24 C54.84,45.88 54.968,46.52 55.032,47.16 C55.48,50.488 55.48,53.752 55.608,57.08 C55.672,59.64 55.736,62.2 55.864,64.76 C55.864,65.016 55.928,65.208 55.992,65.4 Z M77.88,58.808 C78.136,59.128 78.456,59.384 78.584,59.704 C78.904,60.856 79.736,61.624 80.12,62.776 C80.184,62.904 80.248,63.032 80.376,63.16 C81.72,64.632 82.488,66.488 83.384,68.216 C83.64,68.792 83.96,69.304 84.216,69.88 C84.344,70.008 84.408,70.136 84.472,70.264 C84.792,71.224 84.984,71.352 85.88,71.352 C86.264,71.352 86.712,71.288 87.096,71.16 C88.632,70.456 89.784,69.176 91.064,68.152 C91.768,67.576 91.896,66.936 91.576,66.104 C91.448,65.912 91.512,65.528 91.64,65.272 C92.856,62.968 93.88,60.6 94.904,58.168 C95.032,57.848 95.096,57.528 95.544,57.336 C95.544,58.104 95.544,58.872 95.416,59.576 C95.288,60.92 95.16,62.328 94.968,63.672 C94.968,63.736 95.032,63.8 94.968,63.864 C94.264,65.784 94.648,67.768 94.392,69.688 C94.072,71.48 94.136,73.336 94.2,75.128 C94.2,75.32 94.2,75.512 94.136,75.704 C93.944,78.008 94.008,80.312 94.072,82.552 C94.136,84.088 93.88,85.624 93.752,87.16 C93.688,88.312 93.944,89.336 94.328,90.296 C95.224,90.488 96.056,90.68 96.824,90.68 C97.976,90.68 99.128,90.488 100.28,90.36 C100.536,90.36 100.728,90.232 100.984,90.232 C102.328,89.848 103.032,89.016 103.032,87.544 C103.096,85.688 103.224,83.768 103.224,81.912 C103.224,80.76 103.16,79.608 103.16,78.456 C103.16,75.128 103.224,71.864 103.224,68.536 C103.224,66.168 103.16,63.8 103.224,61.496 C103.224,59.96 103.352,58.424 103.352,56.888 C103.352,55.288 103.224,53.688 103.288,52.088 C103.288,50.04 103.416,47.992 103.48,45.88 C103.544,44.92 103.48,43.896 103.48,42.872 C103.48,42.488 103.288,42.232 102.84,42.168 C102.392,42.104 101.88,41.784 101.432,41.912 C100.088,42.296 98.744,42.744 97.976,44.152 C97.4,45.304 96.76,46.392 96.12,47.48 C95.352,48.888 94.648,50.36 93.88,51.768 C93.752,51.896 93.752,52.088 93.624,52.216 C92.216,54.584 91.128,57.08 89.912,59.512 C89.4,60.6 88.76,61.56 88.184,62.712 C87.928,62.328 87.736,62.072 87.544,61.688 C86.456,59.256 85.304,56.824 84.216,54.392 C83.832,53.496 83.64,52.472 83.256,51.512 C82.808,50.424 82.36,49.336 81.848,48.248 C81.656,47.8 81.464,47.288 81.272,46.776 C80.632,45.496 80.056,44.088 79.352,42.808 C79.16,42.488 78.648,42.104 78.264,42.104 C77.752,42.104 77.24,42.04 76.728,41.912 C75.704,41.656 74.872,42.296 74.296,42.936 C73.848,43.32 73.72,44.088 73.656,44.728 C73.528,47.864 73.4,50.936 73.336,54.072 C73.272,54.84 73.272,55.544 73.272,56.312 C73.208,58.552 73.08,60.856 73.08,63.096 C73.144,66.424 73.4,69.688 73.528,73.016 C73.528,74.104 73.464,75.256 73.464,76.344 C73.4,76.856 73.528,77.432 73.464,77.944 C73.464,79.736 73.464,81.528 73.4,83.256 C73.336,84.856 73.208,86.392 73.464,87.928 C73.592,88.696 73.272,89.592 73.72,90.36 C73.784,90.424 73.784,90.552 73.848,90.68 C75.256,91 76.536,90.488 77.624,89.656 C77.88,89.4 78.136,88.952 78.136,88.568 C78.136,87.864 78.328,87.16 78.072,86.52 C77.944,86.264 78.008,85.88 78.008,85.496 L78.008,83.256 C78.008,82.296 78.136,81.4 78.136,80.44 C78.2,79.8 78.072,79.096 78.072,78.456 C78.072,76.984 78.008,75.576 78.008,74.104 L77.816,69.304 C77.752,67.64 77.688,65.976 77.624,64.376 C77.56,62.84 77.56,61.24 77.56,59.704 C77.56,59.448 77.624,59.128 77.688,58.872 C77.752,58.872 77.816,58.808 77.88,58.808 Z M118.136,77.496 C117.176,77.496 116.28,77.56 115.448,77.496 C114.616,77.496 113.784,77.368 112.888,77.304 C112.824,77.496 112.696,77.624 112.696,77.816 C112.504,79.096 112.312,80.312 112.184,81.592 C111.928,83.512 111.736,85.368 111.544,87.288 C111.48,87.864 111.416,88.44 111.352,88.952 C111.288,90.296 110.776,90.808 109.432,90.936 C109.048,90.936 108.664,91 108.28,91 C107.512,91 106.872,90.552 106.808,89.848 C106.68,89.208 106.68,88.632 106.744,87.992 C106.936,86.904 107.128,85.816 107.256,84.664 C107.576,82.424 107.896,80.184 108.152,77.944 C108.6,74.744 108.984,71.608 109.368,68.408 L110.328,60.92 C110.712,58.232 111.16,55.608 111.544,52.92 C111.736,51.832 112.056,50.68 112.184,49.592 C112.44,47.288 112.568,44.984 112.824,42.68 C112.888,42.232 113.08,41.72 113.272,41.144 C114.424,41.336 115.448,41.464 116.536,41.592 C116.792,41.656 117.048,41.72 117.24,41.656 C117.816,41.336 118.2,41.592 118.584,42.04 C119.416,41.464 120.44,41.592 121.4,41.656 C122.296,41.72 122.936,42.424 123.064,43.448 L123.832,49.4 C124.024,50.552 124.088,51.768 124.216,52.984 C124.472,55.864 124.728,58.808 124.984,61.688 C125.112,63.032 125.432,64.376 125.688,65.656 C125.944,67.512 126.2,69.368 126.52,71.224 C126.84,73.208 127.288,75.256 127.416,77.304 C127.608,79.032 127.928,80.76 128.184,82.488 C128.504,84.28 128.952,86.072 129.272,87.928 C129.4,88.504 129.4,89.144 129.4,89.784 C129.4,89.976 129.208,90.232 129.016,90.296 C128.504,90.488 127.992,90.616 127.48,90.616 C125.496,90.616 123.512,90.552 121.528,90.488 C121.272,90.488 121.08,90.488 120.888,90.424 C120.632,90.232 120.184,89.976 120.12,89.72 C119.864,88.76 119.288,87.864 119.288,86.84 C119.288,85.88 119.224,84.984 119.16,84.024 C119.16,83.512 119.16,83.064 119.032,82.552 C118.84,81.08 118.584,79.608 118.328,78.136 C118.328,77.944 118.264,77.752 118.136,77.496 Z M117.816,74.552 C117.624,71.864 117.304,69.176 116.792,66.552 C116.536,65.208 116.408,63.864 116.344,62.584 C116.216,60.856 116.216,59.192 116.216,57.528 C116.216,55.992 116.28,54.456 116.28,52.92 C116.28,52.728 116.152,52.536 116.088,52.344 C114.616,59.64 114.36,67.128 113.272,74.552 C114.808,74.744 116.28,74.68 117.816,74.552 Z M121.144,65.336 L121.208,65.336 C121.208,65.144 121.144,65.016 121.144,64.824 L121.08,64.824 C121.08,65.016 121.08,65.144 121.144,65.336 Z M147.128,86.328 C145.72,86.072 145.784,84.6 144.824,84.088 C144.952,83.256 144.248,82.68 144.056,81.976 C143.416,79.992 143.032,78.008 142.84,75.96 C142.584,73.144 142.84,70.328 143.16,67.512 C143.288,66.68 143.416,65.848 143.416,65.016 C143.416,62.328 143.544,59.704 144.184,57.08 C144.248,56.888 144.184,56.696 144.248,56.44 C144.312,56.056 144.312,55.608 144.44,55.16 C144.632,54.392 144.952,53.688 145.208,52.92 C145.592,51.96 145.848,50.936 146.296,49.976 C146.808,48.952 147.128,47.736 148.216,47.096 C148.344,46.456 148.92,46.2 149.368,45.88 C149.688,45.56 150.136,45.624 150.392,46.008 C150.776,46.52 151.224,47.032 151.48,47.608 C152.12,49.016 152.44,50.552 152.504,52.088 C152.504,52.6 152.568,53.112 152.568,53.624 L152.568,55.224 C152.568,55.608 152.568,55.992 152.952,56.312 C153.592,56.824 154.168,57.464 154.808,57.976 C155.128,58.232 155.768,58.232 156.024,57.848 C156.28,57.528 156.6,57.08 156.6,56.632 C156.728,55.8 156.728,54.904 156.664,54.008 C156.664,53.368 156.536,52.664 156.408,52.024 C156.024,50.424 155.704,48.696 155.128,47.16 C154.36,45.112 152.696,43.832 150.904,42.808 C149.944,42.232 148.92,41.912 147.768,41.848 C147.256,41.848 146.68,41.528 146.168,41.592 C144.696,41.72 143.224,42.04 142.008,42.936 C140.984,43.64 140.024,44.536 139,45.368 C138.936,45.432 138.936,45.56 138.872,45.624 C138.552,46.136 138.296,46.648 137.912,47.16 C136.888,48.568 135.928,50.04 135.416,51.768 C134.84,53.496 134.136,55.224 133.816,57.016 C133.752,57.656 133.752,58.296 133.56,58.936 C132.856,61.56 132.856,64.248 132.728,66.936 C132.6,68.472 132.664,70.008 132.664,71.544 C132.664,73.016 132.536,74.488 132.728,75.896 C132.984,77.432 133.304,78.968 133.624,80.504 C133.88,81.976 134.584,83.128 135.16,84.472 C135.416,85.048 135.8,85.624 136.248,86.136 C137.656,87.864 139.448,89.144 141.56,89.848 C142.52,90.104 143.48,90.424 144.504,90.68 C145.016,90.808 145.592,91 146.104,91 C146.808,90.936 147.512,90.744 148.152,90.488 C148.92,90.168 149.688,89.72 150.072,88.952 C150.264,88.568 150.456,88.312 150.776,88.184 C151.736,87.736 152.376,87.096 152.76,86.136 C152.888,85.816 153.208,85.496 153.464,85.176 C153.528,85.112 153.592,84.984 153.656,84.856 C154.04,83.896 154.36,82.936 154.68,81.976 C155.32,80.376 155.576,78.712 155.768,77.048 C155.896,76.472 155.768,75.832 155.192,75.384 C154.168,74.424 153.464,74.296 151.992,74.936 C151.928,75.448 151.8,75.896 151.736,76.408 C151.48,77.56 151.288,78.712 150.968,79.864 C150.776,80.696 150.392,81.464 150.072,82.296 C150.008,82.488 149.944,82.616 149.88,82.808 C149.176,84.152 147.96,85.112 147.128,86.328 Z M159.992,77.496 L159.992,74.296 C159.992,72.696 159.992,71.096 160.056,69.496 C160.184,67.576 160.312,65.656 160.504,63.736 C160.568,62.712 160.632,61.688 160.76,60.664 C161.08,58.168 161.272,55.672 161.72,53.24 C161.976,51.896 162.488,50.616 163.064,49.336 C163.512,48.248 164.088,47.224 164.664,46.2 C165.24,45.112 166.136,44.216 167.224,43.576 C167.928,43.192 168.568,42.616 169.272,42.232 C170.04,41.912 170.872,41.72 171.704,41.592 C172.984,41.528 174.328,41.528 175.608,41.528 C175.928,41.528 176.376,41.464 176.568,41.912 C176.568,42.04 177.08,41.848 177.272,41.976 C177.656,42.296 178.168,42.36 178.68,42.36 C178.872,42.36 179.064,42.552 179.256,42.68 C179.704,43.064 180.024,43.512 180.536,43.768 C181.624,44.408 182.328,45.368 182.712,46.456 C183.288,47.992 183.8,49.592 184.12,51.128 C184.44,52.6 184.44,54.136 184.568,55.672 C184.76,57.272 184.888,58.872 184.952,60.472 C185.016,62.328 185.208,64.184 185.08,66.04 C184.952,67.384 185.08,68.728 185.016,70.136 C184.888,72.056 184.696,73.976 184.568,75.96 C184.44,77.688 183.928,79.288 183.608,80.952 C183.352,82.36 182.776,83.64 182.072,84.792 C181.112,86.264 180.088,87.8 178.808,89.08 C177.72,90.04 176.44,90.616 174.968,90.552 C174.2,90.488 173.496,90.552 172.792,90.872 C172.28,91.128 171.64,91.128 171.064,90.936 C169.912,90.552 168.824,90.232 167.672,89.976 C166.584,89.72 165.816,88.888 164.792,88.44 C163.256,87.736 162.744,86.136 161.592,85.048 C161.08,84.6 160.888,83.64 160.696,82.872 C160.184,81.144 159.8,79.352 159.992,77.496 Z M173.176,87.288 C173.496,86.968 173.88,86.648 174.136,86.328 C174.968,85.24 175.416,84.024 175.8,82.744 C176.568,80.632 176.568,78.52 176.824,76.408 C177.016,74.872 177.016,73.4 177.08,71.864 C177.144,71.032 177.208,70.264 177.272,69.496 C177.4,67.128 177.656,64.824 177.528,62.52 C177.464,62.008 177.4,61.496 177.464,60.984 C177.592,57.144 177.336,53.24 177.016,49.336 C176.952,48.184 176.76,46.968 176.184,45.944 C175.608,44.984 174.52,44.856 173.88,45.688 C173.176,46.52 172.472,47.416 171.96,48.376 C170.744,50.552 170.04,52.92 169.976,55.48 C169.912,57.72 169.976,59.96 169.592,62.264 C169.144,65.08 168.888,67.96 169.08,70.904 C169.272,73.656 169.208,76.408 169.336,79.16 C169.464,80.76 169.656,82.36 169.976,83.96 C170.232,84.984 170.616,86.008 171.576,86.584 C172.088,86.84 172.6,87.032 173.176,87.288 Z M197.112,88.376 C196.984,87.928 196.856,87.48 196.792,87.032 C196.728,85.88 196.6,84.792 196.6,83.64 C196.536,82.04 196.6,80.44 196.472,78.904 C196.344,75.96 196.088,73.08 195.96,70.2 C195.832,68.024 195.768,65.848 195.704,63.736 C195.704,62.264 195.832,60.856 195.896,59.448 C195.896,58.296 196.024,57.08 196.024,55.928 L195.832,47.096 C195.768,45.688 195.704,44.28 195.704,42.808 C195.64,42.36 195.576,41.848 195.128,41.592 C194.616,41.336 194.04,41.016 193.464,41.016 C192.056,40.952 190.648,41.016 189.24,40.696 L188.92,40.696 C188.536,40.696 188.344,40.888 188.344,41.208 C188.344,42.232 188.344,43.192 188.408,44.152 C188.472,45.816 188.728,47.544 188.664,49.208 C188.536,52.152 188.472,55.096 188.664,58.104 C188.728,59 188.664,59.896 188.728,60.792 C188.856,62.136 188.92,63.544 189.112,64.888 C189.24,66.488 188.92,67.96 189.112,69.496 C189.368,71.672 189.304,73.784 189.304,75.96 C189.368,76.408 189.24,76.856 189.24,77.368 C189.24,78.2 189.304,79.096 189.304,79.928 L189.496,87.608 C189.56,88.248 189.56,88.824 188.792,89.144 C189.24,89.656 189.688,90.04 189.944,90.552 C190.456,91.576 191.416,91.704 192.248,91.832 C193.208,92.024 194.232,91.896 195.256,91.896 C197.368,91.768 199.416,91.704 201.528,91.576 C202.168,91.512 202.808,91.384 203.384,91.512 C204.024,91.64 204.536,91.64 205.112,91.576 C205.688,91.384 206.264,91.128 206.904,91.128 C207.736,91.128 207.992,90.552 208.056,90.04 C208.12,89.272 208.632,88.568 208.184,87.8 C208.504,86.264 207.8,84.6 208.184,83.064 C208.248,83 208.184,82.872 208.184,82.808 C207.864,81.272 206.52,80.504 205.048,81.08 C204.344,81.336 204.216,81.528 204.28,82.104 C204.344,83.576 204.408,85.112 204.472,86.584 C204.472,87.288 203.832,88.056 203.192,88.056 C201.336,87.992 199.544,88.312 197.752,88.44 C197.56,88.44 197.368,88.44 197.112,88.376 Z M219.576,63.608 C219.576,63.288 219.512,63.096 219.512,62.84 L219.32,55.16 C219.256,52.792 219.192,50.36 219.128,47.992 C219.128,47.096 219.064,46.2 219.064,45.304 C219.064,44.6 219.256,44.408 220.024,44.472 C220.6,44.472 221.176,44.536 221.688,44.536 C223.16,44.536 224.696,44.536 226.168,44.472 C226.488,44.472 226.808,44.536 227.128,44.536 C228.152,44.472 228.792,44.024 229.176,43 C229.24,42.744 229.112,42.36 228.984,42.168 C228.536,41.656 227.96,41.272 227.32,41.272 C225.976,41.272 224.632,41.272 223.288,41.336 C221.048,41.336 218.808,41.4 216.568,41.464 C215.736,41.464 214.968,41.4 214.136,41.4 C213.688,41.464 213.432,41.72 213.368,42.168 C213.304,42.744 213.24,43.256 213.176,43.832 C213.112,46.392 212.984,48.952 212.92,51.512 C212.792,53.368 212.664,55.224 212.6,57.144 C212.472,59.832 212.536,62.52 212.472,65.272 C212.408,68.216 212.28,71.16 212.216,74.168 C212.152,77.368 212.344,80.568 211.896,83.704 C211.832,84.216 211.896,84.728 211.768,85.24 C211.512,86.072 211.704,86.84 211.832,87.672 C211.832,88.12 212.024,88.504 212.024,88.952 C212.152,89.784 212.472,90.552 213.176,91 C213.752,91.448 214.392,92.088 215.288,91.576 C215.544,91.448 215.928,91.576 216.184,91.576 C216.76,91.512 217.336,91.512 217.912,91.448 C219,91.384 220.024,91.32 221.112,91.192 C222.392,91.064 223.672,90.808 225.016,90.616 C225.272,90.616 225.592,90.552 225.848,90.616 C226.872,90.808 227.64,90.488 228.088,89.592 C228.152,89.528 228.152,89.336 228.28,89.272 C228.728,88.824 228.472,88.44 228.216,88.12 C227.384,87.096 225.72,86.648 224.504,87.16 C223.48,87.608 222.456,87.8 221.368,87.864 C220.6,87.928 219.768,88.376 218.936,87.992 C218.744,85.24 218.616,70.072 219.384,66.872 C220.664,66.68 222.072,66.36 223.416,66.424 C223.928,66.424 224.44,66.296 224.888,66.168 C226.232,65.656 226.488,64.376 225.336,63.48 C225.08,63.352 224.76,63.224 224.504,63.224 C223.288,63.224 222.072,63.032 220.92,63.48 C220.536,63.608 220.088,63.544 219.576,63.608 Z" id="Permacole"></path>
                    <path d="M5.124,27.524 C5.052,27.272 4.98,27.02 4.944,26.768 C4.908,26.12 4.836,25.508 4.836,24.86 C4.8,23.96 4.836,23.06 4.764,22.196 C4.692,20.54 4.548,18.92 4.476,17.3 C4.404,16.076 4.368,14.852 4.332,13.664 C4.332,12.836 4.404,12.044 4.44,11.252 C4.44,10.604 4.512,9.92 4.512,9.272 L4.404,4.304 C4.368,3.512 4.332,2.72 4.332,1.892 C4.296,1.64 4.26,1.352 4.008,1.208 C3.72,1.064 3.396,0.884 3.072,0.884 C2.28,0.848 1.488,0.884 0.696,0.704 L0.516,0.704 C0.3,0.704 0.192,0.812 0.192,0.992 C0.192,1.568 0.192,2.108 0.228,2.648 C0.264,3.584 0.408,4.556 0.372,5.492 C0.3,7.148 0.264,8.804 0.372,10.496 C0.408,11 0.372,11.504 0.408,12.008 C0.48,12.764 0.516,13.556 0.624,14.312 C0.696,15.212 0.516,16.04 0.624,16.904 C0.768,18.128 0.732,19.316 0.732,20.54 C0.768,20.792 0.696,21.044 0.696,21.332 C0.696,21.8 0.732,22.304 0.732,22.772 L0.84,27.092 C0.876,27.452 0.876,27.776 0.444,27.956 C0.696,28.244 0.948,28.46 1.092,28.748 C1.38,29.324 1.92,29.396 2.388,29.468 C2.928,29.576 3.504,29.504 4.08,29.504 C5.268,29.432 6.42,29.396 7.608,29.324 C7.968,29.288 8.328,29.216 8.652,29.288 C9.012,29.36 9.3,29.36 9.624,29.324 C9.948,29.216 10.272,29.072 10.632,29.072 C11.1,29.072 11.244,28.748 11.28,28.46 C11.316,28.028 11.604,27.632 11.352,27.2 C11.532,26.336 11.136,25.4 11.352,24.536 C11.388,24.5 11.352,24.428 11.352,24.392 C11.172,23.528 10.416,23.096 9.588,23.42 C9.192,23.564 9.12,23.672 9.156,23.996 C9.192,24.824 9.228,25.688 9.264,26.516 C9.264,26.912 8.904,27.344 8.544,27.344 C7.5,27.308 6.492,27.488 5.484,27.56 C5.376,27.56 5.268,27.56 5.124,27.524 Z M17.76,13.592 C17.76,13.412 17.724,13.304 17.724,13.16 L17.616,8.84 C17.58,7.508 17.544,6.14 17.508,4.808 C17.508,4.304 17.472,3.8 17.472,3.296 C17.472,2.9 17.58,2.792 18.012,2.828 C18.336,2.828 18.66,2.864 18.948,2.864 C19.776,2.864 20.64,2.864 21.468,2.828 C21.648,2.828 21.828,2.864 22.008,2.864 C22.584,2.828 22.944,2.576 23.16,2 C23.196,1.856 23.124,1.64 23.052,1.532 C22.8,1.244 22.476,1.028 22.116,1.028 C21.36,1.028 20.604,1.028 19.848,1.064 C18.588,1.064 17.328,1.1 16.068,1.136 C15.6,1.136 15.168,1.1 14.7,1.1 C14.448,1.136 14.304,1.28 14.268,1.532 C14.232,1.856 14.196,2.144 14.16,2.468 C14.124,3.908 14.052,5.348 14.016,6.788 C13.944,7.832 13.872,8.876 13.836,9.956 C13.764,11.468 13.8,12.98 13.764,14.528 C13.728,16.184 13.656,17.84 13.62,19.532 C13.584,21.332 13.692,23.132 13.44,24.896 C13.404,25.184 13.44,25.472 13.368,25.76 C13.224,26.228 13.332,26.66 13.404,27.128 C13.404,27.38 13.512,27.596 13.512,27.848 C13.584,28.316 13.764,28.748 14.16,29 C14.484,29.252 14.844,29.612 15.348,29.324 C15.492,29.252 15.708,29.324 15.852,29.324 C16.176,29.288 16.5,29.288 16.824,29.252 C17.436,29.216 18.012,29.18 18.624,29.108 C19.344,29.036 20.064,28.892 20.82,28.784 C20.964,28.784 21.144,28.748 21.288,28.784 C21.864,28.892 22.296,28.712 22.548,28.208 C22.584,28.172 22.584,28.064 22.656,28.028 C22.908,27.776 22.764,27.56 22.62,27.38 C22.152,26.804 21.216,26.552 20.532,26.84 C19.956,27.092 19.38,27.2 18.768,27.236 C18.336,27.272 17.868,27.524 17.4,27.308 C17.292,25.76 17.22,17.228 17.652,15.428 C18.372,15.32 19.164,15.14 19.92,15.176 C20.208,15.176 20.496,15.104 20.748,15.032 C21.504,14.744 21.648,14.024 21,13.52 C20.856,13.448 20.676,13.376 20.532,13.376 C19.848,13.376 19.164,13.268 18.516,13.52 C18.3,13.592 18.048,13.556 17.76,13.592 Z M35.94,1.676 C36.12,2.54 36.264,3.332 36.408,4.124 C36.408,4.196 36.444,4.268 36.48,4.34 L36.804,5.744 C36.876,6.104 36.948,6.5 37.02,6.86 C37.236,7.76 37.488,8.696 37.704,9.596 L38.46,12.296 C38.712,13.196 38.928,14.096 39.18,14.96 C39.252,15.248 39.324,15.5 39.396,15.788 C39.54,16.436 39.72,17.048 39.9,17.696 L40.98,21.584 C41.016,21.728 41.088,21.872 41.16,22.052 C41.268,22.232 41.34,22.448 41.412,22.628 C41.736,23.996 42.06,25.328 42.348,26.66 C42.492,27.236 42.852,27.74 43.104,28.244 C43.176,28.388 43.356,28.496 43.536,28.568 C44.076,28.748 44.652,28.928 45.228,28.82 C45.444,28.784 45.66,28.784 45.876,28.82 C46.56,28.892 46.92,28.748 47.1,28.136 C47.352,27.308 47.676,26.516 47.82,25.652 C47.928,24.824 48.18,24.032 48.432,23.24 C48.612,22.52 48.828,21.836 49.044,21.152 C49.188,20.648 49.296,20.144 49.44,19.64 C49.62,18.992 49.836,18.344 50.016,17.66 C50.232,16.724 50.304,15.752 50.592,14.852 C50.988,13.7 51.132,12.44 51.564,11.288 C51.924,10.388 52.104,9.38 52.356,8.444 C52.464,8.012 52.608,7.616 52.68,7.184 C52.86,6.212 53.184,5.312 53.724,4.52 C53.832,4.412 53.868,4.268 53.904,4.124 C54.012,3.728 54.12,3.296 54.228,2.9 C54.336,2.324 54.048,1.856 53.436,1.604 C53.292,1.532 53.148,1.496 53.004,1.46 C52.608,1.28 51.636,1.748 51.528,2.072 C51.42,2.504 51.276,2.936 51.132,3.332 C50.88,4.268 50.592,5.168 50.34,6.068 C50.088,6.86 49.836,7.652 49.62,8.444 C49.296,9.668 49.044,10.892 48.72,12.08 C48.648,12.476 48.54,12.872 48.432,13.232 C48.252,13.988 48,14.672 47.82,15.428 C47.424,17.012 47.028,18.632 46.632,20.216 C46.596,20.396 46.596,20.648 46.308,20.72 C46.164,20.252 46.056,19.82 45.912,19.388 C45.552,18.308 45.156,17.264 44.832,16.184 C44.544,15.212 44.328,14.204 43.932,13.232 C43.896,13.16 43.896,13.088 43.86,13.016 C43.644,12.116 43.428,11.216 43.14,10.316 C42.888,9.524 42.564,8.732 42.312,7.904 C41.772,6.248 41.232,4.592 40.728,2.936 C40.548,2.432 40.332,1.892 40.152,1.352 C40.08,1.136 39.936,1.064 39.684,1.028 C39.036,0.992 38.424,1.136 37.848,1.388 C37.704,1.424 37.632,1.46 37.452,1.496 C36.948,1.532 36.444,1.604 35.94,1.676 Z M60.564,13.592 C60.564,13.412 60.528,13.304 60.528,13.16 L60.42,8.84 C60.384,7.508 60.348,6.14 60.312,4.808 C60.312,4.304 60.276,3.8 60.276,3.296 C60.276,2.9 60.384,2.792 60.816,2.828 C61.14,2.828 61.464,2.864 61.752,2.864 C62.58,2.864 63.444,2.864 64.272,2.828 C64.452,2.828 64.632,2.864 64.812,2.864 C65.388,2.828 65.748,2.576 65.964,2 C66,1.856 65.928,1.64 65.856,1.532 C65.604,1.244 65.28,1.028 64.92,1.028 C64.164,1.028 63.408,1.028 62.652,1.064 C61.392,1.064 60.132,1.1 58.872,1.136 C58.404,1.136 57.972,1.1 57.504,1.1 C57.252,1.136 57.108,1.28 57.072,1.532 C57.036,1.856 57,2.144 56.964,2.468 C56.928,3.908 56.856,5.348 56.82,6.788 C56.748,7.832 56.676,8.876 56.64,9.956 C56.568,11.468 56.604,12.98 56.568,14.528 C56.532,16.184 56.46,17.84 56.424,19.532 C56.388,21.332 56.496,23.132 56.244,24.896 C56.208,25.184 56.244,25.472 56.172,25.76 C56.028,26.228 56.136,26.66 56.208,27.128 C56.208,27.38 56.316,27.596 56.316,27.848 C56.388,28.316 56.568,28.748 56.964,29 C57.288,29.252 57.648,29.612 58.152,29.324 C58.296,29.252 58.512,29.324 58.656,29.324 C58.98,29.288 59.304,29.288 59.628,29.252 C60.24,29.216 60.816,29.18 61.428,29.108 C62.148,29.036 62.868,28.892 63.624,28.784 C63.768,28.784 63.948,28.748 64.092,28.784 C64.668,28.892 65.1,28.712 65.352,28.208 C65.388,28.172 65.388,28.064 65.46,28.028 C65.712,27.776 65.568,27.56 65.424,27.38 C64.956,26.804 64.02,26.552 63.336,26.84 C62.76,27.092 62.184,27.2 61.572,27.236 C61.14,27.272 60.672,27.524 60.204,27.308 C60.096,25.76 60.024,17.228 60.456,15.428 C61.176,15.32 61.968,15.14 62.724,15.176 C63.012,15.176 63.3,15.104 63.552,15.032 C64.308,14.744 64.452,14.024 63.804,13.52 C63.66,13.448 63.48,13.376 63.336,13.376 C62.652,13.376 61.968,13.268 61.32,13.52 C61.104,13.592 60.852,13.556 60.564,13.592 Z M71.256,29.324 C71.112,29.252 70.932,29.144 70.716,29.072 C70.572,29.036 70.392,29 70.248,29.072 C69.852,29.18 69.456,29.144 69.132,28.82 C68.844,28.532 68.376,28.352 68.268,27.848 C68.232,27.74 68.196,27.632 68.196,27.524 C68.196,26.48 68.232,25.472 68.268,24.464 C68.268,23.996 68.34,23.564 68.34,23.096 C68.34,21.872 68.376,20.684 68.34,19.46 C68.34,17.984 68.268,16.508 68.232,14.996 C68.196,13.628 68.16,12.224 68.124,10.856 C68.124,9.812 68.16,8.768 68.16,7.724 C68.124,6.896 68.124,6.104 68.052,5.312 C68.016,4.484 67.908,3.692 67.836,2.9 C67.8,2.216 67.8,2.216 67.44,1.64 C67.656,0.956 68.268,0.992 68.772,0.92 C69.168,0.884 69.564,0.992 69.924,0.992 L72.264,0.992 C73.272,0.992 74.28,1.208 75.288,1.388 C76.692,1.676 77.844,2.468 78.96,3.368 C79.86,4.052 80.328,5.06 80.76,6.032 C81.228,7.004 81.156,8.012 81.228,9.02 C81.3,9.92 80.94,10.676 80.652,11.504 C80.364,12.26 79.86,12.872 79.464,13.556 C79.356,13.772 79.14,13.916 78.96,14.096 L78.888,14.096 C78.384,14.744 77.844,15.284 77.088,15.572 L77.88,17.948 C78.024,18.344 78.168,18.668 78.312,19.028 C78.492,19.496 78.672,19.928 78.816,20.396 C78.996,20.972 79.14,21.512 79.248,22.088 C79.464,23.492 79.968,24.824 80.292,26.192 C80.364,26.372 80.364,26.588 80.4,26.804 C80.544,27.524 80.688,28.244 80.868,29 C80.112,29.252 79.32,28.964 78.564,28.928 C78.276,28.64 78.204,28.316 78.312,28.028 C78.528,27.452 78.276,26.948 78.168,26.408 C77.988,25.616 77.808,24.788 77.592,23.996 C77.088,22.16 76.8,20.324 76.152,18.56 C75.972,17.948 75.756,17.372 75.54,16.796 C75.324,16.112 75.18,16.004 74.496,16.112 C74.352,16.148 74.172,16.184 74.028,16.148 C73.848,16.148 73.704,16.112 73.524,16.112 C73.524,16.328 73.56,16.544 73.56,16.76 C73.668,18.848 73.74,20.9 73.92,22.988 C73.992,24.068 73.92,25.112 73.956,26.156 C73.992,26.804 73.92,27.416 73.884,28.028 C73.884,28.244 73.848,28.424 73.812,28.604 C73.668,29.072 73.524,29.18 73.02,29.18 C72.732,29.144 72.408,29.072 72.12,29.108 C71.832,29.144 71.58,29.252 71.256,29.324 Z M73.452,14.6 C74.1,14.636 74.352,14.564 75.072,14.24 C75.828,13.916 76.512,13.448 77.052,12.872 C77.664,12.152 78.132,11.324 78.492,10.424 C78.636,10.136 78.744,9.812 78.852,9.488 C79.14,8.732 79.032,7.904 78.96,7.076 C78.852,5.636 78.168,4.556 76.944,3.836 C76.656,3.656 76.368,3.476 76.08,3.368 C75.108,3.044 74.1,2.936 73.128,2.864 C72.804,2.864 72.732,2.936 72.768,3.26 C72.804,3.62 72.876,3.98 72.912,4.34 C73.164,6.212 73.164,8.048 73.236,9.92 C73.272,11.36 73.308,12.8 73.38,14.24 C73.38,14.384 73.416,14.492 73.452,14.6 Z M92.82,3.908 C92.928,4.196 93.144,4.484 93.18,4.808 C93.252,5.708 93.324,6.608 93.252,7.508 C93.216,8.372 93.036,9.236 92.928,10.1 C92.892,10.388 92.964,10.64 93.18,10.856 C93.36,11.072 93.576,11.216 93.792,11.396 C94.116,11.684 94.476,11.756 94.836,11.54 C95.196,11.36 95.52,11.144 95.52,10.64 C95.52,9.992 95.52,9.308 95.664,8.696 C95.916,7.544 95.736,6.356 95.664,5.204 C95.592,4.484 95.304,3.836 94.872,3.26 C94.692,2.972 94.548,2.684 94.332,2.396 C94.188,2.288 94.008,2.18 93.828,2.144 C93.54,2 93.216,1.964 92.928,1.856 C92.28,1.532 91.668,1.424 90.948,1.46 C89.976,1.496 89.112,1.964 88.284,2.36 C87.312,2.756 86.772,3.656 86.196,4.448 C86.016,4.7 85.8,4.916 85.656,5.168 C85.368,5.708 85.116,6.248 84.9,6.824 C84.684,7.436 84.468,8.084 84.288,8.732 C84,9.812 83.712,10.928 83.496,12.08 C83.352,12.836 83.316,13.628 83.244,14.42 C83.208,14.852 83.28,15.284 83.244,15.716 C83.208,16.4 83.136,17.084 83.064,17.768 C83.064,17.876 83.1,17.984 83.1,18.092 C83.136,18.416 83.208,18.776 83.244,19.1 C83.28,20.216 83.388,21.332 83.64,22.448 C83.748,22.844 83.928,23.276 83.964,23.708 C84,24.392 84.36,24.932 84.72,25.4 C85.26,26.12 85.8,26.876 86.556,27.38 C86.664,27.452 86.772,27.704 86.88,27.704 C87.204,27.668 87.348,27.956 87.564,28.136 C87.672,28.172 87.78,28.28 87.852,28.28 C88.248,28.352 88.608,28.352 88.968,28.424 C89.4,28.532 89.832,28.532 90.228,28.46 C90.624,28.388 90.984,28.352 91.344,28.28 C91.596,28.208 91.848,28.1 92.172,28.208 C92.28,28.244 92.46,28.172 92.568,28.1 C92.748,28.028 92.892,27.92 93.036,27.812 C93.396,27.596 93.72,27.38 94.008,27.092 C94.584,26.516 94.98,25.868 95.304,25.112 C95.52,24.536 95.736,23.888 95.988,23.312 C96.132,22.916 96.204,22.556 96.06,22.196 C95.88,21.62 95.988,21.044 95.952,20.432 C95.88,19.46 95.844,18.452 95.556,17.48 C95.7,17.156 95.88,16.796 96.024,16.436 C95.772,15.968 95.376,15.68 94.836,15.68 C94.368,15.716 93.9,15.752 93.432,15.824 C92.856,15.932 92.28,16.04 91.74,16.148 C91.236,16.256 90.768,16.328 90.264,16.4 C89.868,16.508 89.76,16.796 90.048,17.156 C90.228,17.372 90.516,17.408 90.732,17.588 C91.092,17.876 91.488,17.876 91.92,17.84 C92.388,17.804 92.82,17.804 93.36,17.768 C93.396,18.704 93.432,19.568 93.432,20.432 C93.504,22.016 93.072,23.456 92.172,24.716 C91.992,25.004 91.74,25.292 91.452,25.508 C91.02,25.832 90.336,25.868 89.904,25.544 C89.544,25.292 89.184,24.968 88.932,24.608 C88.284,23.708 88.068,22.628 87.888,21.584 C87.744,20.468 87.708,19.28 87.672,18.164 C87.672,16.868 87.744,15.608 87.816,14.348 C87.816,13.952 87.924,13.52 87.96,13.124 C88.032,12.26 88.104,11.396 88.212,10.532 C88.32,9.884 88.464,9.2 88.716,8.588 C89.04,7.724 89.472,6.86 89.868,6.032 C90.3,5.168 90.876,4.448 91.812,4.052 C92.1,3.908 92.388,3.8 92.82,3.908 Z M102.468,13.592 C102.468,13.412 102.432,13.304 102.432,13.16 L102.324,8.84 C102.288,7.508 102.252,6.14 102.216,4.808 C102.216,4.304 102.18,3.8 102.18,3.296 C102.18,2.9 102.288,2.792 102.72,2.828 C103.044,2.828 103.368,2.864 103.656,2.864 C104.484,2.864 105.348,2.864 106.176,2.828 C106.356,2.828 106.536,2.864 106.716,2.864 C107.292,2.828 107.652,2.576 107.868,2 C107.904,1.856 107.832,1.64 107.76,1.532 C107.508,1.244 107.184,1.028 106.824,1.028 C106.068,1.028 105.312,1.028 104.556,1.064 C103.296,1.064 102.036,1.1 100.776,1.136 C100.308,1.136 99.876,1.1 99.408,1.1 C99.156,1.136 99.012,1.28 98.976,1.532 C98.94,1.856 98.904,2.144 98.868,2.468 C98.832,3.908 98.76,5.348 98.724,6.788 C98.652,7.832 98.58,8.876 98.544,9.956 C98.472,11.468 98.508,12.98 98.472,14.528 C98.436,16.184 98.364,17.84 98.328,19.532 C98.292,21.332 98.4,23.132 98.148,24.896 C98.112,25.184 98.148,25.472 98.076,25.76 C97.932,26.228 98.04,26.66 98.112,27.128 C98.112,27.38 98.22,27.596 98.22,27.848 C98.292,28.316 98.472,28.748 98.868,29 C99.192,29.252 99.552,29.612 100.056,29.324 C100.2,29.252 100.416,29.324 100.56,29.324 C100.884,29.288 101.208,29.288 101.532,29.252 C102.144,29.216 102.72,29.18 103.332,29.108 C104.052,29.036 104.772,28.892 105.528,28.784 C105.672,28.784 105.852,28.748 105.996,28.784 C106.572,28.892 107.004,28.712 107.256,28.208 C107.292,28.172 107.292,28.064 107.364,28.028 C107.616,27.776 107.472,27.56 107.328,27.38 C106.86,26.804 105.924,26.552 105.24,26.84 C104.664,27.092 104.088,27.2 103.476,27.236 C103.044,27.272 102.576,27.524 102.108,27.308 C102,25.76 101.928,17.228 102.36,15.428 C103.08,15.32 103.872,15.14 104.628,15.176 C104.916,15.176 105.204,15.104 105.456,15.032 C106.212,14.744 106.356,14.024 105.708,13.52 C105.564,13.448 105.384,13.376 105.24,13.376 C104.556,13.376 103.872,13.268 103.224,13.52 C103.008,13.592 102.756,13.556 102.468,13.592 Z M113.16,29.324 C113.016,29.252 112.836,29.144 112.62,29.072 C112.476,29.036 112.296,29 112.152,29.072 C111.756,29.18 111.36,29.144 111.036,28.82 C110.748,28.532 110.28,28.352 110.172,27.848 C110.136,27.74 110.1,27.632 110.1,27.524 C110.1,26.48 110.136,25.472 110.172,24.464 C110.172,23.996 110.244,23.564 110.244,23.096 C110.244,21.872 110.28,20.684 110.244,19.46 C110.244,17.984 110.172,16.508 110.136,14.996 C110.1,13.628 110.064,12.224 110.028,10.856 C110.028,9.812 110.064,8.768 110.064,7.724 C110.028,6.896 110.028,6.104 109.956,5.312 C109.92,4.484 109.812,3.692 109.74,2.9 C109.704,2.216 109.704,2.216 109.344,1.64 C109.56,0.956 110.172,0.992 110.676,0.92 C111.072,0.884 111.468,0.992 111.828,0.992 L114.168,0.992 C115.176,0.992 116.184,1.208 117.192,1.388 C118.596,1.676 119.748,2.468 120.864,3.368 C121.764,4.052 122.232,5.06 122.664,6.032 C123.132,7.004 123.06,8.012 123.132,9.02 C123.204,9.92 122.844,10.676 122.556,11.504 C122.268,12.26 121.764,12.872 121.368,13.556 C121.26,13.772 121.044,13.916 120.864,14.096 L120.792,14.096 C120.288,14.744 119.748,15.284 118.992,15.572 L119.784,17.948 C119.928,18.344 120.072,18.668 120.216,19.028 C120.396,19.496 120.576,19.928 120.72,20.396 C120.9,20.972 121.044,21.512 121.152,22.088 C121.368,23.492 121.872,24.824 122.196,26.192 C122.268,26.372 122.268,26.588 122.304,26.804 C122.448,27.524 122.592,28.244 122.772,29 C122.016,29.252 121.224,28.964 120.468,28.928 C120.18,28.64 120.108,28.316 120.216,28.028 C120.432,27.452 120.18,26.948 120.072,26.408 C119.892,25.616 119.712,24.788 119.496,23.996 C118.992,22.16 118.704,20.324 118.056,18.56 C117.876,17.948 117.66,17.372 117.444,16.796 C117.228,16.112 117.084,16.004 116.4,16.112 C116.256,16.148 116.076,16.184 115.932,16.148 C115.752,16.148 115.608,16.112 115.428,16.112 C115.428,16.328 115.464,16.544 115.464,16.76 C115.572,18.848 115.644,20.9 115.824,22.988 C115.896,24.068 115.824,25.112 115.86,26.156 C115.896,26.804 115.824,27.416 115.788,28.028 C115.788,28.244 115.752,28.424 115.716,28.604 C115.572,29.072 115.428,29.18 114.924,29.18 C114.636,29.144 114.312,29.072 114.024,29.108 C113.736,29.144 113.484,29.252 113.16,29.324 Z M115.356,14.6 C116.004,14.636 116.256,14.564 116.976,14.24 C117.732,13.916 118.416,13.448 118.956,12.872 C119.568,12.152 120.036,11.324 120.396,10.424 C120.54,10.136 120.648,9.812 120.756,9.488 C121.044,8.732 120.936,7.904 120.864,7.076 C120.756,5.636 120.072,4.556 118.848,3.836 C118.56,3.656 118.272,3.476 117.984,3.368 C117.012,3.044 116.004,2.936 115.032,2.864 C114.708,2.864 114.636,2.936 114.672,3.26 C114.708,3.62 114.78,3.98 114.816,4.34 C115.068,6.212 115.068,8.048 115.14,9.92 C115.176,11.36 115.212,12.8 115.284,14.24 C115.284,14.384 115.32,14.492 115.356,14.6 Z" id="Le-Verger"></path>
                </g>
            </g>
        </g>
    </g>
</svg>