<?xml version="1.0" encoding="UTF-8" standalone="no"?>
<svg width="36px" height="19px" viewBox="0 0 36 19" version="1.1" xmlns="http://www.w3.org/2000/svg" xmlns:xlink="http://www.w3.org/1999/xlink">
    <!-- Generator: Sketch 43.2 (39069) - http://www.bohemiancoding.com/sketch -->
    <title>menu</title>
    <desc>Created with Sketch.</desc>
    <defs></defs>
    <g id="Page-1" stroke="none" stroke-width="1" fill="none" fill-rule="evenodd">
        <g id="seedsStock" transform="translate(-1304.000000, -105.000000)" fill-rule="nonzero" fill="#FFFFFF">
            <g id="menu" transform="translate(1304.000000, 105.000000)">
                <path d="M1.12488312,2.27248831 L34.8722182,2.27248831 C35.4931948,2.27248831 35.9971013,1.76848831 35.9971013,1.14760519 C35.9971013,0.526628571 35.4931013,0.0227220779 34.8722182,0.0227220779 L1.12488312,0.0227220779 C0.503906494,0.0227220779 0,0.526722078 0,1.14760519 C0,1.76848831 0.504,2.27248831 1.12488312,2.27248831 Z" id="Shape"></path>
                <path d="M34.8722182,7.89709091 L1.12488312,7.89709091 C0.503906494,7.89709091 0,8.40109091 0,9.02197403 C0,9.64285714 0.504,10.1468571 1.12488312,10.1468571 L34.8722182,10.1468571 C35.4931948,10.1468571 35.9971013,9.64285714 35.9971013,9.02197403 C35.9971013,8.40109091 35.4931948,7.89709091 34.8722182,7.89709091 Z" id="Shape"></path>
                <path d="M34.8722182,15.7714597 L12.3739948,15.7714597 C11.7530182,15.7714597 11.2491117,16.2754597 11.2491117,16.8963429 C11.2491117,17.5173195 11.7531117,18.021226 12.3739948,18.021226 L34.8722182,18.021226 C35.4931948,18.021226 35.9971013,17.517226 35.9971013,16.8963429 C35.9971948,16.2753662 35.4931948,15.7714597 34.8722182,15.7714597 Z" id="Shape"></path>
            </g>
        </g>
    </g>
</svg>